<ttFont>
<head>
    <!-- Most of this table will be recalculated by the compiler -->
    <tableVersion value="1.0"/>
    <fontRevision value="1.002"/>
    <checkSumAdjustment value="0xf10e083a"/>
    <magicNumber value="0x5f0f3cf5"/>
    <flags value="00000000 00000011"/>
    <unitsPerEm value="1000"/>
    <created value="Thu Jan 14 20:43:45 2016"/>
    <modified value="Thu Jan 14 20:43:48 2016"/>
    <xMin value="-65"/>
    <yMin value="-379"/>
    <xMax value="692"/>
    <yMax value="1121"/>
    <macStyle value="00000000 00000010"/>
    <lowestRecPPEM value="6"/>
    <fontDirectionHint value="2"/>
    <indexToLocFormat value="0"/>
    <glyphDataFormat value="0"/>
  </head>
    <TTGlyph name=".notdef" xMin="-7" yMin="-200" xMax="548" yMax="800">
      <contour>
        <pt x="8" y="-200" on="1"/>
        <pt x="-7" y="800" on="1"/>
        <pt x="533" y="800" on="1"/>
        <pt x="548" y="-200" on="1"/>
      </contour>
      <contour>
        <pt x="70" y="750" on="1"/>
        <pt x="269" y="360" on="1"/>
        <pt x="457" y="750" on="1"/>
      </contour>
      <contour>
        <pt x="481" y="676" on="1"/>
        <pt x="301" y="300" on="1"/>
        <pt x="492" y="-76" on="1"/>
      </contour>
      <contour>
        <pt x="60" y="-76" on="1"/>
        <pt x="240" y="300" on="1"/>
        <pt x="49" y="676" on="1"/>
      </contour>
      <contour>
        <pt x="271" y="240" on="1"/>
        <pt x="84" y="-150" on="1"/>
        <pt x="471" y="-150" on="1"/>
      </contour>
    </TTGlyph>
    <TTGlyph name="A" xMin="6" yMin="-2" xMax="461" yMax="623">
      <contour>
        <pt x="417" y="-2" on="1"/>
        <pt x="412" y="51" on="0"/>
        <pt x="401" y="158" on="0"/>
        <pt x="395" y="212" on="1"/>
        <pt x="156" y="212" on="1"/>
        <pt x="130" y="159" on="0"/>
        <pt x="77" y="52" on="0"/>
        <pt x="52" y="0" on="1"/>
        <pt x="6" y="0" on="1"/>
        <pt x="81" y="154" on="0"/>
        <pt x="241" y="469" on="0"/>
        <pt x="322" y="623" on="1"/>
        <pt x="388" y="623" on="1"/>
        <pt x="408" y="469" on="0"/>
        <pt x="445" y="156" on="0"/>
        <pt x="461" y="2" on="1"/>
      </contour>
      <contour>
        <pt x="345" y="582" on="1"/>
        <pt x="302" y="499" on="0"/>
        <pt x="216" y="332" on="0"/>
        <pt x="174" y="248" on="1"/>
        <pt x="391" y="248" on="1"/>
        <pt x="382" y="331" on="0"/>
        <pt x="362" y="499" on="0"/>
        <pt x="352" y="582" on="1"/>
      </contour>
    </TTGlyph>
    <TTGlyph name="AE" xMin="-9" yMin="0" xMax="595" yMax="620">
      <contour>
        <pt x="356" y="580" on="1"/>
        <pt x="309" y="494" on="0"/>
        <pt x="215" y="322" on="0"/>
        <pt x="169" y="238" on="1"/>
        <pt x="297" y="238" on="1"/>
        <pt x="364" y="580" on="1"/>
      </contour>
      <contour>
        <pt x="251" y="0" on="1"/>
        <pt x="290" y="202" on="1"/>
        <pt x="150" y="202" on="1"/>
        <pt x="122" y="151" on="0"/>
        <pt x="68" y="50" on="0"/>
        <pt x="41" y="0" on="1"/>
        <pt x="-9" y="0" on="1"/>
        <pt x="75" y="152" on="0"/>
        <pt x="249" y="466" on="0"/>
        <pt x="336" y="620" on="1"/>
        <pt x="595" y="620" on="1"/>
        <pt x="588" y="580" on="1"/>
        <pt x="409" y="580" on="1"/>
        <pt x="361" y="333" on="1"/>
        <pt x="514" y="333" on="1"/>
        <pt x="507" y="297" on="1"/>
        <pt x="354" y="297" on="1"/>
        <pt x="304" y="40" on="1"/>
        <pt x="485" y="40" on="1"/>
        <pt x="473" y="0" on="1"/>
      </contour>
    </TTGlyph>
    <TTGlyph name="AEacute" xMin="-9" yMin="0" xMax="621" yMax="887">
      <contour>
        <pt x="382" y="717" on="1"/>
        <pt x="431" y="749" on="0"/>
        <pt x="546" y="847" on="0"/>
        <pt x="585" y="887" on="1"/>
        <pt x="621" y="849" on="1"/>
        <pt x="599" y="830" on="0"/>
        <pt x="542" y="788" on="0"/>
        <pt x="481" y="748" on="0"/>
        <pt x="420" y="711" on="0"/>
        <pt x="394" y="696" on="1"/>
      </contour>
      <contour>
        <pt x="356" y="580" on="1"/>
        <pt x="309" y="494" on="0"/>
        <pt x="215" y="322" on="0"/>
        <pt x="169" y="238" on="1"/>
        <pt x="297" y="238" on="1"/>
        <pt x="364" y="580" on="1"/>
      </contour>
      <contour>
        <pt x="251" y="0" on="1"/>
        <pt x="290" y="202" on="1"/>
        <pt x="150" y="202" on="1"/>
        <pt x="122" y="151" on="0"/>
        <pt x="68" y="50" on="0"/>
        <pt x="41" y="0" on="1"/>
        <pt x="-9" y="0" on="1"/>
        <pt x="75" y="152" on="0"/>
        <pt x="249" y="466" on="0"/>
        <pt x="336" y="620" on="1"/>
        <pt x="595" y="620" on="1"/>
        <pt x="588" y="580" on="1"/>
        <pt x="409" y="580" on="1"/>
        <pt x="361" y="333" on="1"/>
        <pt x="514" y="333" on="1"/>
        <pt x="507" y="297" on="1"/>
        <pt x="354" y="297" on="1"/>
        <pt x="304" y="40" on="1"/>
        <pt x="485" y="40" on="1"/>
        <pt x="473" y="0" on="1"/>
      </contour>
    </TTGlyph>
    <TTGlyph name="Aacute" xMin="6" yMin="-2" xMax="505" yMax="890">
      <contour>
        <pt x="266" y="720" on="1"/>
        <pt x="315" y="752" on="0"/>
        <pt x="430" y="850" on="0"/>
        <pt x="469" y="890" on="1"/>
        <pt x="505" y="852" on="1"/>
        <pt x="483" y="833" on="0"/>
        <pt x="426" y="791" on="0"/>
        <pt x="365" y="751" on="0"/>
        <pt x="304" y="714" on="0"/>
        <pt x="278" y="699" on="1"/>
      </contour>
      <contour>
        <pt x="417" y="-2" on="1"/>
        <pt x="412" y="51" on="0"/>
        <pt x="401" y="158" on="0"/>
        <pt x="395" y="212" on="1"/>
        <pt x="156" y="212" on="1"/>
        <pt x="130" y="159" on="0"/>
        <pt x="77" y="52" on="0"/>
        <pt x="52" y="0" on="1"/>
        <pt x="6" y="0" on="1"/>
        <pt x="81" y="154" on="0"/>
        <pt x="241" y="469" on="0"/>
        <pt x="322" y="623" on="1"/>
        <pt x="388" y="623" on="1"/>
        <pt x="408" y="469" on="0"/>
        <pt x="445" y="156" on="0"/>
        <pt x="461" y="2" on="1"/>
      </contour>
      <contour>
        <pt x="345" y="582" on="1"/>
        <pt x="302" y="499" on="0"/>
        <pt x="216" y="332" on="0"/>
        <pt x="174" y="248" on="1"/>
        <pt x="391" y="248" on="1"/>
        <pt x="382" y="331" on="0"/>
        <pt x="362" y="499" on="0"/>
        <pt x="352" y="582" on="1"/>
      </contour>
    </TTGlyph>
    <TTGlyph name="Abreve" xMin="6" yMin="-2" xMax="572" yMax="870">
      <contour>
        <pt x="546" y="867" on="1"/>
        <pt x="572" y="849" on="1"/>
        <pt x="523" y="783" on="0"/>
        <pt x="424" y="708" on="0"/>
        <pt x="374" y="708" on="1"/>
        <pt x="327" y="708" on="0"/>
        <pt x="254" y="778" on="0"/>
        <pt x="226" y="853" on="1"/>
        <pt x="262" y="870" on="1"/>
        <pt x="289" y="803" on="0"/>
        <pt x="344" y="746" on="0"/>
        <pt x="383" y="746" on="1"/>
        <pt x="426" y="746" on="0"/>
        <pt x="501" y="810" on="0"/>
      </contour>
      <contour>
        <pt x="417" y="-2" on="1"/>
        <pt x="412" y="51" on="0"/>
        <pt x="401" y="158" on="0"/>
        <pt x="395" y="212" on="1"/>
        <pt x="156" y="212" on="1"/>
        <pt x="130" y="159" on="0"/>
        <pt x="77" y="52" on="0"/>
        <pt x="52" y="0" on="1"/>
        <pt x="6" y="0" on="1"/>
        <pt x="81" y="154" on="0"/>
        <pt x="241" y="469" on="0"/>
        <pt x="322" y="623" on="1"/>
        <pt x="388" y="623" on="1"/>
        <pt x="408" y="469" on="0"/>
        <pt x="445" y="156" on="0"/>
        <pt x="461" y="2" on="1"/>
      </contour>
      <contour>
        <pt x="345" y="582" on="1"/>
        <pt x="302" y="499" on="0"/>
        <pt x="216" y="332" on="0"/>
        <pt x="174" y="248" on="1"/>
        <pt x="391" y="248" on="1"/>
        <pt x="382" y="331" on="0"/>
        <pt x="362" y="499" on="0"/>
        <pt x="352" y="582" on="1"/>
      </contour>
    </TTGlyph>
    <TTGlyph name="Acircumflex" xMin="6" yMin="-2" xMax="537" yMax="878">
      <contour>
        <pt x="506" y="701" on="1"/>
        <pt x="400" y="829" on="1"/>
        <pt x="234" y="705" on="1"/>
        <pt x="213" y="731" on="1"/>
        <pt x="408" y="878" on="1"/>
        <pt x="409" y="878" on="1"/>
        <pt x="537" y="727" on="1"/>
      </contour>
      <contour>
        <pt x="417" y="-2" on="1"/>
        <pt x="412" y="51" on="0"/>
        <pt x="401" y="158" on="0"/>
        <pt x="395" y="212" on="1"/>
        <pt x="156" y="212" on="1"/>
        <pt x="130" y="159" on="0"/>
        <pt x="77" y="52" on="0"/>
        <pt x="52" y="0" on="1"/>
        <pt x="6" y="0" on="1"/>
        <pt x="81" y="154" on="0"/>
        <pt x="241" y="469" on="0"/>
        <pt x="322" y="623" on="1"/>
        <pt x="388" y="623" on="1"/>
        <pt x="408" y="469" on="0"/>
        <pt x="445" y="156" on="0"/>
        <pt x="461" y="2" on="1"/>
      </contour>
      <contour>
        <pt x="345" y="582" on="1"/>
        <pt x="302" y="499" on="0"/>
        <pt x="216" y="332" on="0"/>
        <pt x="174" y="248" on="1"/>
        <pt x="391" y="248" on="1"/>
        <pt x="382" y="331" on="0"/>
        <pt x="362" y="499" on="0"/>
        <pt x="352" y="582" on="1"/>
      </contour>
    </TTGlyph>
    <TTGlyph name="Adieresis" xMin="6" yMin="-2" xMax="528" yMax="841">
      <contour>
        <pt x="490" y="712" on="1"/>
        <pt x="448" y="710" on="1"/>
        <pt x="478" y="840" on="1"/>
        <pt x="528" y="841" on="1"/>
      </contour>
      <contour>
        <pt x="281" y="709" on="1"/>
        <pt x="239" y="708" on="1"/>
        <pt x="270" y="837" on="1"/>
        <pt x="319" y="838" on="1"/>
      </contour>
      <contour>
        <pt x="417" y="-2" on="1"/>
        <pt x="412" y="51" on="0"/>
        <pt x="401" y="158" on="0"/>
        <pt x="395" y="212" on="1"/>
        <pt x="156" y="212" on="1"/>
        <pt x="130" y="159" on="0"/>
        <pt x="77" y="52" on="0"/>
        <pt x="52" y="0" on="1"/>
        <pt x="6" y="0" on="1"/>
        <pt x="81" y="154" on="0"/>
        <pt x="241" y="469" on="0"/>
        <pt x="322" y="623" on="1"/>
        <pt x="388" y="623" on="1"/>
        <pt x="408" y="469" on="0"/>
        <pt x="445" y="156" on="0"/>
        <pt x="461" y="2" on="1"/>
      </contour>
      <contour>
        <pt x="345" y="582" on="1"/>
        <pt x="302" y="499" on="0"/>
        <pt x="216" y="332" on="0"/>
        <pt x="174" y="248" on="1"/>
        <pt x="391" y="248" on="1"/>
        <pt x="382" y="331" on="0"/>
        <pt x="362" y="499" on="0"/>
        <pt x="352" y="582" on="1"/>
      </contour>
    </TTGlyph>
    <TTGlyph name="Agrave" xMin="6" yMin="-2" xMax="462" yMax="897">
      <contour>
        <pt x="462" y="711" on="1"/>
        <pt x="447" y="691" on="1"/>
        <pt x="426" y="706" on="0"/>
        <pt x="377" y="747" on="0"/>
        <pt x="328" y="792" on="0"/>
        <pt x="281" y="840" on="0"/>
        <pt x="263" y="861" on="1"/>
        <pt x="302" y="897" on="1"/>
        <pt x="332" y="853" on="0"/>
        <pt x="424" y="745" on="0"/>
      </contour>
      <contour>
        <pt x="417" y="-2" on="1"/>
        <pt x="412" y="51" on="0"/>
        <pt x="401" y="158" on="0"/>
        <pt x="395" y="212" on="1"/>
        <pt x="156" y="212" on="1"/>
        <pt x="130" y="159" on="0"/>
        <pt x="77" y="52" on="0"/>
        <pt x="52" y="0" on="1"/>
        <pt x="6" y="0" on="1"/>
        <pt x="81" y="154" on="0"/>
        <pt x="241" y="469" on="0"/>
        <pt x="322" y="623" on="1"/>
        <pt x="388" y="623" on="1"/>
        <pt x="408" y="469" on="0"/>
        <pt x="445" y="156" on="0"/>
        <pt x="461" y="2" on="1"/>
      </contour>
      <contour>
        <pt x="345" y="582" on="1"/>
        <pt x="302" y="499" on="0"/>
        <pt x="216" y="332" on="0"/>
        <pt x="174" y="248" on="1"/>
        <pt x="391" y="248" on="1"/>
        <pt x="382" y="331" on="0"/>
        <pt x="362" y="499" on="0"/>
        <pt x="352" y="582" on="1"/>
      </contour>
    </TTGlyph>
    <TTGlyph name="Amacron" xMin="6" yMin="-2" xMax="544" yMax="796">
      <contour>
        <pt x="544" y="796" on="1"/>
        <pt x="537" y="758" on="1"/>
        <pt x="224" y="758" on="1"/>
        <pt x="232" y="796" on="1"/>
      </contour>
      <contour>
        <pt x="417" y="-2" on="1"/>
        <pt x="412" y="51" on="0"/>
        <pt x="401" y="158" on="0"/>
        <pt x="395" y="212" on="1"/>
        <pt x="156" y="212" on="1"/>
        <pt x="130" y="159" on="0"/>
        <pt x="77" y="52" on="0"/>
        <pt x="52" y="0" on="1"/>
        <pt x="6" y="0" on="1"/>
        <pt x="81" y="154" on="0"/>
        <pt x="241" y="469" on="0"/>
        <pt x="322" y="623" on="1"/>
        <pt x="388" y="623" on="1"/>
        <pt x="408" y="469" on="0"/>
        <pt x="445" y="156" on="0"/>
        <pt x="461" y="2" on="1"/>
      </contour>
      <contour>
        <pt x="345" y="582" on="1"/>
        <pt x="302" y="499" on="0"/>
        <pt x="216" y="332" on="0"/>
        <pt x="174" y="248" on="1"/>
        <pt x="391" y="248" on="1"/>
        <pt x="382" y="331" on="0"/>
        <pt x="362" y="499" on="0"/>
        <pt x="352" y="582" on="1"/>
      </contour>
    </TTGlyph>
    <TTGlyph name="Aogonek" xMin="6" yMin="-206" xMax="461" yMax="623">
      <contour>
        <pt x="304" y="-206" on="1"/>
        <pt x="267" y="-206" on="0"/>
        <pt x="228" y="-171" on="0"/>
        <pt x="228" y="-146" on="1"/>
        <pt x="228" y="-111" on="0"/>
        <pt x="317" y="-31" on="0"/>
        <pt x="416" y="11" on="1"/>
        <pt x="411" y="60" on="0"/>
        <pt x="400" y="162" on="0"/>
        <pt x="395" y="212" on="1"/>
        <pt x="156" y="212" on="1"/>
        <pt x="130" y="159" on="0"/>
        <pt x="77" y="52" on="0"/>
        <pt x="52" y="0" on="1"/>
        <pt x="6" y="0" on="1"/>
        <pt x="81" y="154" on="0"/>
        <pt x="241" y="469" on="0"/>
        <pt x="322" y="623" on="1"/>
        <pt x="388" y="623" on="1"/>
        <pt x="408" y="469" on="0"/>
        <pt x="445" y="156" on="0"/>
        <pt x="461" y="2" on="1"/>
        <pt x="360" y="-37" on="0"/>
        <pt x="271" y="-107" on="0"/>
        <pt x="271" y="-135" on="1"/>
        <pt x="271" y="-150" on="0"/>
        <pt x="295" y="-170" on="0"/>
        <pt x="320" y="-170" on="1"/>
        <pt x="338" y="-170" on="0"/>
        <pt x="391" y="-157" on="0"/>
        <pt x="425" y="-143" on="1"/>
        <pt x="433" y="-166" on="1"/>
        <pt x="393" y="-187" on="0"/>
        <pt x="329" y="-206" on="0"/>
      </contour>
      <contour>
        <pt x="345" y="582" on="1"/>
        <pt x="302" y="499" on="0"/>
        <pt x="216" y="332" on="0"/>
        <pt x="174" y="248" on="1"/>
        <pt x="391" y="248" on="1"/>
        <pt x="382" y="331" on="0"/>
        <pt x="362" y="499" on="0"/>
        <pt x="352" y="582" on="1"/>
      </contour>
    </TTGlyph>
    <TTGlyph name="Aring" xMin="6" yMin="-2" xMax="515" yMax="892">
      <contour>
        <pt x="391" y="892" on="1"/>
        <pt x="445" y="892" on="0"/>
        <pt x="515" y="836" on="0"/>
        <pt x="515" y="794" on="1"/>
        <pt x="515" y="748" on="0"/>
        <pt x="438" y="685" on="0"/>
        <pt x="380" y="685" on="1"/>
        <pt x="326" y="685" on="0"/>
        <pt x="256" y="741" on="0"/>
        <pt x="256" y="783" on="1"/>
        <pt x="256" y="829" on="0"/>
        <pt x="333" y="892" on="0"/>
      </contour>
      <contour>
        <pt x="387" y="861" on="1"/>
        <pt x="347" y="861" on="0"/>
        <pt x="292" y="818" on="0"/>
        <pt x="292" y="787" on="1"/>
        <pt x="292" y="757" on="0"/>
        <pt x="344" y="716" on="0"/>
        <pt x="384" y="716" on="1"/>
        <pt x="425" y="716" on="0"/>
        <pt x="480" y="759" on="0"/>
        <pt x="480" y="790" on="1"/>
        <pt x="480" y="819" on="0"/>
        <pt x="427" y="861" on="0"/>
      </contour>
      <contour>
        <pt x="417" y="-2" on="1"/>
        <pt x="412" y="51" on="0"/>
        <pt x="401" y="158" on="0"/>
        <pt x="395" y="212" on="1"/>
        <pt x="156" y="212" on="1"/>
        <pt x="130" y="159" on="0"/>
        <pt x="77" y="52" on="0"/>
        <pt x="52" y="0" on="1"/>
        <pt x="6" y="0" on="1"/>
        <pt x="81" y="154" on="0"/>
        <pt x="241" y="469" on="0"/>
        <pt x="322" y="623" on="1"/>
        <pt x="388" y="623" on="1"/>
        <pt x="408" y="469" on="0"/>
        <pt x="445" y="156" on="0"/>
        <pt x="461" y="2" on="1"/>
      </contour>
      <contour>
        <pt x="345" y="582" on="1"/>
        <pt x="302" y="499" on="0"/>
        <pt x="216" y="332" on="0"/>
        <pt x="174" y="248" on="1"/>
        <pt x="391" y="248" on="1"/>
        <pt x="382" y="331" on="0"/>
        <pt x="362" y="499" on="0"/>
        <pt x="352" y="582" on="1"/>
      </contour>
    </TTGlyph>
    <TTGlyph name="Aringacute" xMin="6" yMin="-2" xMax="572" yMax="1121">
      <contour>
        <pt x="333" y="951" on="1"/>
        <pt x="382" y="983" on="0"/>
        <pt x="497" y="1081" on="0"/>
        <pt x="536" y="1121" on="1"/>
        <pt x="572" y="1083" on="1"/>
        <pt x="550" y="1064" on="0"/>
        <pt x="493" y="1022" on="0"/>
        <pt x="432" y="982" on="0"/>
        <pt x="371" y="945" on="0"/>
        <pt x="345" y="930" on="1"/>
      </contour>
      <contour>
        <pt x="391" y="892" on="1"/>
        <pt x="445" y="892" on="0"/>
        <pt x="515" y="836" on="0"/>
        <pt x="515" y="794" on="1"/>
        <pt x="515" y="748" on="0"/>
        <pt x="438" y="685" on="0"/>
        <pt x="380" y="685" on="1"/>
        <pt x="326" y="685" on="0"/>
        <pt x="256" y="741" on="0"/>
        <pt x="256" y="783" on="1"/>
        <pt x="256" y="829" on="0"/>
        <pt x="333" y="892" on="0"/>
      </contour>
      <contour>
        <pt x="387" y="861" on="1"/>
        <pt x="347" y="861" on="0"/>
        <pt x="292" y="818" on="0"/>
        <pt x="292" y="787" on="1"/>
        <pt x="292" y="757" on="0"/>
        <pt x="344" y="716" on="0"/>
        <pt x="384" y="716" on="1"/>
        <pt x="425" y="716" on="0"/>
        <pt x="480" y="759" on="0"/>
        <pt x="480" y="790" on="1"/>
        <pt x="480" y="819" on="0"/>
        <pt x="427" y="861" on="0"/>
      </contour>
      <contour>
        <pt x="417" y="-2" on="1"/>
        <pt x="412" y="51" on="0"/>
        <pt x="401" y="158" on="0"/>
        <pt x="395" y="212" on="1"/>
        <pt x="156" y="212" on="1"/>
        <pt x="130" y="159" on="0"/>
        <pt x="77" y="52" on="0"/>
        <pt x="52" y="0" on="1"/>
        <pt x="6" y="0" on="1"/>
        <pt x="81" y="154" on="0"/>
        <pt x="241" y="469" on="0"/>
        <pt x="322" y="623" on="1"/>
        <pt x="388" y="623" on="1"/>
        <pt x="408" y="469" on="0"/>
        <pt x="445" y="156" on="0"/>
        <pt x="461" y="2" on="1"/>
      </contour>
      <contour>
        <pt x="345" y="582" on="1"/>
        <pt x="302" y="499" on="0"/>
        <pt x="216" y="332" on="0"/>
        <pt x="174" y="248" on="1"/>
        <pt x="391" y="248" on="1"/>
        <pt x="382" y="331" on="0"/>
        <pt x="362" y="499" on="0"/>
        <pt x="352" y="582" on="1"/>
      </contour>
    </TTGlyph>
    <TTGlyph name="Atilde" xMin="6" yMin="-2" xMax="587" yMax="861">
      <contour>
        <pt x="456" y="746" on="1"/>
        <pt x="481" y="746" on="0"/>
        <pt x="534" y="813" on="0"/>
        <pt x="562" y="860" on="1"/>
        <pt x="587" y="845" on="1"/>
        <pt x="550" y="780" on="0"/>
        <pt x="482" y="710" on="0"/>
        <pt x="446" y="710" on="1"/>
        <pt x="421" y="710" on="0"/>
        <pt x="388" y="746" on="0"/>
        <pt x="361" y="789" on="0"/>
        <pt x="335" y="825" on="0"/>
        <pt x="316" y="825" on="1"/>
        <pt x="291" y="825" on="0"/>
        <pt x="238" y="764" on="0"/>
        <pt x="210" y="717" on="1"/>
        <pt x="185" y="732" on="1"/>
        <pt x="222" y="797" on="0"/>
        <pt x="291" y="861" on="0"/>
        <pt x="326" y="861" on="1"/>
        <pt x="351" y="861" on="0"/>
        <pt x="384" y="825" on="0"/>
        <pt x="411" y="782" on="0"/>
        <pt x="437" y="746" on="0"/>
      </contour>
      <contour>
        <pt x="417" y="-2" on="1"/>
        <pt x="412" y="51" on="0"/>
        <pt x="401" y="158" on="0"/>
        <pt x="395" y="212" on="1"/>
        <pt x="156" y="212" on="1"/>
        <pt x="130" y="159" on="0"/>
        <pt x="77" y="52" on="0"/>
        <pt x="52" y="0" on="1"/>
        <pt x="6" y="0" on="1"/>
        <pt x="81" y="154" on="0"/>
        <pt x="241" y="469" on="0"/>
        <pt x="322" y="623" on="1"/>
        <pt x="388" y="623" on="1"/>
        <pt x="408" y="469" on="0"/>
        <pt x="445" y="156" on="0"/>
        <pt x="461" y="2" on="1"/>
      </contour>
      <contour>
        <pt x="345" y="582" on="1"/>
        <pt x="302" y="499" on="0"/>
        <pt x="216" y="332" on="0"/>
        <pt x="174" y="248" on="1"/>
        <pt x="391" y="248" on="1"/>
        <pt x="382" y="331" on="0"/>
        <pt x="362" y="499" on="0"/>
        <pt x="352" y="582" on="1"/>
      </contour>
    </TTGlyph>
    <TTGlyph name="B" xMin="63" yMin="-7" xMax="511" yMax="627">
      <contour>
        <pt x="171" y="-7" on="1"/>
        <pt x="146" y="-7" on="0"/>
        <pt x="92" y="-3" on="0"/>
        <pt x="63" y="0" on="1"/>
        <pt x="183" y="619" on="1"/>
        <pt x="213" y="623" on="0"/>
        <pt x="268" y="627" on="0"/>
        <pt x="292" y="627" on="1"/>
        <pt x="405" y="627" on="0"/>
        <pt x="511" y="551" on="0"/>
        <pt x="511" y="496" on="1"/>
        <pt x="511" y="434" on="0"/>
        <pt x="409" y="338" on="0"/>
        <pt x="322" y="319" on="1"/>
        <pt x="391" y="310" on="0"/>
        <pt x="481" y="236" on="0"/>
        <pt x="481" y="183" on="1"/>
        <pt x="481" y="149" on="0"/>
        <pt x="448" y="80" on="0"/>
        <pt x="374" y="27" on="0"/>
        <pt x="255" y="-7" on="0"/>
      </contour>
      <contour>
        <pt x="292" y="590" on="1"/>
        <pt x="276" y="590" on="0"/>
        <pt x="240" y="587" on="0"/>
        <pt x="221" y="585" on="1"/>
        <pt x="171" y="328" on="1"/>
        <pt x="328" y="333" on="0"/>
        <pt x="468" y="426" on="0"/>
        <pt x="468" y="486" on="1"/>
        <pt x="468" y="531" on="0"/>
        <pt x="382" y="590" on="0"/>
      </contour>
      <contour>
        <pt x="187" y="35" on="1"/>
        <pt x="318" y="35" on="0"/>
        <pt x="437" y="120" on="0"/>
        <pt x="437" y="176" on="1"/>
        <pt x="437" y="228" on="0"/>
        <pt x="329" y="297" on="0"/>
        <pt x="210" y="297" on="1"/>
        <pt x="200" y="297" on="0"/>
        <pt x="177" y="297" on="0"/>
        <pt x="165" y="296" on="1"/>
        <pt x="115" y="38" on="1"/>
        <pt x="134" y="37" on="0"/>
        <pt x="170" y="35" on="0"/>
      </contour>
    </TTGlyph>
    <TTGlyph name="C" xMin="74" yMin="-13" xMax="509" yMax="633">
      <contour>
        <pt x="379" y="633" on="1"/>
        <pt x="452" y="633" on="0"/>
        <pt x="509" y="539" on="0"/>
        <pt x="509" y="452" on="1"/>
        <pt x="509" y="443" on="0"/>
        <pt x="509" y="424" on="0"/>
        <pt x="508" y="414" on="1"/>
        <pt x="465" y="413" on="1"/>
        <pt x="465" y="441" on="1"/>
        <pt x="465" y="513" on="0"/>
        <pt x="429" y="593" on="0"/>
        <pt x="370" y="593" on="1"/>
        <pt x="317" y="593" on="0"/>
        <pt x="225" y="530" on="0"/>
        <pt x="158" y="428" on="0"/>
        <pt x="119" y="297" on="0"/>
        <pt x="119" y="229" on="1"/>
        <pt x="119" y="129" on="0"/>
        <pt x="206" y="28" on="0"/>
        <pt x="285" y="28" on="1"/>
        <pt x="320" y="28" on="0"/>
        <pt x="403" y="47" on="0"/>
        <pt x="451" y="66" on="1"/>
        <pt x="447" y="22" on="1"/>
        <pt x="400" y="4" on="0"/>
        <pt x="316" y="-13" on="0"/>
        <pt x="279" y="-13" on="1"/>
        <pt x="182" y="-13" on="0"/>
        <pt x="74" y="106" on="0"/>
        <pt x="74" y="219" on="1"/>
        <pt x="74" y="298" on="0"/>
        <pt x="121" y="448" on="0"/>
        <pt x="203" y="563" on="0"/>
        <pt x="315" y="633" on="0"/>
      </contour>
    </TTGlyph>
    <TTGlyph name="Cacute" xMin="74" yMin="-13" xMax="509" yMax="900">
      <contour>
        <pt x="267" y="730" on="1"/>
        <pt x="316" y="762" on="0"/>
        <pt x="431" y="860" on="0"/>
        <pt x="470" y="900" on="1"/>
        <pt x="506" y="862" on="1"/>
        <pt x="484" y="843" on="0"/>
        <pt x="427" y="801" on="0"/>
        <pt x="366" y="761" on="0"/>
        <pt x="305" y="724" on="0"/>
        <pt x="279" y="709" on="1"/>
      </contour>
      <contour>
        <pt x="379" y="633" on="1"/>
        <pt x="452" y="633" on="0"/>
        <pt x="509" y="539" on="0"/>
        <pt x="509" y="452" on="1"/>
        <pt x="509" y="443" on="0"/>
        <pt x="509" y="424" on="0"/>
        <pt x="508" y="414" on="1"/>
        <pt x="465" y="413" on="1"/>
        <pt x="465" y="441" on="1"/>
        <pt x="465" y="513" on="0"/>
        <pt x="429" y="593" on="0"/>
        <pt x="370" y="593" on="1"/>
        <pt x="317" y="593" on="0"/>
        <pt x="225" y="530" on="0"/>
        <pt x="158" y="428" on="0"/>
        <pt x="119" y="297" on="0"/>
        <pt x="119" y="229" on="1"/>
        <pt x="119" y="129" on="0"/>
        <pt x="206" y="28" on="0"/>
        <pt x="285" y="28" on="1"/>
        <pt x="320" y="28" on="0"/>
        <pt x="403" y="47" on="0"/>
        <pt x="451" y="66" on="1"/>
        <pt x="447" y="22" on="1"/>
        <pt x="400" y="4" on="0"/>
        <pt x="316" y="-13" on="0"/>
        <pt x="279" y="-13" on="1"/>
        <pt x="182" y="-13" on="0"/>
        <pt x="74" y="106" on="0"/>
        <pt x="74" y="219" on="1"/>
        <pt x="74" y="298" on="0"/>
        <pt x="121" y="448" on="0"/>
        <pt x="203" y="563" on="0"/>
        <pt x="315" y="633" on="0"/>
      </contour>
    </TTGlyph>
    <TTGlyph name="Ccaron" xMin="74" yMin="-13" xMax="561" yMax="885">
      <contour>
        <pt x="366" y="708" on="1"/>
        <pt x="365" y="708" on="1"/>
        <pt x="236" y="859" on="1"/>
        <pt x="268" y="885" on="1"/>
        <pt x="373" y="757" on="1"/>
        <pt x="539" y="881" on="1"/>
        <pt x="561" y="855" on="1"/>
      </contour>
      <contour>
        <pt x="379" y="633" on="1"/>
        <pt x="452" y="633" on="0"/>
        <pt x="509" y="539" on="0"/>
        <pt x="509" y="452" on="1"/>
        <pt x="509" y="443" on="0"/>
        <pt x="509" y="424" on="0"/>
        <pt x="508" y="414" on="1"/>
        <pt x="465" y="413" on="1"/>
        <pt x="465" y="441" on="1"/>
        <pt x="465" y="513" on="0"/>
        <pt x="429" y="593" on="0"/>
        <pt x="370" y="593" on="1"/>
        <pt x="317" y="593" on="0"/>
        <pt x="225" y="530" on="0"/>
        <pt x="158" y="428" on="0"/>
        <pt x="119" y="297" on="0"/>
        <pt x="119" y="229" on="1"/>
        <pt x="119" y="129" on="0"/>
        <pt x="206" y="28" on="0"/>
        <pt x="285" y="28" on="1"/>
        <pt x="320" y="28" on="0"/>
        <pt x="403" y="47" on="0"/>
        <pt x="451" y="66" on="1"/>
        <pt x="447" y="22" on="1"/>
        <pt x="400" y="4" on="0"/>
        <pt x="316" y="-13" on="0"/>
        <pt x="279" y="-13" on="1"/>
        <pt x="182" y="-13" on="0"/>
        <pt x="74" y="106" on="0"/>
        <pt x="74" y="219" on="1"/>
        <pt x="74" y="298" on="0"/>
        <pt x="121" y="448" on="0"/>
        <pt x="203" y="563" on="0"/>
        <pt x="315" y="633" on="0"/>
      </contour>
    </TTGlyph>
    <TTGlyph name="Ccedilla" xMin="74" yMin="-177" xMax="509" yMax="633">
      <contour>
        <pt x="336" y="-176" on="1"/>
        <pt x="294" y="-177" on="1"/>
        <pt x="295" y="-170" on="0"/>
        <pt x="295" y="-155" on="0"/>
        <pt x="295" y="-148" on="1"/>
        <pt x="295" y="-88" on="0"/>
        <pt x="259" y="-33" on="0"/>
        <pt x="231" y="-33" on="1"/>
        <pt x="202" y="-33" on="0"/>
        <pt x="149" y="-93" on="0"/>
        <pt x="124" y="-147" on="1"/>
        <pt x="98" y="-138" on="1"/>
        <pt x="122" y="-81" on="0"/>
        <pt x="176" y="-13" on="0"/>
        <pt x="205" y="-3" on="1"/>
        <pt x="142" y="17" on="0"/>
        <pt x="74" y="129" on="0"/>
        <pt x="74" y="219" on="1"/>
        <pt x="74" y="298" on="0"/>
        <pt x="121" y="448" on="0"/>
        <pt x="203" y="563" on="0"/>
        <pt x="315" y="633" on="0"/>
        <pt x="379" y="633" on="1"/>
        <pt x="452" y="633" on="0"/>
        <pt x="509" y="539" on="0"/>
        <pt x="509" y="452" on="1"/>
        <pt x="509" y="443" on="0"/>
        <pt x="509" y="424" on="0"/>
        <pt x="508" y="414" on="1"/>
        <pt x="465" y="413" on="1"/>
        <pt x="465" y="441" on="1"/>
        <pt x="465" y="513" on="0"/>
        <pt x="429" y="593" on="0"/>
        <pt x="370" y="593" on="1"/>
        <pt x="317" y="593" on="0"/>
        <pt x="225" y="530" on="0"/>
        <pt x="158" y="428" on="0"/>
        <pt x="119" y="297" on="0"/>
        <pt x="119" y="229" on="1"/>
        <pt x="119" y="129" on="0"/>
        <pt x="206" y="28" on="0"/>
        <pt x="285" y="28" on="1"/>
        <pt x="320" y="28" on="0"/>
        <pt x="403" y="47" on="0"/>
        <pt x="451" y="66" on="1"/>
        <pt x="447" y="22" on="1"/>
        <pt x="403" y="5" on="0"/>
        <pt x="322" y="-12" on="0"/>
        <pt x="287" y="-13" on="1"/>
        <pt x="309" y="-29" on="0"/>
        <pt x="337" y="-97" on="0"/>
        <pt x="337" y="-149" on="1"/>
        <pt x="337" y="-156" on="0"/>
        <pt x="337" y="-169" on="0"/>
      </contour>
    </TTGlyph>
    <TTGlyph name="Cdotaccent" xMin="74" yMin="-13" xMax="509" yMax="849">
      <contour>
        <pt x="386" y="720" on="1"/>
        <pt x="344" y="719" on="1"/>
        <pt x="375" y="848" on="1"/>
        <pt x="425" y="849" on="1"/>
      </contour>
      <contour>
        <pt x="379" y="633" on="1"/>
        <pt x="452" y="633" on="0"/>
        <pt x="509" y="539" on="0"/>
        <pt x="509" y="452" on="1"/>
        <pt x="509" y="443" on="0"/>
        <pt x="509" y="424" on="0"/>
        <pt x="508" y="414" on="1"/>
        <pt x="465" y="413" on="1"/>
        <pt x="465" y="441" on="1"/>
        <pt x="465" y="513" on="0"/>
        <pt x="429" y="593" on="0"/>
        <pt x="370" y="593" on="1"/>
        <pt x="317" y="593" on="0"/>
        <pt x="225" y="530" on="0"/>
        <pt x="158" y="428" on="0"/>
        <pt x="119" y="297" on="0"/>
        <pt x="119" y="229" on="1"/>
        <pt x="119" y="129" on="0"/>
        <pt x="206" y="28" on="0"/>
        <pt x="285" y="28" on="1"/>
        <pt x="320" y="28" on="0"/>
        <pt x="403" y="47" on="0"/>
        <pt x="451" y="66" on="1"/>
        <pt x="447" y="22" on="1"/>
        <pt x="400" y="4" on="0"/>
        <pt x="316" y="-13" on="0"/>
        <pt x="279" y="-13" on="1"/>
        <pt x="182" y="-13" on="0"/>
        <pt x="74" y="106" on="0"/>
        <pt x="74" y="219" on="1"/>
        <pt x="74" y="298" on="0"/>
        <pt x="121" y="448" on="0"/>
        <pt x="203" y="563" on="0"/>
        <pt x="315" y="633" on="0"/>
      </contour>
    </TTGlyph>
    <TTGlyph name="D" xMin="55" yMin="-6" xMax="515" yMax="628">
      <contour>
        <pt x="515" y="380" on="1"/>
        <pt x="515" y="302" on="0"/>
        <pt x="467" y="162" on="0"/>
        <pt x="373" y="56" on="0"/>
        <pt x="229" y="-6" on="0"/>
        <pt x="135" y="-6" on="1"/>
        <pt x="116" y="-6" on="0"/>
        <pt x="76" y="-3" on="0"/>
        <pt x="55" y="0" on="1"/>
        <pt x="175" y="619" on="1"/>
        <pt x="200" y="623" on="0"/>
        <pt x="248" y="628" on="0"/>
        <pt x="270" y="628" on="1"/>
        <pt x="386" y="628" on="0"/>
        <pt x="515" y="504" on="0"/>
      </contour>
      <contour>
        <pt x="150" y="34" on="1"/>
        <pt x="231" y="34" on="0"/>
        <pt x="352" y="89" on="0"/>
        <pt x="431" y="181" on="0"/>
        <pt x="470" y="306" on="0"/>
        <pt x="470" y="375" on="1"/>
        <pt x="470" y="484" on="0"/>
        <pt x="365" y="589" on="0"/>
        <pt x="268" y="589" on="1"/>
        <pt x="255" y="589" on="0"/>
        <pt x="227" y="587" on="0"/>
        <pt x="213" y="585" on="1"/>
        <pt x="106" y="36" on="1"/>
        <pt x="117" y="35" on="0"/>
        <pt x="140" y="34" on="0"/>
      </contour>
    </TTGlyph>
    <TTGlyph name="Dcaron" xMin="55" yMin="-6" xMax="580" yMax="880">
      <contour>
        <pt x="385" y="703" on="1"/>
        <pt x="384" y="703" on="1"/>
        <pt x="255" y="854" on="1"/>
        <pt x="287" y="880" on="1"/>
        <pt x="392" y="752" on="1"/>
        <pt x="558" y="876" on="1"/>
        <pt x="580" y="850" on="1"/>
      </contour>
      <contour>
        <pt x="515" y="380" on="1"/>
        <pt x="515" y="302" on="0"/>
        <pt x="467" y="162" on="0"/>
        <pt x="373" y="56" on="0"/>
        <pt x="229" y="-6" on="0"/>
        <pt x="135" y="-6" on="1"/>
        <pt x="116" y="-6" on="0"/>
        <pt x="76" y="-3" on="0"/>
        <pt x="55" y="0" on="1"/>
        <pt x="175" y="619" on="1"/>
        <pt x="200" y="623" on="0"/>
        <pt x="248" y="628" on="0"/>
        <pt x="270" y="628" on="1"/>
        <pt x="386" y="628" on="0"/>
        <pt x="515" y="504" on="0"/>
      </contour>
      <contour>
        <pt x="150" y="34" on="1"/>
        <pt x="231" y="34" on="0"/>
        <pt x="352" y="89" on="0"/>
        <pt x="431" y="181" on="0"/>
        <pt x="470" y="306" on="0"/>
        <pt x="470" y="375" on="1"/>
        <pt x="470" y="484" on="0"/>
        <pt x="365" y="589" on="0"/>
        <pt x="268" y="589" on="1"/>
        <pt x="255" y="589" on="0"/>
        <pt x="227" y="587" on="0"/>
        <pt x="213" y="585" on="1"/>
        <pt x="106" y="36" on="1"/>
        <pt x="117" y="35" on="0"/>
        <pt x="140" y="34" on="0"/>
      </contour>
    </TTGlyph>
    <TTGlyph name="Dcroat" xMin="33" yMin="-6" xMax="515" yMax="628">
      <contour>
        <pt x="135" y="-6" on="1"/>
        <pt x="116" y="-6" on="0"/>
        <pt x="76" y="-3" on="0"/>
        <pt x="55" y="0" on="1"/>
        <pt x="113" y="298" on="1"/>
        <pt x="33" y="298" on="1"/>
        <pt x="40" y="333" on="1"/>
        <pt x="120" y="333" on="1"/>
        <pt x="175" y="619" on="1"/>
        <pt x="200" y="623" on="0"/>
        <pt x="248" y="628" on="0"/>
        <pt x="270" y="628" on="1"/>
        <pt x="386" y="628" on="0"/>
        <pt x="515" y="504" on="0"/>
        <pt x="515" y="380" on="1"/>
        <pt x="515" y="302" on="0"/>
        <pt x="467" y="162" on="0"/>
        <pt x="373" y="56" on="0"/>
        <pt x="229" y="-6" on="0"/>
      </contour>
      <contour>
        <pt x="150" y="34" on="1"/>
        <pt x="231" y="34" on="0"/>
        <pt x="352" y="89" on="0"/>
        <pt x="431" y="181" on="0"/>
        <pt x="470" y="306" on="0"/>
        <pt x="470" y="375" on="1"/>
        <pt x="470" y="484" on="0"/>
        <pt x="365" y="589" on="0"/>
        <pt x="268" y="589" on="1"/>
        <pt x="255" y="589" on="0"/>
        <pt x="227" y="587" on="0"/>
        <pt x="213" y="585" on="1"/>
        <pt x="164" y="333" on="1"/>
        <pt x="321" y="333" on="1"/>
        <pt x="312" y="298" on="1"/>
        <pt x="157" y="298" on="1"/>
        <pt x="106" y="36" on="1"/>
        <pt x="117" y="35" on="0"/>
        <pt x="140" y="34" on="0"/>
      </contour>
    </TTGlyph>
    <TTGlyph name="E" xMin="71" yMin="0" xMax="547" yMax="620">
      <contour>
        <pt x="435" y="40" on="1"/>
        <pt x="425" y="0" on="1"/>
        <pt x="71" y="0" on="1"/>
        <pt x="191" y="620" on="1"/>
        <pt x="547" y="620" on="1"/>
        <pt x="539" y="580" on="1"/>
        <pt x="228" y="580" on="1"/>
        <pt x="180" y="333" on="1"/>
        <pt x="445" y="333" on="1"/>
        <pt x="438" y="297" on="1"/>
        <pt x="173" y="297" on="1"/>
        <pt x="124" y="40" on="1"/>
      </contour>
    </TTGlyph>
    <TTGlyph name="Eacute" xMin="71" yMin="0" xMax="547" yMax="887">
      <contour>
        <pt x="281" y="717" on="1"/>
        <pt x="330" y="749" on="0"/>
        <pt x="445" y="847" on="0"/>
        <pt x="484" y="887" on="1"/>
        <pt x="520" y="849" on="1"/>
        <pt x="498" y="830" on="0"/>
        <pt x="441" y="788" on="0"/>
        <pt x="380" y="748" on="0"/>
        <pt x="319" y="711" on="0"/>
        <pt x="293" y="696" on="1"/>
      </contour>
      <contour>
        <pt x="435" y="40" on="1"/>
        <pt x="425" y="0" on="1"/>
        <pt x="71" y="0" on="1"/>
        <pt x="191" y="620" on="1"/>
        <pt x="547" y="620" on="1"/>
        <pt x="539" y="580" on="1"/>
        <pt x="228" y="580" on="1"/>
        <pt x="180" y="333" on="1"/>
        <pt x="445" y="333" on="1"/>
        <pt x="438" y="297" on="1"/>
        <pt x="173" y="297" on="1"/>
        <pt x="124" y="40" on="1"/>
      </contour>
    </TTGlyph>
    <TTGlyph name="Ebreve" xMin="71" yMin="0" xMax="587" yMax="867">
      <contour>
        <pt x="561" y="864" on="1"/>
        <pt x="587" y="846" on="1"/>
        <pt x="538" y="780" on="0"/>
        <pt x="439" y="705" on="0"/>
        <pt x="389" y="705" on="1"/>
        <pt x="342" y="705" on="0"/>
        <pt x="269" y="775" on="0"/>
        <pt x="241" y="850" on="1"/>
        <pt x="277" y="867" on="1"/>
        <pt x="304" y="800" on="0"/>
        <pt x="359" y="743" on="0"/>
        <pt x="398" y="743" on="1"/>
        <pt x="441" y="743" on="0"/>
        <pt x="516" y="807" on="0"/>
      </contour>
      <contour>
        <pt x="435" y="40" on="1"/>
        <pt x="425" y="0" on="1"/>
        <pt x="71" y="0" on="1"/>
        <pt x="191" y="620" on="1"/>
        <pt x="547" y="620" on="1"/>
        <pt x="539" y="580" on="1"/>
        <pt x="228" y="580" on="1"/>
        <pt x="180" y="333" on="1"/>
        <pt x="445" y="333" on="1"/>
        <pt x="438" y="297" on="1"/>
        <pt x="173" y="297" on="1"/>
        <pt x="124" y="40" on="1"/>
      </contour>
    </TTGlyph>
    <TTGlyph name="Ecaron" xMin="71" yMin="0" xMax="575" yMax="872">
      <contour>
        <pt x="380" y="695" on="1"/>
        <pt x="379" y="695" on="1"/>
        <pt x="250" y="846" on="1"/>
        <pt x="282" y="872" on="1"/>
        <pt x="387" y="744" on="1"/>
        <pt x="553" y="868" on="1"/>
        <pt x="575" y="842" on="1"/>
      </contour>
      <contour>
        <pt x="435" y="40" on="1"/>
        <pt x="425" y="0" on="1"/>
        <pt x="71" y="0" on="1"/>
        <pt x="191" y="620" on="1"/>
        <pt x="547" y="620" on="1"/>
        <pt x="539" y="580" on="1"/>
        <pt x="228" y="580" on="1"/>
        <pt x="180" y="333" on="1"/>
        <pt x="445" y="333" on="1"/>
        <pt x="438" y="297" on="1"/>
        <pt x="173" y="297" on="1"/>
        <pt x="124" y="40" on="1"/>
      </contour>
    </TTGlyph>
    <TTGlyph name="Ecircumflex" xMin="71" yMin="0" xMax="552" yMax="875">
      <contour>
        <pt x="521" y="698" on="1"/>
        <pt x="415" y="826" on="1"/>
        <pt x="249" y="702" on="1"/>
        <pt x="228" y="728" on="1"/>
        <pt x="423" y="875" on="1"/>
        <pt x="424" y="875" on="1"/>
        <pt x="552" y="724" on="1"/>
      </contour>
      <contour>
        <pt x="435" y="40" on="1"/>
        <pt x="425" y="0" on="1"/>
        <pt x="71" y="0" on="1"/>
        <pt x="191" y="620" on="1"/>
        <pt x="547" y="620" on="1"/>
        <pt x="539" y="580" on="1"/>
        <pt x="228" y="580" on="1"/>
        <pt x="180" y="333" on="1"/>
        <pt x="445" y="333" on="1"/>
        <pt x="438" y="297" on="1"/>
        <pt x="173" y="297" on="1"/>
        <pt x="124" y="40" on="1"/>
      </contour>
    </TTGlyph>
    <TTGlyph name="Edieresis" xMin="71" yMin="0" xMax="547" yMax="838">
      <contour>
        <pt x="505" y="709" on="1"/>
        <pt x="463" y="707" on="1"/>
        <pt x="493" y="837" on="1"/>
        <pt x="543" y="838" on="1"/>
      </contour>
      <contour>
        <pt x="296" y="706" on="1"/>
        <pt x="254" y="705" on="1"/>
        <pt x="285" y="834" on="1"/>
        <pt x="334" y="835" on="1"/>
      </contour>
      <contour>
        <pt x="435" y="40" on="1"/>
        <pt x="425" y="0" on="1"/>
        <pt x="71" y="0" on="1"/>
        <pt x="191" y="620" on="1"/>
        <pt x="547" y="620" on="1"/>
        <pt x="539" y="580" on="1"/>
        <pt x="228" y="580" on="1"/>
        <pt x="180" y="333" on="1"/>
        <pt x="445" y="333" on="1"/>
        <pt x="438" y="297" on="1"/>
        <pt x="173" y="297" on="1"/>
        <pt x="124" y="40" on="1"/>
      </contour>
    </TTGlyph>
    <TTGlyph name="Edotaccent" xMin="71" yMin="0" xMax="547" yMax="836">
      <contour>
        <pt x="400" y="707" on="1"/>
        <pt x="358" y="706" on="1"/>
        <pt x="389" y="835" on="1"/>
        <pt x="439" y="836" on="1"/>
      </contour>
      <contour>
        <pt x="435" y="40" on="1"/>
        <pt x="425" y="0" on="1"/>
        <pt x="71" y="0" on="1"/>
        <pt x="191" y="620" on="1"/>
        <pt x="547" y="620" on="1"/>
        <pt x="539" y="580" on="1"/>
        <pt x="228" y="580" on="1"/>
        <pt x="180" y="333" on="1"/>
        <pt x="445" y="333" on="1"/>
        <pt x="438" y="297" on="1"/>
        <pt x="173" y="297" on="1"/>
        <pt x="124" y="40" on="1"/>
      </contour>
    </TTGlyph>
    <TTGlyph name="Egrave" xMin="71" yMin="0" xMax="547" yMax="894">
      <contour>
        <pt x="477" y="708" on="1"/>
        <pt x="462" y="688" on="1"/>
        <pt x="441" y="703" on="0"/>
        <pt x="392" y="744" on="0"/>
        <pt x="343" y="789" on="0"/>
        <pt x="296" y="837" on="0"/>
        <pt x="278" y="858" on="1"/>
        <pt x="317" y="894" on="1"/>
        <pt x="347" y="850" on="0"/>
        <pt x="439" y="742" on="0"/>
      </contour>
      <contour>
        <pt x="435" y="40" on="1"/>
        <pt x="425" y="0" on="1"/>
        <pt x="71" y="0" on="1"/>
        <pt x="191" y="620" on="1"/>
        <pt x="547" y="620" on="1"/>
        <pt x="539" y="580" on="1"/>
        <pt x="228" y="580" on="1"/>
        <pt x="180" y="333" on="1"/>
        <pt x="445" y="333" on="1"/>
        <pt x="438" y="297" on="1"/>
        <pt x="173" y="297" on="1"/>
        <pt x="124" y="40" on="1"/>
      </contour>
    </TTGlyph>
    <TTGlyph name="Emacron" xMin="71" yMin="0" xMax="559" yMax="793">
      <contour>
        <pt x="559" y="793" on="1"/>
        <pt x="552" y="755" on="1"/>
        <pt x="239" y="755" on="1"/>
        <pt x="247" y="793" on="1"/>
      </contour>
      <contour>
        <pt x="435" y="40" on="1"/>
        <pt x="425" y="0" on="1"/>
        <pt x="71" y="0" on="1"/>
        <pt x="191" y="620" on="1"/>
        <pt x="547" y="620" on="1"/>
        <pt x="539" y="580" on="1"/>
        <pt x="228" y="580" on="1"/>
        <pt x="180" y="333" on="1"/>
        <pt x="445" y="333" on="1"/>
        <pt x="438" y="297" on="1"/>
        <pt x="173" y="297" on="1"/>
        <pt x="124" y="40" on="1"/>
      </contour>
    </TTGlyph>
    <TTGlyph name="Eogonek" xMin="71" yMin="-207" xMax="547" yMax="620">
      <contour>
        <pt x="397" y="-167" on="1"/>
        <pt x="357" y="-188" on="0"/>
        <pt x="293" y="-207" on="0"/>
        <pt x="268" y="-207" on="1"/>
        <pt x="231" y="-207" on="0"/>
        <pt x="192" y="-172" on="0"/>
        <pt x="192" y="-147" on="1"/>
        <pt x="192" y="-114" on="0"/>
        <pt x="272" y="-39" on="0"/>
        <pt x="359" y="0" on="1"/>
        <pt x="71" y="0" on="1"/>
        <pt x="191" y="620" on="1"/>
        <pt x="547" y="620" on="1"/>
        <pt x="539" y="580" on="1"/>
        <pt x="228" y="580" on="1"/>
        <pt x="180" y="333" on="1"/>
        <pt x="445" y="333" on="1"/>
        <pt x="438" y="297" on="1"/>
        <pt x="173" y="297" on="1"/>
        <pt x="124" y="40" on="1"/>
        <pt x="435" y="40" on="1"/>
        <pt x="425" y="0" on="1"/>
        <pt x="325" y="-39" on="0"/>
        <pt x="235" y="-107" on="0"/>
        <pt x="235" y="-135" on="1"/>
        <pt x="235" y="-150" on="0"/>
        <pt x="259" y="-171" on="0"/>
        <pt x="284" y="-171" on="1"/>
        <pt x="303" y="-171" on="0"/>
        <pt x="355" y="-158" on="0"/>
        <pt x="389" y="-144" on="1"/>
      </contour>
    </TTGlyph>
    <TTGlyph name="Eth" xMin="33" yMin="-6" xMax="515" yMax="628">
      <contour>
        <pt x="135" y="-6" on="1"/>
        <pt x="116" y="-6" on="0"/>
        <pt x="76" y="-3" on="0"/>
        <pt x="55" y="0" on="1"/>
        <pt x="113" y="298" on="1"/>
        <pt x="33" y="298" on="1"/>
        <pt x="40" y="333" on="1"/>
        <pt x="120" y="333" on="1"/>
        <pt x="175" y="619" on="1"/>
        <pt x="200" y="623" on="0"/>
        <pt x="248" y="628" on="0"/>
        <pt x="270" y="628" on="1"/>
        <pt x="386" y="628" on="0"/>
        <pt x="515" y="504" on="0"/>
        <pt x="515" y="380" on="1"/>
        <pt x="515" y="302" on="0"/>
        <pt x="467" y="162" on="0"/>
        <pt x="373" y="56" on="0"/>
        <pt x="229" y="-6" on="0"/>
      </contour>
      <contour>
        <pt x="150" y="34" on="1"/>
        <pt x="231" y="34" on="0"/>
        <pt x="352" y="89" on="0"/>
        <pt x="431" y="181" on="0"/>
        <pt x="470" y="306" on="0"/>
        <pt x="470" y="375" on="1"/>
        <pt x="470" y="484" on="0"/>
        <pt x="365" y="589" on="0"/>
        <pt x="268" y="589" on="1"/>
        <pt x="255" y="589" on="0"/>
        <pt x="227" y="587" on="0"/>
        <pt x="213" y="585" on="1"/>
        <pt x="164" y="333" on="1"/>
        <pt x="321" y="333" on="1"/>
        <pt x="312" y="298" on="1"/>
        <pt x="157" y="298" on="1"/>
        <pt x="106" y="36" on="1"/>
        <pt x="117" y="35" on="0"/>
        <pt x="140" y="34" on="0"/>
      </contour>
    </TTGlyph>
    <TTGlyph name="Euro" xMin="28" yMin="-12" xMax="539" yMax="633">
      <contour>
        <pt x="460" y="31" on="1"/>
        <pt x="412" y="9" on="0"/>
        <pt x="327" y="-12" on="0"/>
        <pt x="291" y="-12" on="1"/>
        <pt x="204" y="-12" on="0"/>
        <pt x="108" y="102" on="0"/>
        <pt x="105" y="203" on="1"/>
        <pt x="28" y="203" on="1"/>
        <pt x="36" y="242" on="1"/>
        <pt x="106" y="242" on="1"/>
        <pt x="107" y="273" on="0"/>
        <pt x="118" y="333" on="0"/>
        <pt x="126" y="362" on="1"/>
        <pt x="58" y="362" on="1"/>
        <pt x="66" y="400" on="1"/>
        <pt x="139" y="400" on="1"/>
        <pt x="158" y="449" on="0"/>
        <pt x="214" y="535" on="0"/>
        <pt x="282" y="597" on="0"/>
        <pt x="363" y="633" on="0"/>
        <pt x="406" y="633" on="1"/>
        <pt x="478" y="633" on="0"/>
        <pt x="538" y="542" on="0"/>
        <pt x="539" y="456" on="1"/>
        <pt x="495" y="451" on="1"/>
        <pt x="494" y="517" on="0"/>
        <pt x="456" y="594" on="0"/>
        <pt x="397" y="594" on="1"/>
        <pt x="362" y="594" on="0"/>
        <pt x="297" y="563" on="0"/>
        <pt x="242" y="510" on="0"/>
        <pt x="197" y="439" on="0"/>
        <pt x="181" y="398" on="1"/>
        <pt x="415" y="398" on="1"/>
        <pt x="406" y="362" on="1"/>
        <pt x="169" y="362" on="1"/>
        <pt x="160" y="333" on="0"/>
        <pt x="149" y="273" on="0"/>
        <pt x="148" y="243" on="1"/>
        <pt x="384" y="243" on="1"/>
        <pt x="375" y="206" on="1"/>
        <pt x="148" y="206" on="1"/>
        <pt x="152" y="116" on="0"/>
        <pt x="231" y="28" on="0"/>
        <pt x="303" y="28" on="1"/>
        <pt x="334" y="28" on="0"/>
        <pt x="410" y="45" on="0"/>
        <pt x="453" y="61" on="1"/>
      </contour>
    </TTGlyph>
    <TTGlyph name="F" xMin="72" yMin="0" xMax="560" yMax="620">
      <contour>
        <pt x="446" y="284" on="1"/>
        <pt x="171" y="284" on="1"/>
        <pt x="116" y="0" on="1"/>
        <pt x="72" y="0" on="1"/>
        <pt x="192" y="620" on="1"/>
        <pt x="560" y="620" on="1"/>
        <pt x="553" y="580" on="1"/>
        <pt x="228" y="580" on="1"/>
        <pt x="178" y="320" on="1"/>
        <pt x="453" y="320" on="1"/>
      </contour>
    </TTGlyph>
    <TTGlyph name="G" xMin="73" yMin="-111" xMax="499" yMax="633">
      <contour>
        <pt x="393" y="-110" on="1"/>
        <pt x="352" y="-111" on="1"/>
        <pt x="379" y="9" on="1"/>
        <pt x="347" y="-1" on="0"/>
        <pt x="288" y="-12" on="0"/>
        <pt x="262" y="-12" on="1"/>
        <pt x="173" y="-12" on="0"/>
        <pt x="73" y="107" on="0"/>
        <pt x="73" y="219" on="1"/>
        <pt x="73" y="299" on="0"/>
        <pt x="120" y="449" on="0"/>
        <pt x="200" y="564" on="0"/>
        <pt x="308" y="633" on="0"/>
        <pt x="367" y="633" on="1"/>
        <pt x="438" y="633" on="0"/>
        <pt x="499" y="541" on="0"/>
        <pt x="499" y="445" on="1"/>
        <pt x="499" y="438" on="0"/>
        <pt x="498" y="422" on="0"/>
        <pt x="498" y="414" on="1"/>
        <pt x="456" y="414" on="1"/>
        <pt x="456" y="441" on="1"/>
        <pt x="456" y="513" on="0"/>
        <pt x="419" y="593" on="0"/>
        <pt x="362" y="593" on="1"/>
        <pt x="311" y="593" on="0"/>
        <pt x="221" y="529" on="0"/>
        <pt x="156" y="427" on="0"/>
        <pt x="118" y="296" on="0"/>
        <pt x="118" y="229" on="1"/>
        <pt x="118" y="129" on="0"/>
        <pt x="198" y="27" on="0"/>
        <pt x="272" y="27" on="1"/>
        <pt x="297" y="27" on="0"/>
        <pt x="356" y="39" on="0"/>
        <pt x="388" y="50" on="1"/>
        <pt x="430" y="237" on="1"/>
        <pt x="474" y="239" on="1"/>
      </contour>
    </TTGlyph>
    <TTGlyph name="Gbreve" xMin="73" yMin="-111" xMax="565" yMax="880">
      <contour>
        <pt x="539" y="877" on="1"/>
        <pt x="565" y="859" on="1"/>
        <pt x="516" y="793" on="0"/>
        <pt x="417" y="718" on="0"/>
        <pt x="367" y="718" on="1"/>
        <pt x="320" y="718" on="0"/>
        <pt x="247" y="788" on="0"/>
        <pt x="219" y="863" on="1"/>
        <pt x="255" y="880" on="1"/>
        <pt x="282" y="813" on="0"/>
        <pt x="337" y="756" on="0"/>
        <pt x="376" y="756" on="1"/>
        <pt x="419" y="756" on="0"/>
        <pt x="494" y="820" on="0"/>
      </contour>
      <contour>
        <pt x="393" y="-110" on="1"/>
        <pt x="352" y="-111" on="1"/>
        <pt x="379" y="9" on="1"/>
        <pt x="347" y="-1" on="0"/>
        <pt x="288" y="-12" on="0"/>
        <pt x="262" y="-12" on="1"/>
        <pt x="173" y="-12" on="0"/>
        <pt x="73" y="107" on="0"/>
        <pt x="73" y="219" on="1"/>
        <pt x="73" y="299" on="0"/>
        <pt x="120" y="449" on="0"/>
        <pt x="200" y="564" on="0"/>
        <pt x="308" y="633" on="0"/>
        <pt x="367" y="633" on="1"/>
        <pt x="438" y="633" on="0"/>
        <pt x="499" y="541" on="0"/>
        <pt x="499" y="445" on="1"/>
        <pt x="499" y="438" on="0"/>
        <pt x="498" y="422" on="0"/>
        <pt x="498" y="414" on="1"/>
        <pt x="456" y="414" on="1"/>
        <pt x="456" y="441" on="1"/>
        <pt x="456" y="513" on="0"/>
        <pt x="419" y="593" on="0"/>
        <pt x="362" y="593" on="1"/>
        <pt x="311" y="593" on="0"/>
        <pt x="221" y="529" on="0"/>
        <pt x="156" y="427" on="0"/>
        <pt x="118" y="296" on="0"/>
        <pt x="118" y="229" on="1"/>
        <pt x="118" y="129" on="0"/>
        <pt x="198" y="27" on="0"/>
        <pt x="272" y="27" on="1"/>
        <pt x="297" y="27" on="0"/>
        <pt x="356" y="39" on="0"/>
        <pt x="388" y="50" on="1"/>
        <pt x="430" y="237" on="1"/>
        <pt x="474" y="239" on="1"/>
      </contour>
    </TTGlyph>
    <TTGlyph name="Gcommaaccent" xMin="73" yMin="-379" xMax="499" yMax="633">
      <contour>
        <pt x="393" y="-110" on="1"/>
        <pt x="352" y="-111" on="1"/>
        <pt x="379" y="9" on="1"/>
        <pt x="347" y="-1" on="0"/>
        <pt x="288" y="-12" on="0"/>
        <pt x="262" y="-12" on="1"/>
        <pt x="173" y="-12" on="0"/>
        <pt x="73" y="107" on="0"/>
        <pt x="73" y="219" on="1"/>
        <pt x="73" y="299" on="0"/>
        <pt x="120" y="449" on="0"/>
        <pt x="200" y="564" on="0"/>
        <pt x="308" y="633" on="0"/>
        <pt x="367" y="633" on="1"/>
        <pt x="438" y="633" on="0"/>
        <pt x="499" y="541" on="0"/>
        <pt x="499" y="445" on="1"/>
        <pt x="499" y="438" on="0"/>
        <pt x="498" y="422" on="0"/>
        <pt x="498" y="414" on="1"/>
        <pt x="456" y="414" on="1"/>
        <pt x="456" y="441" on="1"/>
        <pt x="456" y="513" on="0"/>
        <pt x="419" y="593" on="0"/>
        <pt x="362" y="593" on="1"/>
        <pt x="311" y="593" on="0"/>
        <pt x="221" y="529" on="0"/>
        <pt x="156" y="427" on="0"/>
        <pt x="118" y="296" on="0"/>
        <pt x="118" y="229" on="1"/>
        <pt x="118" y="129" on="0"/>
        <pt x="198" y="27" on="0"/>
        <pt x="272" y="27" on="1"/>
        <pt x="297" y="27" on="0"/>
        <pt x="356" y="39" on="0"/>
        <pt x="388" y="50" on="1"/>
        <pt x="430" y="237" on="1"/>
        <pt x="474" y="239" on="1"/>
      </contour>
      <contour>
        <pt x="115" y="-369" on="1"/>
        <pt x="143" y="-332" on="0"/>
        <pt x="165" y="-268" on="0"/>
        <pt x="165" y="-239" on="1"/>
        <pt x="165" y="-225" on="0"/>
        <pt x="161" y="-197" on="0"/>
        <pt x="158" y="-184" on="1"/>
        <pt x="219" y="-181" on="1"/>
        <pt x="219" y="-194" on="1"/>
        <pt x="219" y="-236" on="0"/>
        <pt x="178" y="-330" on="0"/>
        <pt x="132" y="-379" on="1"/>
      </contour>
    </TTGlyph>
    <TTGlyph name="Gdotaccent" xMin="73" yMin="-111" xMax="499" yMax="849">
      <contour>
        <pt x="378" y="720" on="1"/>
        <pt x="336" y="719" on="1"/>
        <pt x="367" y="848" on="1"/>
        <pt x="417" y="849" on="1"/>
      </contour>
      <contour>
        <pt x="393" y="-110" on="1"/>
        <pt x="352" y="-111" on="1"/>
        <pt x="379" y="9" on="1"/>
        <pt x="347" y="-1" on="0"/>
        <pt x="288" y="-12" on="0"/>
        <pt x="262" y="-12" on="1"/>
        <pt x="173" y="-12" on="0"/>
        <pt x="73" y="107" on="0"/>
        <pt x="73" y="219" on="1"/>
        <pt x="73" y="299" on="0"/>
        <pt x="120" y="449" on="0"/>
        <pt x="200" y="564" on="0"/>
        <pt x="308" y="633" on="0"/>
        <pt x="367" y="633" on="1"/>
        <pt x="438" y="633" on="0"/>
        <pt x="499" y="541" on="0"/>
        <pt x="499" y="445" on="1"/>
        <pt x="499" y="438" on="0"/>
        <pt x="498" y="422" on="0"/>
        <pt x="498" y="414" on="1"/>
        <pt x="456" y="414" on="1"/>
        <pt x="456" y="441" on="1"/>
        <pt x="456" y="513" on="0"/>
        <pt x="419" y="593" on="0"/>
        <pt x="362" y="593" on="1"/>
        <pt x="311" y="593" on="0"/>
        <pt x="221" y="529" on="0"/>
        <pt x="156" y="427" on="0"/>
        <pt x="118" y="296" on="0"/>
        <pt x="118" y="229" on="1"/>
        <pt x="118" y="129" on="0"/>
        <pt x="198" y="27" on="0"/>
        <pt x="272" y="27" on="1"/>
        <pt x="297" y="27" on="0"/>
        <pt x="356" y="39" on="0"/>
        <pt x="388" y="50" on="1"/>
        <pt x="430" y="237" on="1"/>
        <pt x="474" y="239" on="1"/>
      </contour>
    </TTGlyph>
    <TTGlyph name="H" xMin="52" yMin="0" xMax="540" yMax="620">
      <contour>
        <pt x="375" y="0" on="1"/>
        <pt x="432" y="297" on="1"/>
        <pt x="154" y="297" on="1"/>
        <pt x="97" y="0" on="1"/>
        <pt x="52" y="0" on="1"/>
        <pt x="172" y="620" on="1"/>
        <pt x="217" y="620" on="1"/>
        <pt x="161" y="333" on="1"/>
        <pt x="439" y="333" on="1"/>
        <pt x="495" y="620" on="1"/>
        <pt x="540" y="620" on="1"/>
        <pt x="420" y="0" on="1"/>
      </contour>
    </TTGlyph>
    <TTGlyph name="Hbar" xMin="52" yMin="0" xMax="592" yMax="620">
      <contour>
        <pt x="438" y="323" on="1"/>
        <pt x="463" y="454" on="1"/>
        <pt x="185" y="454" on="1"/>
        <pt x="160" y="323" on="1"/>
      </contour>
      <contour>
        <pt x="375" y="0" on="1"/>
        <pt x="431" y="287" on="1"/>
        <pt x="153" y="287" on="1"/>
        <pt x="97" y="0" on="1"/>
        <pt x="52" y="0" on="1"/>
        <pt x="140" y="453" on="1"/>
        <pt x="60" y="453" on="1"/>
        <pt x="67" y="488" on="1"/>
        <pt x="146" y="488" on="1"/>
        <pt x="172" y="620" on="1"/>
        <pt x="217" y="620" on="1"/>
        <pt x="191" y="487" on="1"/>
        <pt x="469" y="487" on="1"/>
        <pt x="495" y="620" on="1"/>
        <pt x="540" y="620" on="1"/>
        <pt x="514" y="488" on="1"/>
        <pt x="592" y="488" on="1"/>
        <pt x="586" y="453" on="1"/>
        <pt x="508" y="453" on="1"/>
        <pt x="420" y="0" on="1"/>
      </contour>
    </TTGlyph>
    <TTGlyph name="I" xMin="46" yMin="0" xMax="521" yMax="620">
      <contour>
        <pt x="254" y="37" on="1"/>
        <pt x="412" y="37" on="1"/>
        <pt x="404" y="0" on="1"/>
        <pt x="46" y="0" on="1"/>
        <pt x="54" y="37" on="1"/>
        <pt x="209" y="37" on="1"/>
        <pt x="315" y="583" on="1"/>
        <pt x="156" y="583" on="1"/>
        <pt x="163" y="620" on="1"/>
        <pt x="521" y="620" on="1"/>
        <pt x="514" y="583" on="1"/>
        <pt x="360" y="583" on="1"/>
      </contour>
    </TTGlyph>
    <TTGlyph name="Iacute" xMin="46" yMin="0" xMax="521" yMax="887">
      <contour>
        <pt x="256" y="717" on="1"/>
        <pt x="305" y="749" on="0"/>
        <pt x="420" y="847" on="0"/>
        <pt x="459" y="887" on="1"/>
        <pt x="495" y="849" on="1"/>
        <pt x="473" y="830" on="0"/>
        <pt x="416" y="788" on="0"/>
        <pt x="355" y="748" on="0"/>
        <pt x="294" y="711" on="0"/>
        <pt x="268" y="696" on="1"/>
      </contour>
      <contour>
        <pt x="254" y="37" on="1"/>
        <pt x="412" y="37" on="1"/>
        <pt x="404" y="0" on="1"/>
        <pt x="46" y="0" on="1"/>
        <pt x="54" y="37" on="1"/>
        <pt x="209" y="37" on="1"/>
        <pt x="315" y="583" on="1"/>
        <pt x="156" y="583" on="1"/>
        <pt x="163" y="620" on="1"/>
        <pt x="521" y="620" on="1"/>
        <pt x="514" y="583" on="1"/>
        <pt x="360" y="583" on="1"/>
      </contour>
    </TTGlyph>
    <TTGlyph name="Ibreve" xMin="46" yMin="0" xMax="562" yMax="867">
      <contour>
        <pt x="536" y="864" on="1"/>
        <pt x="562" y="846" on="1"/>
        <pt x="513" y="780" on="0"/>
        <pt x="414" y="705" on="0"/>
        <pt x="364" y="705" on="1"/>
        <pt x="317" y="705" on="0"/>
        <pt x="244" y="775" on="0"/>
        <pt x="216" y="850" on="1"/>
        <pt x="252" y="867" on="1"/>
        <pt x="279" y="800" on="0"/>
        <pt x="334" y="743" on="0"/>
        <pt x="373" y="743" on="1"/>
        <pt x="416" y="743" on="0"/>
        <pt x="491" y="807" on="0"/>
      </contour>
      <contour>
        <pt x="254" y="37" on="1"/>
        <pt x="412" y="37" on="1"/>
        <pt x="404" y="0" on="1"/>
        <pt x="46" y="0" on="1"/>
        <pt x="54" y="37" on="1"/>
        <pt x="209" y="37" on="1"/>
        <pt x="315" y="583" on="1"/>
        <pt x="156" y="583" on="1"/>
        <pt x="163" y="620" on="1"/>
        <pt x="521" y="620" on="1"/>
        <pt x="514" y="583" on="1"/>
        <pt x="360" y="583" on="1"/>
      </contour>
    </TTGlyph>
    <TTGlyph name="Icircumflex" xMin="46" yMin="0" xMax="527" yMax="875">
      <contour>
        <pt x="496" y="698" on="1"/>
        <pt x="390" y="826" on="1"/>
        <pt x="224" y="702" on="1"/>
        <pt x="203" y="728" on="1"/>
        <pt x="398" y="875" on="1"/>
        <pt x="399" y="875" on="1"/>
        <pt x="527" y="724" on="1"/>
      </contour>
      <contour>
        <pt x="254" y="37" on="1"/>
        <pt x="412" y="37" on="1"/>
        <pt x="404" y="0" on="1"/>
        <pt x="46" y="0" on="1"/>
        <pt x="54" y="37" on="1"/>
        <pt x="209" y="37" on="1"/>
        <pt x="315" y="583" on="1"/>
        <pt x="156" y="583" on="1"/>
        <pt x="163" y="620" on="1"/>
        <pt x="521" y="620" on="1"/>
        <pt x="514" y="583" on="1"/>
        <pt x="360" y="583" on="1"/>
      </contour>
    </TTGlyph>
    <TTGlyph name="Idieresis" xMin="46" yMin="0" xMax="521" yMax="838">
      <contour>
        <pt x="480" y="709" on="1"/>
        <pt x="438" y="707" on="1"/>
        <pt x="468" y="837" on="1"/>
        <pt x="518" y="838" on="1"/>
      </contour>
      <contour>
        <pt x="271" y="706" on="1"/>
        <pt x="229" y="705" on="1"/>
        <pt x="260" y="834" on="1"/>
        <pt x="309" y="835" on="1"/>
      </contour>
      <contour>
        <pt x="254" y="37" on="1"/>
        <pt x="412" y="37" on="1"/>
        <pt x="404" y="0" on="1"/>
        <pt x="46" y="0" on="1"/>
        <pt x="54" y="37" on="1"/>
        <pt x="209" y="37" on="1"/>
        <pt x="315" y="583" on="1"/>
        <pt x="156" y="583" on="1"/>
        <pt x="163" y="620" on="1"/>
        <pt x="521" y="620" on="1"/>
        <pt x="514" y="583" on="1"/>
        <pt x="360" y="583" on="1"/>
      </contour>
    </TTGlyph>
    <TTGlyph name="Idotaccent" xMin="46" yMin="0" xMax="521" yMax="836">
      <contour>
        <pt x="375" y="707" on="1"/>
        <pt x="333" y="706" on="1"/>
        <pt x="364" y="835" on="1"/>
        <pt x="414" y="836" on="1"/>
      </contour>
      <contour>
        <pt x="254" y="37" on="1"/>
        <pt x="412" y="37" on="1"/>
        <pt x="404" y="0" on="1"/>
        <pt x="46" y="0" on="1"/>
        <pt x="54" y="37" on="1"/>
        <pt x="209" y="37" on="1"/>
        <pt x="315" y="583" on="1"/>
        <pt x="156" y="583" on="1"/>
        <pt x="163" y="620" on="1"/>
        <pt x="521" y="620" on="1"/>
        <pt x="514" y="583" on="1"/>
        <pt x="360" y="583" on="1"/>
      </contour>
    </TTGlyph>
    <TTGlyph name="Igrave" xMin="46" yMin="0" xMax="521" yMax="894">
      <contour>
        <pt x="452" y="708" on="1"/>
        <pt x="437" y="688" on="1"/>
        <pt x="416" y="703" on="0"/>
        <pt x="367" y="744" on="0"/>
        <pt x="318" y="789" on="0"/>
        <pt x="271" y="837" on="0"/>
        <pt x="253" y="858" on="1"/>
        <pt x="292" y="894" on="1"/>
        <pt x="322" y="850" on="0"/>
        <pt x="414" y="742" on="0"/>
      </contour>
      <contour>
        <pt x="254" y="37" on="1"/>
        <pt x="412" y="37" on="1"/>
        <pt x="404" y="0" on="1"/>
        <pt x="46" y="0" on="1"/>
        <pt x="54" y="37" on="1"/>
        <pt x="209" y="37" on="1"/>
        <pt x="315" y="583" on="1"/>
        <pt x="156" y="583" on="1"/>
        <pt x="163" y="620" on="1"/>
        <pt x="521" y="620" on="1"/>
        <pt x="514" y="583" on="1"/>
        <pt x="360" y="583" on="1"/>
      </contour>
    </TTGlyph>
    <TTGlyph name="Imacron" xMin="46" yMin="0" xMax="534" yMax="793">
      <contour>
        <pt x="534" y="793" on="1"/>
        <pt x="527" y="755" on="1"/>
        <pt x="214" y="755" on="1"/>
        <pt x="222" y="793" on="1"/>
      </contour>
      <contour>
        <pt x="254" y="37" on="1"/>
        <pt x="412" y="37" on="1"/>
        <pt x="404" y="0" on="1"/>
        <pt x="46" y="0" on="1"/>
        <pt x="54" y="37" on="1"/>
        <pt x="209" y="37" on="1"/>
        <pt x="315" y="583" on="1"/>
        <pt x="156" y="583" on="1"/>
        <pt x="163" y="620" on="1"/>
        <pt x="521" y="620" on="1"/>
        <pt x="514" y="583" on="1"/>
        <pt x="360" y="583" on="1"/>
      </contour>
    </TTGlyph>
    <TTGlyph name="Iogonek" xMin="46" yMin="-206" xMax="521" yMax="620">
      <contour>
        <pt x="300" y="-166" on="1"/>
        <pt x="260" y="-187" on="0"/>
        <pt x="196" y="-206" on="0"/>
        <pt x="171" y="-206" on="1"/>
        <pt x="134" y="-206" on="0"/>
        <pt x="95" y="-171" on="0"/>
        <pt x="95" y="-146" on="1"/>
        <pt x="95" y="-113" on="0"/>
        <pt x="144" y="-39" on="0"/>
        <pt x="198" y="0" on="1"/>
        <pt x="46" y="0" on="1"/>
        <pt x="54" y="37" on="1"/>
        <pt x="209" y="37" on="1"/>
        <pt x="315" y="583" on="1"/>
        <pt x="156" y="583" on="1"/>
        <pt x="163" y="620" on="1"/>
        <pt x="521" y="620" on="1"/>
        <pt x="514" y="583" on="1"/>
        <pt x="360" y="583" on="1"/>
        <pt x="254" y="37" on="1"/>
        <pt x="412" y="37" on="1"/>
        <pt x="404" y="0" on="1"/>
        <pt x="249" y="0" on="1"/>
        <pt x="191" y="-38" on="0"/>
        <pt x="138" y="-106" on="0"/>
        <pt x="138" y="-135" on="1"/>
        <pt x="138" y="-150" on="0"/>
        <pt x="162" y="-170" on="0"/>
        <pt x="187" y="-170" on="1"/>
        <pt x="205" y="-170" on="0"/>
        <pt x="258" y="-157" on="0"/>
        <pt x="292" y="-143" on="1"/>
      </contour>
    </TTGlyph>
    <TTGlyph name="J" xMin="52" yMin="-12" xMax="476" yMax="620">
      <contour>
        <pt x="52" y="-12" on="1"/>
        <pt x="60" y="30" on="1"/>
        <pt x="90" y="30" on="1"/>
        <pt x="181" y="30" on="0"/>
        <pt x="280" y="44" on="0"/>
        <pt x="303" y="67" on="1"/>
        <pt x="311" y="75" on="0"/>
        <pt x="324" y="100" on="0"/>
        <pt x="338" y="143" on="0"/>
        <pt x="352" y="211" on="0"/>
        <pt x="362" y="262" on="1"/>
        <pt x="425" y="583" on="1"/>
        <pt x="209" y="583" on="1"/>
        <pt x="217" y="620" on="1"/>
        <pt x="476" y="620" on="1"/>
        <pt x="409" y="269" on="1"/>
        <pt x="398" y="210" on="0"/>
        <pt x="380" y="132" on="0"/>
        <pt x="365" y="84" on="0"/>
        <pt x="349" y="57" on="0"/>
        <pt x="339" y="47" on="1"/>
        <pt x="308" y="16" on="0"/>
        <pt x="176" y="-12" on="0"/>
      </contour>
    </TTGlyph>
    <TTGlyph name="K" xMin="65" yMin="-4" xMax="573" yMax="620">
      <contour>
        <pt x="420" y="-4" on="1"/>
        <pt x="202" y="313" on="1"/>
        <pt x="521" y="620" on="1"/>
        <pt x="573" y="620" on="1"/>
        <pt x="256" y="312" on="1"/>
        <pt x="469" y="3" on="1"/>
      </contour>
      <contour>
        <pt x="186" y="620" on="1"/>
        <pt x="231" y="620" on="1"/>
        <pt x="110" y="0" on="1"/>
        <pt x="65" y="0" on="1"/>
      </contour>
    </TTGlyph>
    <TTGlyph name="Kcommaaccent" xMin="65" yMin="-272" xMax="573" yMax="620">
      <contour>
        <pt x="420" y="-4" on="1"/>
        <pt x="202" y="313" on="1"/>
        <pt x="521" y="620" on="1"/>
        <pt x="573" y="620" on="1"/>
        <pt x="256" y="312" on="1"/>
        <pt x="469" y="3" on="1"/>
      </contour>
      <contour>
        <pt x="186" y="620" on="1"/>
        <pt x="231" y="620" on="1"/>
        <pt x="110" y="0" on="1"/>
        <pt x="65" y="0" on="1"/>
      </contour>
      <contour>
        <pt x="179" y="-262" on="1"/>
        <pt x="207" y="-225" on="0"/>
        <pt x="229" y="-161" on="0"/>
        <pt x="229" y="-132" on="1"/>
        <pt x="229" y="-118" on="0"/>
        <pt x="225" y="-90" on="0"/>
        <pt x="222" y="-77" on="1"/>
        <pt x="283" y="-74" on="1"/>
        <pt x="283" y="-87" on="1"/>
        <pt x="283" y="-129" on="0"/>
        <pt x="242" y="-223" on="0"/>
        <pt x="196" y="-272" on="1"/>
      </contour>
    </TTGlyph>
    <TTGlyph name="L" xMin="72" yMin="0" xMax="452" yMax="620">
      <contour>
        <pt x="442" y="0" on="1"/>
        <pt x="72" y="0" on="1"/>
        <pt x="192" y="620" on="1"/>
        <pt x="237" y="620" on="1"/>
        <pt x="125" y="40" on="1"/>
        <pt x="452" y="40" on="1"/>
      </contour>
    </TTGlyph>
    <TTGlyph name="Lacute" xMin="72" yMin="0" xMax="529" yMax="887">
      <contour>
        <pt x="290" y="717" on="1"/>
        <pt x="339" y="749" on="0"/>
        <pt x="454" y="847" on="0"/>
        <pt x="493" y="887" on="1"/>
        <pt x="529" y="849" on="1"/>
        <pt x="507" y="830" on="0"/>
        <pt x="450" y="788" on="0"/>
        <pt x="389" y="748" on="0"/>
        <pt x="328" y="711" on="0"/>
        <pt x="302" y="696" on="1"/>
      </contour>
      <contour>
        <pt x="442" y="0" on="1"/>
        <pt x="72" y="0" on="1"/>
        <pt x="192" y="620" on="1"/>
        <pt x="237" y="620" on="1"/>
        <pt x="125" y="40" on="1"/>
        <pt x="452" y="40" on="1"/>
      </contour>
    </TTGlyph>
    <TTGlyph name="Lcaron" xMin="72" yMin="0" xMax="545" yMax="699">
      <contour>
        <pt x="487" y="695" on="1"/>
        <pt x="545" y="699" on="1"/>
        <pt x="545" y="689" on="1"/>
        <pt x="545" y="636" on="0"/>
        <pt x="504" y="516" on="0"/>
        <pt x="447" y="450" on="1"/>
        <pt x="427" y="462" on="1"/>
        <pt x="465" y="514" on="0"/>
        <pt x="491" y="599" on="0"/>
        <pt x="491" y="639" on="1"/>
        <pt x="491" y="653" on="0"/>
        <pt x="488" y="681" on="0"/>
      </contour>
      <contour>
        <pt x="442" y="0" on="1"/>
        <pt x="72" y="0" on="1"/>
        <pt x="192" y="620" on="1"/>
        <pt x="237" y="620" on="1"/>
        <pt x="125" y="40" on="1"/>
        <pt x="452" y="40" on="1"/>
      </contour>
    </TTGlyph>
    <TTGlyph name="Lcommaaccent" xMin="72" yMin="-268" xMax="452" yMax="620">
      <contour>
        <pt x="442" y="0" on="1"/>
        <pt x="72" y="0" on="1"/>
        <pt x="192" y="620" on="1"/>
        <pt x="237" y="620" on="1"/>
        <pt x="125" y="40" on="1"/>
        <pt x="452" y="40" on="1"/>
      </contour>
      <contour>
        <pt x="171" y="-258" on="1"/>
        <pt x="199" y="-221" on="0"/>
        <pt x="221" y="-157" on="0"/>
        <pt x="221" y="-128" on="1"/>
        <pt x="221" y="-114" on="0"/>
        <pt x="217" y="-86" on="0"/>
        <pt x="214" y="-73" on="1"/>
        <pt x="275" y="-70" on="1"/>
        <pt x="275" y="-83" on="1"/>
        <pt x="275" y="-125" on="0"/>
        <pt x="234" y="-219" on="0"/>
        <pt x="188" y="-268" on="1"/>
      </contour>
    </TTGlyph>
    <TTGlyph name="Ldot" xMin="72" yMin="0" xMax="475" yMax="620">
      <contour>
        <pt x="442" y="0" on="1"/>
        <pt x="72" y="0" on="1"/>
        <pt x="192" y="620" on="1"/>
        <pt x="237" y="620" on="1"/>
        <pt x="125" y="40" on="1"/>
        <pt x="452" y="40" on="1"/>
      </contour>
      <contour>
        <pt x="455" y="272" on="1"/>
        <pt x="386" y="272" on="1"/>
        <pt x="406" y="357" on="1"/>
        <pt x="475" y="357" on="1"/>
      </contour>
    </TTGlyph>
    <TTGlyph name="Lslash" xMin="54" yMin="0" xMax="462" yMax="620">
      <contour>
        <pt x="452" y="0" on="1"/>
        <pt x="82" y="0" on="1"/>
        <pt x="143" y="314" on="1"/>
        <pt x="56" y="273" on="1"/>
        <pt x="54" y="307" on="1"/>
        <pt x="150" y="353" on="1"/>
        <pt x="202" y="620" on="1"/>
        <pt x="247" y="620" on="1"/>
        <pt x="200" y="377" on="1"/>
        <pt x="382" y="464" on="1"/>
        <pt x="385" y="430" on="1"/>
        <pt x="193" y="338" on="1"/>
        <pt x="135" y="40" on="1"/>
        <pt x="462" y="40" on="1"/>
      </contour>
    </TTGlyph>
    <TTGlyph name="M" xMin="42" yMin="0" xMax="557" yMax="622">
      <contour>
        <pt x="230" y="622" on="1"/>
        <pt x="263" y="152" on="1"/>
        <pt x="265" y="152" on="1"/>
        <pt x="487" y="620" on="1"/>
        <pt x="557" y="620" on="1"/>
        <pt x="437" y="0" on="1"/>
        <pt x="392" y="0" on="1"/>
        <pt x="505" y="563" on="1"/>
        <pt x="501" y="563" on="1"/>
        <pt x="273" y="90" on="1"/>
        <pt x="229" y="90" on="1"/>
        <pt x="195" y="563" on="1"/>
        <pt x="192" y="563" on="1"/>
        <pt x="84" y="0" on="1"/>
        <pt x="42" y="0" on="1"/>
        <pt x="162" y="618" on="1"/>
      </contour>
    </TTGlyph>
    <TTGlyph name="N" xMin="52" yMin="0" xMax="541" yMax="621">
      <contour>
        <pt x="368" y="0" on="1"/>
        <pt x="207" y="565" on="1"/>
        <pt x="202" y="565" on="1"/>
        <pt x="94" y="0" on="1"/>
        <pt x="52" y="0" on="1"/>
        <pt x="171" y="619" on="1"/>
        <pt x="232" y="621" on="1"/>
        <pt x="388" y="70" on="1"/>
        <pt x="393" y="70" on="1"/>
        <pt x="499" y="620" on="1"/>
        <pt x="541" y="620" on="1"/>
        <pt x="421" y="0" on="1"/>
      </contour>
    </TTGlyph>
    <TTGlyph name="Nacute" xMin="52" yMin="0" xMax="541" yMax="888">
      <contour>
        <pt x="268" y="718" on="1"/>
        <pt x="317" y="750" on="0"/>
        <pt x="432" y="848" on="0"/>
        <pt x="471" y="888" on="1"/>
        <pt x="507" y="850" on="1"/>
        <pt x="485" y="831" on="0"/>
        <pt x="428" y="789" on="0"/>
        <pt x="367" y="749" on="0"/>
        <pt x="306" y="712" on="0"/>
        <pt x="280" y="697" on="1"/>
      </contour>
      <contour>
        <pt x="368" y="0" on="1"/>
        <pt x="207" y="565" on="1"/>
        <pt x="202" y="565" on="1"/>
        <pt x="94" y="0" on="1"/>
        <pt x="52" y="0" on="1"/>
        <pt x="171" y="619" on="1"/>
        <pt x="232" y="621" on="1"/>
        <pt x="388" y="70" on="1"/>
        <pt x="393" y="70" on="1"/>
        <pt x="499" y="620" on="1"/>
        <pt x="541" y="620" on="1"/>
        <pt x="421" y="0" on="1"/>
      </contour>
    </TTGlyph>
    <TTGlyph name="Ncaron" xMin="52" yMin="0" xMax="562" yMax="873">
      <contour>
        <pt x="367" y="696" on="1"/>
        <pt x="366" y="696" on="1"/>
        <pt x="237" y="847" on="1"/>
        <pt x="269" y="873" on="1"/>
        <pt x="374" y="745" on="1"/>
        <pt x="540" y="869" on="1"/>
        <pt x="562" y="843" on="1"/>
      </contour>
      <contour>
        <pt x="368" y="0" on="1"/>
        <pt x="207" y="565" on="1"/>
        <pt x="202" y="565" on="1"/>
        <pt x="94" y="0" on="1"/>
        <pt x="52" y="0" on="1"/>
        <pt x="171" y="619" on="1"/>
        <pt x="232" y="621" on="1"/>
        <pt x="388" y="70" on="1"/>
        <pt x="393" y="70" on="1"/>
        <pt x="499" y="620" on="1"/>
        <pt x="541" y="620" on="1"/>
        <pt x="421" y="0" on="1"/>
      </contour>
    </TTGlyph>
    <TTGlyph name="Ncommaaccent" xMin="52" yMin="-268" xMax="541" yMax="621">
      <contour>
        <pt x="368" y="0" on="1"/>
        <pt x="207" y="565" on="1"/>
        <pt x="202" y="565" on="1"/>
        <pt x="94" y="0" on="1"/>
        <pt x="52" y="0" on="1"/>
        <pt x="171" y="619" on="1"/>
        <pt x="232" y="621" on="1"/>
        <pt x="388" y="70" on="1"/>
        <pt x="393" y="70" on="1"/>
        <pt x="499" y="620" on="1"/>
        <pt x="541" y="620" on="1"/>
        <pt x="421" y="0" on="1"/>
      </contour>
      <contour>
        <pt x="149" y="-258" on="1"/>
        <pt x="177" y="-221" on="0"/>
        <pt x="199" y="-157" on="0"/>
        <pt x="199" y="-128" on="1"/>
        <pt x="199" y="-114" on="0"/>
        <pt x="195" y="-86" on="0"/>
        <pt x="192" y="-73" on="1"/>
        <pt x="253" y="-70" on="1"/>
        <pt x="253" y="-83" on="1"/>
        <pt x="253" y="-125" on="0"/>
        <pt x="212" y="-219" on="0"/>
        <pt x="166" y="-268" on="1"/>
      </contour>
    </TTGlyph>
    <TTGlyph name="Ntilde" xMin="52" yMin="0" xMax="589" yMax="859">
      <contour>
        <pt x="458" y="744" on="1"/>
        <pt x="483" y="744" on="0"/>
        <pt x="536" y="811" on="0"/>
        <pt x="564" y="858" on="1"/>
        <pt x="589" y="843" on="1"/>
        <pt x="552" y="778" on="0"/>
        <pt x="484" y="708" on="0"/>
        <pt x="448" y="708" on="1"/>
        <pt x="423" y="708" on="0"/>
        <pt x="390" y="744" on="0"/>
        <pt x="363" y="787" on="0"/>
        <pt x="337" y="823" on="0"/>
        <pt x="318" y="823" on="1"/>
        <pt x="293" y="823" on="0"/>
        <pt x="240" y="762" on="0"/>
        <pt x="212" y="715" on="1"/>
        <pt x="187" y="730" on="1"/>
        <pt x="224" y="795" on="0"/>
        <pt x="293" y="859" on="0"/>
        <pt x="328" y="859" on="1"/>
        <pt x="353" y="859" on="0"/>
        <pt x="386" y="823" on="0"/>
        <pt x="413" y="780" on="0"/>
        <pt x="439" y="744" on="0"/>
      </contour>
      <contour>
        <pt x="368" y="0" on="1"/>
        <pt x="207" y="565" on="1"/>
        <pt x="202" y="565" on="1"/>
        <pt x="94" y="0" on="1"/>
        <pt x="52" y="0" on="1"/>
        <pt x="171" y="619" on="1"/>
        <pt x="232" y="621" on="1"/>
        <pt x="388" y="70" on="1"/>
        <pt x="393" y="70" on="1"/>
        <pt x="499" y="620" on="1"/>
        <pt x="541" y="620" on="1"/>
        <pt x="421" y="0" on="1"/>
      </contour>
    </TTGlyph>
    <TTGlyph name="O" xMin="70" yMin="-12" xMax="522" yMax="632">
      <contour>
        <pt x="355" y="632" on="1"/>
        <pt x="430" y="632" on="0"/>
        <pt x="522" y="514" on="0"/>
        <pt x="522" y="402" on="1"/>
        <pt x="522" y="326" on="0"/>
        <pt x="479" y="177" on="0"/>
        <pt x="404" y="61" on="0"/>
        <pt x="299" y="-12" on="0"/>
        <pt x="237" y="-12" on="1"/>
        <pt x="162" y="-12" on="0"/>
        <pt x="70" y="106" on="0"/>
        <pt x="70" y="218" on="1"/>
        <pt x="70" y="294" on="0"/>
        <pt x="113" y="443" on="0"/>
        <pt x="188" y="559" on="0"/>
        <pt x="293" y="632" on="0"/>
      </contour>
      <contour>
        <pt x="246" y="28" on="1"/>
        <pt x="296" y="28" on="0"/>
        <pt x="381" y="92" on="0"/>
        <pt x="442" y="196" on="0"/>
        <pt x="477" y="329" on="0"/>
        <pt x="477" y="398" on="1"/>
        <pt x="477" y="494" on="0"/>
        <pt x="405" y="592" on="0"/>
        <pt x="346" y="592" on="1"/>
        <pt x="296" y="592" on="0"/>
        <pt x="211" y="528" on="0"/>
        <pt x="150" y="424" on="0"/>
        <pt x="115" y="291" on="0"/>
        <pt x="115" y="222" on="1"/>
        <pt x="115" y="126" on="0"/>
        <pt x="187" y="28" on="0"/>
      </contour>
    </TTGlyph>
    <TTGlyph name="OE" xMin="65" yMin="0" xMax="591" yMax="620">
      <contour>
        <pt x="109" y="204" on="1"/>
        <pt x="109" y="108" on="0"/>
        <pt x="192" y="41" on="0"/>
        <pt x="259" y="40" on="1"/>
        <pt x="364" y="580" on="1"/>
        <pt x="286" y="579" on="0"/>
        <pt x="186" y="489" on="0"/>
        <pt x="130" y="369" on="0"/>
        <pt x="109" y="242" on="0"/>
      </contour>
      <contour>
        <pt x="481" y="40" on="1"/>
        <pt x="469" y="0" on="1"/>
        <pt x="269" y="0" on="1"/>
        <pt x="225" y="0" on="0"/>
        <pt x="150" y="18" on="0"/>
        <pt x="96" y="63" on="0"/>
        <pt x="65" y="141" on="0"/>
        <pt x="65" y="201" on="1"/>
        <pt x="65" y="248" on="0"/>
        <pt x="91" y="391" on="0"/>
        <pt x="164" y="524" on="0"/>
        <pt x="293" y="620" on="0"/>
        <pt x="394" y="620" on="1"/>
        <pt x="591" y="620" on="1"/>
        <pt x="584" y="580" on="1"/>
        <pt x="409" y="580" on="1"/>
        <pt x="361" y="333" on="1"/>
        <pt x="510" y="333" on="1"/>
        <pt x="503" y="297" on="1"/>
        <pt x="354" y="297" on="1"/>
        <pt x="304" y="40" on="1"/>
      </contour>
    </TTGlyph>
    <TTGlyph name="Oacute" xMin="70" yMin="-12" xMax="522" yMax="900">
      <contour>
        <pt x="271" y="730" on="1"/>
        <pt x="320" y="762" on="0"/>
        <pt x="435" y="860" on="0"/>
        <pt x="474" y="900" on="1"/>
        <pt x="510" y="862" on="1"/>
        <pt x="488" y="843" on="0"/>
        <pt x="431" y="801" on="0"/>
        <pt x="370" y="761" on="0"/>
        <pt x="309" y="724" on="0"/>
        <pt x="283" y="709" on="1"/>
      </contour>
      <contour>
        <pt x="355" y="632" on="1"/>
        <pt x="430" y="632" on="0"/>
        <pt x="522" y="514" on="0"/>
        <pt x="522" y="402" on="1"/>
        <pt x="522" y="326" on="0"/>
        <pt x="479" y="177" on="0"/>
        <pt x="404" y="61" on="0"/>
        <pt x="299" y="-12" on="0"/>
        <pt x="237" y="-12" on="1"/>
        <pt x="162" y="-12" on="0"/>
        <pt x="70" y="106" on="0"/>
        <pt x="70" y="218" on="1"/>
        <pt x="70" y="294" on="0"/>
        <pt x="113" y="443" on="0"/>
        <pt x="188" y="559" on="0"/>
        <pt x="293" y="632" on="0"/>
      </contour>
      <contour>
        <pt x="246" y="28" on="1"/>
        <pt x="296" y="28" on="0"/>
        <pt x="381" y="92" on="0"/>
        <pt x="442" y="196" on="0"/>
        <pt x="477" y="329" on="0"/>
        <pt x="477" y="398" on="1"/>
        <pt x="477" y="494" on="0"/>
        <pt x="405" y="592" on="0"/>
        <pt x="346" y="592" on="1"/>
        <pt x="296" y="592" on="0"/>
        <pt x="211" y="528" on="0"/>
        <pt x="150" y="424" on="0"/>
        <pt x="115" y="291" on="0"/>
        <pt x="115" y="222" on="1"/>
        <pt x="115" y="126" on="0"/>
        <pt x="187" y="28" on="0"/>
      </contour>
    </TTGlyph>
    <TTGlyph name="Obreve" xMin="70" yMin="-12" xMax="577" yMax="880">
      <contour>
        <pt x="551" y="877" on="1"/>
        <pt x="577" y="859" on="1"/>
        <pt x="528" y="793" on="0"/>
        <pt x="429" y="718" on="0"/>
        <pt x="379" y="718" on="1"/>
        <pt x="332" y="718" on="0"/>
        <pt x="259" y="788" on="0"/>
        <pt x="231" y="863" on="1"/>
        <pt x="267" y="880" on="1"/>
        <pt x="294" y="813" on="0"/>
        <pt x="349" y="756" on="0"/>
        <pt x="388" y="756" on="1"/>
        <pt x="431" y="756" on="0"/>
        <pt x="506" y="820" on="0"/>
      </contour>
      <contour>
        <pt x="355" y="632" on="1"/>
        <pt x="430" y="632" on="0"/>
        <pt x="522" y="514" on="0"/>
        <pt x="522" y="402" on="1"/>
        <pt x="522" y="326" on="0"/>
        <pt x="479" y="177" on="0"/>
        <pt x="404" y="61" on="0"/>
        <pt x="299" y="-12" on="0"/>
        <pt x="237" y="-12" on="1"/>
        <pt x="162" y="-12" on="0"/>
        <pt x="70" y="106" on="0"/>
        <pt x="70" y="218" on="1"/>
        <pt x="70" y="294" on="0"/>
        <pt x="113" y="443" on="0"/>
        <pt x="188" y="559" on="0"/>
        <pt x="293" y="632" on="0"/>
      </contour>
      <contour>
        <pt x="246" y="28" on="1"/>
        <pt x="296" y="28" on="0"/>
        <pt x="381" y="92" on="0"/>
        <pt x="442" y="196" on="0"/>
        <pt x="477" y="329" on="0"/>
        <pt x="477" y="398" on="1"/>
        <pt x="477" y="494" on="0"/>
        <pt x="405" y="592" on="0"/>
        <pt x="346" y="592" on="1"/>
        <pt x="296" y="592" on="0"/>
        <pt x="211" y="528" on="0"/>
        <pt x="150" y="424" on="0"/>
        <pt x="115" y="291" on="0"/>
        <pt x="115" y="222" on="1"/>
        <pt x="115" y="126" on="0"/>
        <pt x="187" y="28" on="0"/>
      </contour>
    </TTGlyph>
    <TTGlyph name="Ocircumflex" xMin="70" yMin="-12" xMax="542" yMax="888">
      <contour>
        <pt x="511" y="711" on="1"/>
        <pt x="405" y="839" on="1"/>
        <pt x="239" y="715" on="1"/>
        <pt x="218" y="741" on="1"/>
        <pt x="413" y="888" on="1"/>
        <pt x="414" y="888" on="1"/>
        <pt x="542" y="737" on="1"/>
      </contour>
      <contour>
        <pt x="355" y="632" on="1"/>
        <pt x="430" y="632" on="0"/>
        <pt x="522" y="514" on="0"/>
        <pt x="522" y="402" on="1"/>
        <pt x="522" y="326" on="0"/>
        <pt x="479" y="177" on="0"/>
        <pt x="404" y="61" on="0"/>
        <pt x="299" y="-12" on="0"/>
        <pt x="237" y="-12" on="1"/>
        <pt x="162" y="-12" on="0"/>
        <pt x="70" y="106" on="0"/>
        <pt x="70" y="218" on="1"/>
        <pt x="70" y="294" on="0"/>
        <pt x="113" y="443" on="0"/>
        <pt x="188" y="559" on="0"/>
        <pt x="293" y="632" on="0"/>
      </contour>
      <contour>
        <pt x="246" y="28" on="1"/>
        <pt x="296" y="28" on="0"/>
        <pt x="381" y="92" on="0"/>
        <pt x="442" y="196" on="0"/>
        <pt x="477" y="329" on="0"/>
        <pt x="477" y="398" on="1"/>
        <pt x="477" y="494" on="0"/>
        <pt x="405" y="592" on="0"/>
        <pt x="346" y="592" on="1"/>
        <pt x="296" y="592" on="0"/>
        <pt x="211" y="528" on="0"/>
        <pt x="150" y="424" on="0"/>
        <pt x="115" y="291" on="0"/>
        <pt x="115" y="222" on="1"/>
        <pt x="115" y="126" on="0"/>
        <pt x="187" y="28" on="0"/>
      </contour>
    </TTGlyph>
    <TTGlyph name="Odieresis" xMin="70" yMin="-12" xMax="533" yMax="851">
      <contour>
        <pt x="495" y="722" on="1"/>
        <pt x="453" y="720" on="1"/>
        <pt x="483" y="850" on="1"/>
        <pt x="533" y="851" on="1"/>
      </contour>
      <contour>
        <pt x="286" y="719" on="1"/>
        <pt x="244" y="718" on="1"/>
        <pt x="275" y="847" on="1"/>
        <pt x="324" y="848" on="1"/>
      </contour>
      <contour>
        <pt x="355" y="632" on="1"/>
        <pt x="430" y="632" on="0"/>
        <pt x="522" y="514" on="0"/>
        <pt x="522" y="402" on="1"/>
        <pt x="522" y="326" on="0"/>
        <pt x="479" y="177" on="0"/>
        <pt x="404" y="61" on="0"/>
        <pt x="299" y="-12" on="0"/>
        <pt x="237" y="-12" on="1"/>
        <pt x="162" y="-12" on="0"/>
        <pt x="70" y="106" on="0"/>
        <pt x="70" y="218" on="1"/>
        <pt x="70" y="294" on="0"/>
        <pt x="113" y="443" on="0"/>
        <pt x="188" y="559" on="0"/>
        <pt x="293" y="632" on="0"/>
      </contour>
      <contour>
        <pt x="246" y="28" on="1"/>
        <pt x="296" y="28" on="0"/>
        <pt x="381" y="92" on="0"/>
        <pt x="442" y="196" on="0"/>
        <pt x="477" y="329" on="0"/>
        <pt x="477" y="398" on="1"/>
        <pt x="477" y="494" on="0"/>
        <pt x="405" y="592" on="0"/>
        <pt x="346" y="592" on="1"/>
        <pt x="296" y="592" on="0"/>
        <pt x="211" y="528" on="0"/>
        <pt x="150" y="424" on="0"/>
        <pt x="115" y="291" on="0"/>
        <pt x="115" y="222" on="1"/>
        <pt x="115" y="126" on="0"/>
        <pt x="187" y="28" on="0"/>
      </contour>
    </TTGlyph>
    <TTGlyph name="Ograve" xMin="70" yMin="-12" xMax="522" yMax="907">
      <contour>
        <pt x="467" y="721" on="1"/>
        <pt x="452" y="701" on="1"/>
        <pt x="431" y="716" on="0"/>
        <pt x="382" y="757" on="0"/>
        <pt x="333" y="802" on="0"/>
        <pt x="286" y="850" on="0"/>
        <pt x="268" y="871" on="1"/>
        <pt x="307" y="907" on="1"/>
        <pt x="337" y="863" on="0"/>
        <pt x="429" y="755" on="0"/>
      </contour>
      <contour>
        <pt x="355" y="632" on="1"/>
        <pt x="430" y="632" on="0"/>
        <pt x="522" y="514" on="0"/>
        <pt x="522" y="402" on="1"/>
        <pt x="522" y="326" on="0"/>
        <pt x="479" y="177" on="0"/>
        <pt x="404" y="61" on="0"/>
        <pt x="299" y="-12" on="0"/>
        <pt x="237" y="-12" on="1"/>
        <pt x="162" y="-12" on="0"/>
        <pt x="70" y="106" on="0"/>
        <pt x="70" y="218" on="1"/>
        <pt x="70" y="294" on="0"/>
        <pt x="113" y="443" on="0"/>
        <pt x="188" y="559" on="0"/>
        <pt x="293" y="632" on="0"/>
      </contour>
      <contour>
        <pt x="246" y="28" on="1"/>
        <pt x="296" y="28" on="0"/>
        <pt x="381" y="92" on="0"/>
        <pt x="442" y="196" on="0"/>
        <pt x="477" y="329" on="0"/>
        <pt x="477" y="398" on="1"/>
        <pt x="477" y="494" on="0"/>
        <pt x="405" y="592" on="0"/>
        <pt x="346" y="592" on="1"/>
        <pt x="296" y="592" on="0"/>
        <pt x="211" y="528" on="0"/>
        <pt x="150" y="424" on="0"/>
        <pt x="115" y="291" on="0"/>
        <pt x="115" y="222" on="1"/>
        <pt x="115" y="126" on="0"/>
        <pt x="187" y="28" on="0"/>
      </contour>
    </TTGlyph>
    <TTGlyph name="Ohungarumlaut" xMin="70" yMin="-12" xMax="627" yMax="915">
      <contour>
        <pt x="253" y="709" on="1"/>
        <pt x="234" y="725" on="1"/>
        <pt x="271" y="765" on="0"/>
        <pt x="350" y="874" on="0"/>
        <pt x="375" y="915" on="1"/>
        <pt x="422" y="889" on="1"/>
        <pt x="391" y="849" on="0"/>
        <pt x="296" y="748" on="0"/>
      </contour>
      <contour>
        <pt x="459" y="709" on="1"/>
        <pt x="439" y="725" on="1"/>
        <pt x="476" y="765" on="0"/>
        <pt x="554" y="871" on="0"/>
        <pt x="579" y="913" on="1"/>
        <pt x="627" y="889" on="1"/>
        <pt x="597" y="849" on="0"/>
        <pt x="502" y="747" on="0"/>
      </contour>
      <contour>
        <pt x="355" y="632" on="1"/>
        <pt x="430" y="632" on="0"/>
        <pt x="522" y="514" on="0"/>
        <pt x="522" y="402" on="1"/>
        <pt x="522" y="326" on="0"/>
        <pt x="479" y="177" on="0"/>
        <pt x="404" y="61" on="0"/>
        <pt x="299" y="-12" on="0"/>
        <pt x="237" y="-12" on="1"/>
        <pt x="162" y="-12" on="0"/>
        <pt x="70" y="106" on="0"/>
        <pt x="70" y="218" on="1"/>
        <pt x="70" y="294" on="0"/>
        <pt x="113" y="443" on="0"/>
        <pt x="188" y="559" on="0"/>
        <pt x="293" y="632" on="0"/>
      </contour>
      <contour>
        <pt x="246" y="28" on="1"/>
        <pt x="296" y="28" on="0"/>
        <pt x="381" y="92" on="0"/>
        <pt x="442" y="196" on="0"/>
        <pt x="477" y="329" on="0"/>
        <pt x="477" y="398" on="1"/>
        <pt x="477" y="494" on="0"/>
        <pt x="405" y="592" on="0"/>
        <pt x="346" y="592" on="1"/>
        <pt x="296" y="592" on="0"/>
        <pt x="211" y="528" on="0"/>
        <pt x="150" y="424" on="0"/>
        <pt x="115" y="291" on="0"/>
        <pt x="115" y="222" on="1"/>
        <pt x="115" y="126" on="0"/>
        <pt x="187" y="28" on="0"/>
      </contour>
    </TTGlyph>
    <TTGlyph name="Omacron" xMin="70" yMin="-12" xMax="549" yMax="806">
      <contour>
        <pt x="549" y="806" on="1"/>
        <pt x="542" y="768" on="1"/>
        <pt x="229" y="768" on="1"/>
        <pt x="237" y="806" on="1"/>
      </contour>
      <contour>
        <pt x="355" y="632" on="1"/>
        <pt x="430" y="632" on="0"/>
        <pt x="522" y="514" on="0"/>
        <pt x="522" y="402" on="1"/>
        <pt x="522" y="326" on="0"/>
        <pt x="479" y="177" on="0"/>
        <pt x="404" y="61" on="0"/>
        <pt x="299" y="-12" on="0"/>
        <pt x="237" y="-12" on="1"/>
        <pt x="162" y="-12" on="0"/>
        <pt x="70" y="106" on="0"/>
        <pt x="70" y="218" on="1"/>
        <pt x="70" y="294" on="0"/>
        <pt x="113" y="443" on="0"/>
        <pt x="188" y="559" on="0"/>
        <pt x="293" y="632" on="0"/>
      </contour>
      <contour>
        <pt x="246" y="28" on="1"/>
        <pt x="296" y="28" on="0"/>
        <pt x="381" y="92" on="0"/>
        <pt x="442" y="196" on="0"/>
        <pt x="477" y="329" on="0"/>
        <pt x="477" y="398" on="1"/>
        <pt x="477" y="494" on="0"/>
        <pt x="405" y="592" on="0"/>
        <pt x="346" y="592" on="1"/>
        <pt x="296" y="592" on="0"/>
        <pt x="211" y="528" on="0"/>
        <pt x="150" y="424" on="0"/>
        <pt x="115" y="291" on="0"/>
        <pt x="115" y="222" on="1"/>
        <pt x="115" y="126" on="0"/>
        <pt x="187" y="28" on="0"/>
      </contour>
    </TTGlyph>
    <TTGlyph name="Omega" xMin="7" yMin="0" xMax="498" yMax="631">
      <contour>
        <pt x="179" y="4" on="1"/>
        <pt x="177" y="0" on="1"/>
        <pt x="7" y="0" on="1"/>
        <pt x="14" y="37" on="1"/>
        <pt x="137" y="37" on="1"/>
        <pt x="117" y="108" on="0"/>
        <pt x="95" y="237" on="0"/>
        <pt x="95" y="296" on="1"/>
        <pt x="95" y="450" on="0"/>
        <pt x="221" y="631" on="0"/>
        <pt x="328" y="631" on="1"/>
        <pt x="409" y="631" on="0"/>
        <pt x="498" y="529" on="0"/>
        <pt x="498" y="440" on="1"/>
        <pt x="498" y="361" on="0"/>
        <pt x="426" y="153" on="0"/>
        <pt x="351" y="37" on="1"/>
        <pt x="465" y="37" on="1"/>
        <pt x="458" y="0" on="1"/>
        <pt x="290" y="0" on="1"/>
        <pt x="289" y="4" on="1"/>
        <pt x="373" y="135" on="0"/>
        <pt x="455" y="350" on="0"/>
        <pt x="455" y="428" on="1"/>
        <pt x="455" y="506" on="0"/>
        <pt x="385" y="589" on="0"/>
        <pt x="322" y="589" on="1"/>
        <pt x="237" y="589" on="0"/>
        <pt x="137" y="429" on="0"/>
        <pt x="137" y="286" on="1"/>
        <pt x="137" y="226" on="0"/>
        <pt x="159" y="83" on="0"/>
      </contour>
    </TTGlyph>
    <TTGlyph name="Oslash" xMin="31" yMin="-29" xMax="562" yMax="649">
      <contour>
        <pt x="116" y="231" on="1"/>
        <pt x="116" y="199" on="0"/>
        <pt x="124" y="144" on="0"/>
        <pt x="131" y="122" on="1"/>
        <pt x="444" y="536" on="1"/>
        <pt x="427" y="564" on="0"/>
        <pt x="375" y="593" on="0"/>
        <pt x="343" y="593" on="1"/>
        <pt x="294" y="593" on="0"/>
        <pt x="210" y="530" on="0"/>
        <pt x="150" y="428" on="0"/>
        <pt x="116" y="298" on="0"/>
      </contour>
      <contour>
        <pt x="249" y="27" on="1"/>
        <pt x="298" y="27" on="0"/>
        <pt x="382" y="90" on="0"/>
        <pt x="442" y="192" on="0"/>
        <pt x="476" y="323" on="0"/>
        <pt x="476" y="390" on="1"/>
        <pt x="476" y="423" on="0"/>
        <pt x="468" y="478" on="0"/>
        <pt x="461" y="500" on="1"/>
        <pt x="147" y="86" on="1"/>
        <pt x="163" y="57" on="0"/>
        <pt x="215" y="27" on="0"/>
      </contour>
      <contour>
        <pt x="240" y="-13" on="1"/>
        <pt x="202" y="-13" on="0"/>
        <pt x="139" y="17" on="0"/>
        <pt x="117" y="47" on="1"/>
        <pt x="60" y="-29" on="1"/>
        <pt x="31" y="-8" on="1"/>
        <pt x="98" y="80" on="1"/>
        <pt x="85" y="108" on="0"/>
        <pt x="71" y="180" on="0"/>
        <pt x="71" y="224" on="1"/>
        <pt x="71" y="299" on="0"/>
        <pt x="113" y="446" on="0"/>
        <pt x="188" y="561" on="0"/>
        <pt x="291" y="633" on="0"/>
        <pt x="352" y="633" on="1"/>
        <pt x="390" y="633" on="0"/>
        <pt x="452" y="603" on="0"/>
        <pt x="474" y="573" on="1"/>
        <pt x="534" y="649" on="1"/>
        <pt x="562" y="628" on="1"/>
        <pt x="494" y="541" on="1"/>
        <pt x="507" y="513" on="0"/>
        <pt x="521" y="440" on="0"/>
        <pt x="521" y="396" on="1"/>
        <pt x="521" y="322" on="0"/>
        <pt x="479" y="175" on="0"/>
        <pt x="405" y="59" on="0"/>
        <pt x="302" y="-13" on="0"/>
      </contour>
    </TTGlyph>
    <TTGlyph name="Oslashacute" xMin="31" yMin="-29" xMax="562" yMax="900">
      <contour>
        <pt x="271" y="730" on="1"/>
        <pt x="320" y="762" on="0"/>
        <pt x="435" y="860" on="0"/>
        <pt x="474" y="900" on="1"/>
        <pt x="510" y="862" on="1"/>
        <pt x="488" y="843" on="0"/>
        <pt x="431" y="801" on="0"/>
        <pt x="370" y="761" on="0"/>
        <pt x="309" y="724" on="0"/>
        <pt x="283" y="709" on="1"/>
      </contour>
      <contour>
        <pt x="116" y="231" on="1"/>
        <pt x="116" y="199" on="0"/>
        <pt x="124" y="144" on="0"/>
        <pt x="131" y="122" on="1"/>
        <pt x="444" y="536" on="1"/>
        <pt x="427" y="564" on="0"/>
        <pt x="375" y="593" on="0"/>
        <pt x="343" y="593" on="1"/>
        <pt x="294" y="593" on="0"/>
        <pt x="210" y="530" on="0"/>
        <pt x="150" y="428" on="0"/>
        <pt x="116" y="298" on="0"/>
      </contour>
      <contour>
        <pt x="249" y="27" on="1"/>
        <pt x="298" y="27" on="0"/>
        <pt x="382" y="90" on="0"/>
        <pt x="442" y="192" on="0"/>
        <pt x="476" y="323" on="0"/>
        <pt x="476" y="390" on="1"/>
        <pt x="476" y="423" on="0"/>
        <pt x="468" y="478" on="0"/>
        <pt x="461" y="500" on="1"/>
        <pt x="147" y="86" on="1"/>
        <pt x="163" y="57" on="0"/>
        <pt x="215" y="27" on="0"/>
      </contour>
      <contour>
        <pt x="240" y="-13" on="1"/>
        <pt x="202" y="-13" on="0"/>
        <pt x="139" y="17" on="0"/>
        <pt x="117" y="47" on="1"/>
        <pt x="60" y="-29" on="1"/>
        <pt x="31" y="-8" on="1"/>
        <pt x="98" y="80" on="1"/>
        <pt x="85" y="108" on="0"/>
        <pt x="71" y="180" on="0"/>
        <pt x="71" y="224" on="1"/>
        <pt x="71" y="299" on="0"/>
        <pt x="113" y="446" on="0"/>
        <pt x="188" y="561" on="0"/>
        <pt x="291" y="633" on="0"/>
        <pt x="352" y="633" on="1"/>
        <pt x="390" y="633" on="0"/>
        <pt x="452" y="603" on="0"/>
        <pt x="474" y="573" on="1"/>
        <pt x="534" y="649" on="1"/>
        <pt x="562" y="628" on="1"/>
        <pt x="494" y="541" on="1"/>
        <pt x="507" y="513" on="0"/>
        <pt x="521" y="440" on="0"/>
        <pt x="521" y="396" on="1"/>
        <pt x="521" y="322" on="0"/>
        <pt x="479" y="175" on="0"/>
        <pt x="405" y="59" on="0"/>
        <pt x="302" y="-13" on="0"/>
      </contour>
    </TTGlyph>
    <TTGlyph name="Otilde" xMin="70" yMin="-12" xMax="592" yMax="871">
      <contour>
        <pt x="461" y="756" on="1"/>
        <pt x="486" y="756" on="0"/>
        <pt x="539" y="823" on="0"/>
        <pt x="567" y="870" on="1"/>
        <pt x="592" y="855" on="1"/>
        <pt x="555" y="790" on="0"/>
        <pt x="487" y="720" on="0"/>
        <pt x="451" y="720" on="1"/>
        <pt x="426" y="720" on="0"/>
        <pt x="393" y="756" on="0"/>
        <pt x="366" y="799" on="0"/>
        <pt x="340" y="835" on="0"/>
        <pt x="321" y="835" on="1"/>
        <pt x="296" y="835" on="0"/>
        <pt x="243" y="774" on="0"/>
        <pt x="215" y="727" on="1"/>
        <pt x="190" y="742" on="1"/>
        <pt x="227" y="807" on="0"/>
        <pt x="296" y="871" on="0"/>
        <pt x="331" y="871" on="1"/>
        <pt x="356" y="871" on="0"/>
        <pt x="389" y="835" on="0"/>
        <pt x="416" y="792" on="0"/>
        <pt x="442" y="756" on="0"/>
      </contour>
      <contour>
        <pt x="355" y="632" on="1"/>
        <pt x="430" y="632" on="0"/>
        <pt x="522" y="514" on="0"/>
        <pt x="522" y="402" on="1"/>
        <pt x="522" y="326" on="0"/>
        <pt x="479" y="177" on="0"/>
        <pt x="404" y="61" on="0"/>
        <pt x="299" y="-12" on="0"/>
        <pt x="237" y="-12" on="1"/>
        <pt x="162" y="-12" on="0"/>
        <pt x="70" y="106" on="0"/>
        <pt x="70" y="218" on="1"/>
        <pt x="70" y="294" on="0"/>
        <pt x="113" y="443" on="0"/>
        <pt x="188" y="559" on="0"/>
        <pt x="293" y="632" on="0"/>
      </contour>
      <contour>
        <pt x="246" y="28" on="1"/>
        <pt x="296" y="28" on="0"/>
        <pt x="381" y="92" on="0"/>
        <pt x="442" y="196" on="0"/>
        <pt x="477" y="329" on="0"/>
        <pt x="477" y="398" on="1"/>
        <pt x="477" y="494" on="0"/>
        <pt x="405" y="592" on="0"/>
        <pt x="346" y="592" on="1"/>
        <pt x="296" y="592" on="0"/>
        <pt x="211" y="528" on="0"/>
        <pt x="150" y="424" on="0"/>
        <pt x="115" y="291" on="0"/>
        <pt x="115" y="222" on="1"/>
        <pt x="115" y="126" on="0"/>
        <pt x="187" y="28" on="0"/>
      </contour>
    </TTGlyph>
    <TTGlyph name="P" xMin="65" yMin="0" xMax="537" yMax="625">
      <contour>
        <pt x="110" y="0" on="1"/>
        <pt x="65" y="0" on="1"/>
        <pt x="185" y="618" on="1"/>
        <pt x="213" y="622" on="0"/>
        <pt x="265" y="625" on="0"/>
        <pt x="288" y="625" on="1"/>
        <pt x="419" y="625" on="0"/>
        <pt x="537" y="532" on="0"/>
        <pt x="537" y="463" on="1"/>
        <pt x="537" y="360" on="0"/>
        <pt x="334" y="231" on="0"/>
        <pt x="152" y="217" on="1"/>
      </contour>
      <contour>
        <pt x="290" y="585" on="1"/>
        <pt x="274" y="585" on="0"/>
        <pt x="241" y="583" on="0"/>
        <pt x="223" y="581" on="1"/>
        <pt x="161" y="262" on="1"/>
        <pt x="321" y="266" on="0"/>
        <pt x="492" y="370" on="0"/>
        <pt x="492" y="457" on="1"/>
        <pt x="492" y="513" on="0"/>
        <pt x="396" y="585" on="0"/>
      </contour>
    </TTGlyph>
    <TTGlyph name="Q" xMin="83" yMin="-126" xMax="527" yMax="633">
      <contour>
        <pt x="422" y="-126" on="1"/>
        <pt x="153" y="-4" on="1"/>
        <pt x="164" y="27" on="1"/>
        <pt x="232" y="56" on="0"/>
        <pt x="349" y="142" on="0"/>
        <pt x="434" y="245" on="0"/>
        <pt x="482" y="361" on="0"/>
        <pt x="482" y="421" on="1"/>
        <pt x="482" y="501" on="0"/>
        <pt x="407" y="595" on="0"/>
        <pt x="336" y="595" on="1"/>
        <pt x="293" y="595" on="0"/>
        <pt x="217" y="553" on="0"/>
        <pt x="160" y="476" on="0"/>
        <pt x="127" y="367" on="0"/>
        <pt x="127" y="300" on="1"/>
        <pt x="127" y="256" on="0"/>
        <pt x="143" y="158" on="0"/>
        <pt x="159" y="106" on="1"/>
        <pt x="121" y="91" on="1"/>
        <pt x="102" y="145" on="0"/>
        <pt x="83" y="250" on="0"/>
        <pt x="83" y="297" on="1"/>
        <pt x="83" y="372" on="0"/>
        <pt x="124" y="496" on="0"/>
        <pt x="196" y="584" on="0"/>
        <pt x="293" y="633" on="0"/>
        <pt x="348" y="633" on="1"/>
        <pt x="435" y="633" on="0"/>
        <pt x="527" y="517" on="0"/>
        <pt x="527" y="427" on="1"/>
        <pt x="527" y="362" on="0"/>
        <pt x="480" y="240" on="0"/>
        <pt x="397" y="135" on="0"/>
        <pt x="284" y="46" on="0"/>
        <pt x="219" y="14" on="1"/>
        <pt x="443" y="-88" on="1"/>
      </contour>
    </TTGlyph>
    <TTGlyph name="R" xMin="61" yMin="-4" xMax="514" yMax="626">
      <contour>
        <pt x="436" y="-4" on="1"/>
        <pt x="238" y="276" on="1"/>
        <pt x="239" y="279" on="1"/>
        <pt x="358" y="330" on="0"/>
        <pt x="469" y="420" on="0"/>
        <pt x="469" y="480" on="1"/>
        <pt x="469" y="529" on="0"/>
        <pt x="380" y="587" on="0"/>
        <pt x="289" y="587" on="1"/>
        <pt x="273" y="587" on="0"/>
        <pt x="238" y="584" on="0"/>
        <pt x="219" y="583" on="1"/>
        <pt x="106" y="0" on="1"/>
        <pt x="61" y="0" on="1"/>
        <pt x="181" y="619" on="1"/>
        <pt x="210" y="623" on="0"/>
        <pt x="264" y="626" on="0"/>
        <pt x="287" y="626" on="1"/>
        <pt x="406" y="626" on="0"/>
        <pt x="514" y="547" on="0"/>
        <pt x="514" y="488" on="1"/>
        <pt x="514" y="419" on="0"/>
        <pt x="402" y="316" on="0"/>
        <pt x="296" y="269" on="1"/>
        <pt x="485" y="4" on="1"/>
      </contour>
    </TTGlyph>
    <TTGlyph name="R_p" xMin="31" yMin="-176" xMax="551" yMax="622">
      <contour>
        <pt x="216" y="-5" on="1"/>
        <pt x="151" y="277" on="1"/>
        <pt x="151" y="280" on="1"/>
        <pt x="222" y="346" on="0"/>
        <pt x="283" y="447" on="0"/>
        <pt x="283" y="498" on="1"/>
        <pt x="283" y="541" on="0"/>
        <pt x="239" y="585" on="0"/>
        <pt x="196" y="585" on="1"/>
        <pt x="195" y="585" on="0"/>
        <pt x="190" y="585" on="0"/>
        <pt x="189" y="585" on="1"/>
        <pt x="75" y="0" on="1"/>
        <pt x="31" y="0" on="1"/>
        <pt x="151" y="619" on="1"/>
        <pt x="164" y="620" on="0"/>
        <pt x="187" y="622" on="0"/>
        <pt x="197" y="622" on="1"/>
        <pt x="263" y="622" on="0"/>
        <pt x="326" y="560" on="0"/>
        <pt x="326" y="506" on="1"/>
        <pt x="326" y="446" on="0"/>
        <pt x="264" y="344" on="0"/>
        <pt x="195" y="275" on="1"/>
        <pt x="261" y="5" on="1"/>
      </contour>
      <contour>
        <pt x="383" y="34" on="1"/>
        <pt x="406" y="34" on="0"/>
        <pt x="452" y="98" on="0"/>
        <pt x="488" y="196" on="0"/>
        <pt x="510" y="316" on="0"/>
        <pt x="510" y="370" on="1"/>
        <pt x="510" y="408" on="0"/>
        <pt x="493" y="450" on="0"/>
        <pt x="477" y="450" on="1"/>
        <pt x="462" y="450" on="0"/>
        <pt x="426" y="424" on="0"/>
        <pt x="405" y="402" on="1"/>
        <pt x="400" y="373" on="0"/>
        <pt x="385" y="294" on="0"/>
        <pt x="367" y="202" on="0"/>
        <pt x="347" y="98" on="0"/>
        <pt x="337" y="44" on="1"/>
        <pt x="351" y="39" on="0"/>
        <pt x="376" y="34" on="0"/>
      </contour>
      <contour>
        <pt x="295" y="-172" on="1"/>
        <pt x="253" y="-176" on="1"/>
        <pt x="277" y="-54" on="0"/>
        <pt x="313" y="135" on="0"/>
        <pt x="341" y="287" on="0"/>
        <pt x="365" y="416" on="0"/>
        <pt x="375" y="479" on="1"/>
        <pt x="417" y="482" on="1"/>
        <pt x="410" y="437" on="1"/>
        <pt x="432" y="462" on="0"/>
        <pt x="476" y="491" on="0"/>
        <pt x="496" y="491" on="1"/>
        <pt x="520" y="491" on="0"/>
        <pt x="551" y="439" on="0"/>
        <pt x="551" y="379" on="1"/>
        <pt x="551" y="313" on="0"/>
        <pt x="523" y="176" on="0"/>
        <pt x="474" y="66" on="0"/>
        <pt x="406" y="-4" on="0"/>
        <pt x="368" y="-4" on="1"/>
        <pt x="360" y="-4" on="0"/>
        <pt x="340" y="-1" on="0"/>
        <pt x="329" y="3" on="1"/>
        <pt x="320" y="-41" on="0"/>
        <pt x="303" y="-130" on="0"/>
      </contour>
    </TTGlyph>
    <TTGlyph name="Racute" xMin="61" yMin="-4" xMax="514" yMax="893">
      <contour>
        <pt x="255" y="723" on="1"/>
        <pt x="304" y="755" on="0"/>
        <pt x="419" y="853" on="0"/>
        <pt x="458" y="893" on="1"/>
        <pt x="494" y="855" on="1"/>
        <pt x="472" y="836" on="0"/>
        <pt x="415" y="794" on="0"/>
        <pt x="354" y="754" on="0"/>
        <pt x="293" y="717" on="0"/>
        <pt x="267" y="702" on="1"/>
      </contour>
      <contour>
        <pt x="436" y="-4" on="1"/>
        <pt x="238" y="276" on="1"/>
        <pt x="239" y="279" on="1"/>
        <pt x="358" y="330" on="0"/>
        <pt x="469" y="420" on="0"/>
        <pt x="469" y="480" on="1"/>
        <pt x="469" y="529" on="0"/>
        <pt x="380" y="587" on="0"/>
        <pt x="289" y="587" on="1"/>
        <pt x="273" y="587" on="0"/>
        <pt x="238" y="584" on="0"/>
        <pt x="219" y="583" on="1"/>
        <pt x="106" y="0" on="1"/>
        <pt x="61" y="0" on="1"/>
        <pt x="181" y="619" on="1"/>
        <pt x="210" y="623" on="0"/>
        <pt x="264" y="626" on="0"/>
        <pt x="287" y="626" on="1"/>
        <pt x="406" y="626" on="0"/>
        <pt x="514" y="547" on="0"/>
        <pt x="514" y="488" on="1"/>
        <pt x="514" y="419" on="0"/>
        <pt x="402" y="316" on="0"/>
        <pt x="296" y="269" on="1"/>
        <pt x="485" y="4" on="1"/>
      </contour>
    </TTGlyph>
    <TTGlyph name="Rcaron" xMin="61" yMin="-4" xMax="549" yMax="878">
      <contour>
        <pt x="354" y="701" on="1"/>
        <pt x="353" y="701" on="1"/>
        <pt x="224" y="852" on="1"/>
        <pt x="256" y="878" on="1"/>
        <pt x="361" y="750" on="1"/>
        <pt x="527" y="874" on="1"/>
        <pt x="549" y="848" on="1"/>
      </contour>
      <contour>
        <pt x="436" y="-4" on="1"/>
        <pt x="238" y="276" on="1"/>
        <pt x="239" y="279" on="1"/>
        <pt x="358" y="330" on="0"/>
        <pt x="469" y="420" on="0"/>
        <pt x="469" y="480" on="1"/>
        <pt x="469" y="529" on="0"/>
        <pt x="380" y="587" on="0"/>
        <pt x="289" y="587" on="1"/>
        <pt x="273" y="587" on="0"/>
        <pt x="238" y="584" on="0"/>
        <pt x="219" y="583" on="1"/>
        <pt x="106" y="0" on="1"/>
        <pt x="61" y="0" on="1"/>
        <pt x="181" y="619" on="1"/>
        <pt x="210" y="623" on="0"/>
        <pt x="264" y="626" on="0"/>
        <pt x="287" y="626" on="1"/>
        <pt x="406" y="626" on="0"/>
        <pt x="514" y="547" on="0"/>
        <pt x="514" y="488" on="1"/>
        <pt x="514" y="419" on="0"/>
        <pt x="402" y="316" on="0"/>
        <pt x="296" y="269" on="1"/>
        <pt x="485" y="4" on="1"/>
      </contour>
    </TTGlyph>
    <TTGlyph name="Rcommaaccent" xMin="61" yMin="-272" xMax="514" yMax="626">
      <contour>
        <pt x="436" y="-4" on="1"/>
        <pt x="238" y="276" on="1"/>
        <pt x="239" y="279" on="1"/>
        <pt x="358" y="330" on="0"/>
        <pt x="469" y="420" on="0"/>
        <pt x="469" y="480" on="1"/>
        <pt x="469" y="529" on="0"/>
        <pt x="380" y="587" on="0"/>
        <pt x="289" y="587" on="1"/>
        <pt x="273" y="587" on="0"/>
        <pt x="238" y="584" on="0"/>
        <pt x="219" y="583" on="1"/>
        <pt x="106" y="0" on="1"/>
        <pt x="61" y="0" on="1"/>
        <pt x="181" y="619" on="1"/>
        <pt x="210" y="623" on="0"/>
        <pt x="264" y="626" on="0"/>
        <pt x="287" y="626" on="1"/>
        <pt x="406" y="626" on="0"/>
        <pt x="514" y="547" on="0"/>
        <pt x="514" y="488" on="1"/>
        <pt x="514" y="419" on="0"/>
        <pt x="402" y="316" on="0"/>
        <pt x="296" y="269" on="1"/>
        <pt x="485" y="4" on="1"/>
      </contour>
      <contour>
        <pt x="162" y="-262" on="1"/>
        <pt x="190" y="-225" on="0"/>
        <pt x="212" y="-161" on="0"/>
        <pt x="212" y="-132" on="1"/>
        <pt x="212" y="-118" on="0"/>
        <pt x="208" y="-90" on="0"/>
        <pt x="205" y="-77" on="1"/>
        <pt x="266" y="-74" on="1"/>
        <pt x="266" y="-87" on="1"/>
        <pt x="266" y="-129" on="0"/>
        <pt x="225" y="-223" on="0"/>
        <pt x="179" y="-272" on="1"/>
      </contour>
    </TTGlyph>
    <TTGlyph name="S" xMin="30" yMin="-7" xMax="501" yMax="631">
      <contour>
        <pt x="501" y="466" on="1"/>
        <pt x="458" y="458" on="1"/>
        <pt x="449" y="527" on="0"/>
        <pt x="383" y="592" on="0"/>
        <pt x="325" y="592" on="1"/>
        <pt x="263" y="592" on="0"/>
        <pt x="183" y="514" on="0"/>
        <pt x="183" y="463" on="1"/>
        <pt x="183" y="414" on="0"/>
        <pt x="267" y="339" on="0"/>
        <pt x="366" y="268" on="0"/>
        <pt x="450" y="189" on="0"/>
        <pt x="450" y="137" on="1"/>
        <pt x="450" y="109" on="0"/>
        <pt x="424" y="57" on="0"/>
        <pt x="369" y="17" on="0"/>
        <pt x="281" y="-7" on="0"/>
        <pt x="220" y="-7" on="1"/>
        <pt x="180" y="-7" on="0"/>
        <pt x="85" y="4" on="0"/>
        <pt x="30" y="17" on="1"/>
        <pt x="40" y="63" on="1"/>
        <pt x="103" y="47" on="0"/>
        <pt x="205" y="33" on="0"/>
        <pt x="244" y="33" on="1"/>
        <pt x="333" y="33" on="0"/>
        <pt x="406" y="91" on="0"/>
        <pt x="406" y="129" on="1"/>
        <pt x="406" y="173" on="0"/>
        <pt x="322" y="246" on="0"/>
        <pt x="222" y="319" on="0"/>
        <pt x="138" y="402" on="0"/>
        <pt x="138" y="456" on="1"/>
        <pt x="138" y="490" on="0"/>
        <pt x="169" y="553" on="0"/>
        <pt x="222" y="602" on="0"/>
        <pt x="296" y="631" on="0"/>
        <pt x="339" y="631" on="1"/>
        <pt x="411" y="631" on="0"/>
        <pt x="491" y="546" on="0"/>
      </contour>
    </TTGlyph>
    <TTGlyph name="Sacute" xMin="30" yMin="-7" xMax="501" yMax="898">
      <contour>
        <pt x="260" y="728" on="1"/>
        <pt x="309" y="760" on="0"/>
        <pt x="424" y="858" on="0"/>
        <pt x="463" y="898" on="1"/>
        <pt x="499" y="860" on="1"/>
        <pt x="477" y="841" on="0"/>
        <pt x="420" y="799" on="0"/>
        <pt x="359" y="759" on="0"/>
        <pt x="298" y="722" on="0"/>
        <pt x="272" y="707" on="1"/>
      </contour>
      <contour>
        <pt x="501" y="466" on="1"/>
        <pt x="458" y="458" on="1"/>
        <pt x="449" y="527" on="0"/>
        <pt x="383" y="592" on="0"/>
        <pt x="325" y="592" on="1"/>
        <pt x="263" y="592" on="0"/>
        <pt x="183" y="514" on="0"/>
        <pt x="183" y="463" on="1"/>
        <pt x="183" y="414" on="0"/>
        <pt x="267" y="339" on="0"/>
        <pt x="366" y="268" on="0"/>
        <pt x="450" y="189" on="0"/>
        <pt x="450" y="137" on="1"/>
        <pt x="450" y="109" on="0"/>
        <pt x="424" y="57" on="0"/>
        <pt x="369" y="17" on="0"/>
        <pt x="281" y="-7" on="0"/>
        <pt x="220" y="-7" on="1"/>
        <pt x="180" y="-7" on="0"/>
        <pt x="85" y="4" on="0"/>
        <pt x="30" y="17" on="1"/>
        <pt x="40" y="63" on="1"/>
        <pt x="103" y="47" on="0"/>
        <pt x="205" y="33" on="0"/>
        <pt x="244" y="33" on="1"/>
        <pt x="333" y="33" on="0"/>
        <pt x="406" y="91" on="0"/>
        <pt x="406" y="129" on="1"/>
        <pt x="406" y="173" on="0"/>
        <pt x="322" y="246" on="0"/>
        <pt x="222" y="319" on="0"/>
        <pt x="138" y="402" on="0"/>
        <pt x="138" y="456" on="1"/>
        <pt x="138" y="490" on="0"/>
        <pt x="169" y="553" on="0"/>
        <pt x="222" y="602" on="0"/>
        <pt x="296" y="631" on="0"/>
        <pt x="339" y="631" on="1"/>
        <pt x="411" y="631" on="0"/>
        <pt x="491" y="546" on="0"/>
      </contour>
    </TTGlyph>
    <TTGlyph name="Scaron" xMin="30" yMin="-7" xMax="554" yMax="883">
      <contour>
        <pt x="359" y="706" on="1"/>
        <pt x="358" y="706" on="1"/>
        <pt x="229" y="857" on="1"/>
        <pt x="261" y="883" on="1"/>
        <pt x="366" y="755" on="1"/>
        <pt x="532" y="879" on="1"/>
        <pt x="554" y="853" on="1"/>
      </contour>
      <contour>
        <pt x="501" y="466" on="1"/>
        <pt x="458" y="458" on="1"/>
        <pt x="449" y="527" on="0"/>
        <pt x="383" y="592" on="0"/>
        <pt x="325" y="592" on="1"/>
        <pt x="263" y="592" on="0"/>
        <pt x="183" y="514" on="0"/>
        <pt x="183" y="463" on="1"/>
        <pt x="183" y="414" on="0"/>
        <pt x="267" y="339" on="0"/>
        <pt x="366" y="268" on="0"/>
        <pt x="450" y="189" on="0"/>
        <pt x="450" y="137" on="1"/>
        <pt x="450" y="109" on="0"/>
        <pt x="424" y="57" on="0"/>
        <pt x="369" y="17" on="0"/>
        <pt x="281" y="-7" on="0"/>
        <pt x="220" y="-7" on="1"/>
        <pt x="180" y="-7" on="0"/>
        <pt x="85" y="4" on="0"/>
        <pt x="30" y="17" on="1"/>
        <pt x="40" y="63" on="1"/>
        <pt x="103" y="47" on="0"/>
        <pt x="205" y="33" on="0"/>
        <pt x="244" y="33" on="1"/>
        <pt x="333" y="33" on="0"/>
        <pt x="406" y="91" on="0"/>
        <pt x="406" y="129" on="1"/>
        <pt x="406" y="173" on="0"/>
        <pt x="322" y="246" on="0"/>
        <pt x="222" y="319" on="0"/>
        <pt x="138" y="402" on="0"/>
        <pt x="138" y="456" on="1"/>
        <pt x="138" y="490" on="0"/>
        <pt x="169" y="553" on="0"/>
        <pt x="222" y="602" on="0"/>
        <pt x="296" y="631" on="0"/>
        <pt x="339" y="631" on="1"/>
        <pt x="411" y="631" on="0"/>
        <pt x="491" y="546" on="0"/>
      </contour>
    </TTGlyph>
    <TTGlyph name="Scedilla" xMin="30" yMin="-179" xMax="501" yMax="631">
      <contour>
        <pt x="268" y="-179" on="1"/>
        <pt x="269" y="-172" on="0"/>
        <pt x="269" y="-157" on="0"/>
        <pt x="269" y="-150" on="1"/>
        <pt x="269" y="-90" on="0"/>
        <pt x="233" y="-35" on="0"/>
        <pt x="205" y="-35" on="1"/>
        <pt x="176" y="-35" on="0"/>
        <pt x="123" y="-95" on="0"/>
        <pt x="98" y="-149" on="1"/>
        <pt x="72" y="-140" on="1"/>
        <pt x="95" y="-84" on="0"/>
        <pt x="148" y="-17" on="0"/>
        <pt x="177" y="-6" on="1"/>
        <pt x="145" y="-4" on="0"/>
        <pt x="71" y="7" on="0"/>
        <pt x="30" y="17" on="1"/>
        <pt x="40" y="63" on="1"/>
        <pt x="103" y="47" on="0"/>
        <pt x="205" y="33" on="0"/>
        <pt x="244" y="33" on="1"/>
        <pt x="333" y="33" on="0"/>
        <pt x="406" y="91" on="0"/>
        <pt x="406" y="129" on="1"/>
        <pt x="406" y="173" on="0"/>
        <pt x="322" y="246" on="0"/>
        <pt x="222" y="319" on="0"/>
        <pt x="138" y="402" on="0"/>
        <pt x="138" y="456" on="1"/>
        <pt x="138" y="490" on="0"/>
        <pt x="169" y="553" on="0"/>
        <pt x="222" y="602" on="0"/>
        <pt x="296" y="631" on="0"/>
        <pt x="339" y="631" on="1"/>
        <pt x="411" y="631" on="0"/>
        <pt x="491" y="546" on="0"/>
        <pt x="501" y="466" on="1"/>
        <pt x="458" y="458" on="1"/>
        <pt x="449" y="527" on="0"/>
        <pt x="383" y="592" on="0"/>
        <pt x="325" y="592" on="1"/>
        <pt x="263" y="592" on="0"/>
        <pt x="183" y="514" on="0"/>
        <pt x="183" y="463" on="1"/>
        <pt x="183" y="414" on="0"/>
        <pt x="267" y="339" on="0"/>
        <pt x="366" y="268" on="0"/>
        <pt x="450" y="189" on="0"/>
        <pt x="450" y="137" on="1"/>
        <pt x="450" y="84" on="0"/>
        <pt x="354" y="-1" on="0"/>
        <pt x="246" y="-6" on="1"/>
        <pt x="275" y="-19" on="0"/>
        <pt x="311" y="-91" on="0"/>
        <pt x="311" y="-151" on="1"/>
        <pt x="311" y="-158" on="0"/>
        <pt x="311" y="-171" on="0"/>
        <pt x="310" y="-178" on="1"/>
      </contour>
    </TTGlyph>
    <TTGlyph name="Scommaaccent" xMin="30" yMin="-275" xMax="501" yMax="631">
      <contour>
        <pt x="501" y="466" on="1"/>
        <pt x="458" y="458" on="1"/>
        <pt x="449" y="527" on="0"/>
        <pt x="383" y="592" on="0"/>
        <pt x="325" y="592" on="1"/>
        <pt x="263" y="592" on="0"/>
        <pt x="183" y="514" on="0"/>
        <pt x="183" y="463" on="1"/>
        <pt x="183" y="414" on="0"/>
        <pt x="267" y="339" on="0"/>
        <pt x="366" y="268" on="0"/>
        <pt x="450" y="189" on="0"/>
        <pt x="450" y="137" on="1"/>
        <pt x="450" y="109" on="0"/>
        <pt x="424" y="57" on="0"/>
        <pt x="369" y="17" on="0"/>
        <pt x="281" y="-7" on="0"/>
        <pt x="220" y="-7" on="1"/>
        <pt x="180" y="-7" on="0"/>
        <pt x="85" y="4" on="0"/>
        <pt x="30" y="17" on="1"/>
        <pt x="40" y="63" on="1"/>
        <pt x="103" y="47" on="0"/>
        <pt x="205" y="33" on="0"/>
        <pt x="244" y="33" on="1"/>
        <pt x="333" y="33" on="0"/>
        <pt x="406" y="91" on="0"/>
        <pt x="406" y="129" on="1"/>
        <pt x="406" y="173" on="0"/>
        <pt x="322" y="246" on="0"/>
        <pt x="222" y="319" on="0"/>
        <pt x="138" y="402" on="0"/>
        <pt x="138" y="456" on="1"/>
        <pt x="138" y="490" on="0"/>
        <pt x="169" y="553" on="0"/>
        <pt x="222" y="602" on="0"/>
        <pt x="296" y="631" on="0"/>
        <pt x="339" y="631" on="1"/>
        <pt x="411" y="631" on="0"/>
        <pt x="491" y="546" on="0"/>
      </contour>
      <contour>
        <pt x="122" y="-265" on="1"/>
        <pt x="150" y="-228" on="0"/>
        <pt x="172" y="-164" on="0"/>
        <pt x="172" y="-135" on="1"/>
        <pt x="172" y="-121" on="0"/>
        <pt x="168" y="-93" on="0"/>
        <pt x="165" y="-80" on="1"/>
        <pt x="226" y="-77" on="1"/>
        <pt x="226" y="-90" on="1"/>
        <pt x="226" y="-132" on="0"/>
        <pt x="185" y="-226" on="0"/>
        <pt x="139" y="-275" on="1"/>
      </contour>
    </TTGlyph>
    <TTGlyph name="T" xMin="111" yMin="0" xMax="579" yMax="620">
      <contour>
        <pt x="364" y="580" on="1"/>
        <pt x="251" y="0" on="1"/>
        <pt x="206" y="0" on="1"/>
        <pt x="319" y="580" on="1"/>
        <pt x="111" y="580" on="1"/>
        <pt x="118" y="620" on="1"/>
        <pt x="579" y="620" on="1"/>
        <pt x="572" y="580" on="1"/>
      </contour>
    </TTGlyph>
    <TTGlyph name="Tcaron" xMin="111" yMin="0" xMax="579" yMax="872">
      <contour>
        <pt x="359" y="695" on="1"/>
        <pt x="358" y="695" on="1"/>
        <pt x="229" y="846" on="1"/>
        <pt x="261" y="872" on="1"/>
        <pt x="366" y="744" on="1"/>
        <pt x="532" y="868" on="1"/>
        <pt x="554" y="842" on="1"/>
      </contour>
      <contour>
        <pt x="364" y="580" on="1"/>
        <pt x="251" y="0" on="1"/>
        <pt x="206" y="0" on="1"/>
        <pt x="319" y="580" on="1"/>
        <pt x="111" y="580" on="1"/>
        <pt x="118" y="620" on="1"/>
        <pt x="579" y="620" on="1"/>
        <pt x="572" y="580" on="1"/>
      </contour>
    </TTGlyph>
    <TTGlyph name="Tcommaaccent" xMin="111" yMin="-268" xMax="579" yMax="620">
      <contour>
        <pt x="364" y="580" on="1"/>
        <pt x="251" y="0" on="1"/>
        <pt x="206" y="0" on="1"/>
        <pt x="319" y="580" on="1"/>
        <pt x="111" y="580" on="1"/>
        <pt x="118" y="620" on="1"/>
        <pt x="579" y="620" on="1"/>
        <pt x="572" y="580" on="1"/>
      </contour>
      <contour>
        <pt x="141" y="-258" on="1"/>
        <pt x="169" y="-221" on="0"/>
        <pt x="191" y="-157" on="0"/>
        <pt x="191" y="-128" on="1"/>
        <pt x="191" y="-114" on="0"/>
        <pt x="187" y="-86" on="0"/>
        <pt x="184" y="-73" on="1"/>
        <pt x="245" y="-70" on="1"/>
        <pt x="245" y="-83" on="1"/>
        <pt x="245" y="-125" on="0"/>
        <pt x="204" y="-219" on="0"/>
        <pt x="158" y="-268" on="1"/>
      </contour>
    </TTGlyph>
    <TTGlyph name="Thorn" xMin="65" yMin="0" xMax="516" yMax="620">
      <contour>
        <pt x="110" y="0" on="1"/>
        <pt x="65" y="0" on="1"/>
        <pt x="186" y="620" on="1"/>
        <pt x="231" y="620" on="1"/>
        <pt x="210" y="515" on="1"/>
        <pt x="226" y="516" on="0"/>
        <pt x="255" y="517" on="0"/>
        <pt x="268" y="517" on="1"/>
        <pt x="399" y="517" on="0"/>
        <pt x="516" y="424" on="0"/>
        <pt x="516" y="355" on="1"/>
        <pt x="516" y="252" on="0"/>
        <pt x="313" y="123" on="0"/>
        <pt x="131" y="109" on="1"/>
      </contour>
      <contour>
        <pt x="269" y="477" on="1"/>
        <pt x="253" y="477" on="0"/>
        <pt x="220" y="475" on="0"/>
        <pt x="202" y="473" on="1"/>
        <pt x="140" y="154" on="1"/>
        <pt x="300" y="158" on="0"/>
        <pt x="471" y="262" on="0"/>
        <pt x="471" y="349" on="1"/>
        <pt x="471" y="405" on="0"/>
        <pt x="375" y="477" on="0"/>
      </contour>
    </TTGlyph>
    <TTGlyph name="U" xMin="80" yMin="-15" xMax="543" yMax="620">
      <contour>
        <pt x="133" y="210" on="1"/>
        <pt x="130" y="193" on="0"/>
        <pt x="126" y="161" on="0"/>
        <pt x="126" y="148" on="1"/>
        <pt x="126" y="90" on="0"/>
        <pt x="187" y="27" on="0"/>
        <pt x="250" y="27" on="1"/>
        <pt x="316" y="27" on="0"/>
        <pt x="399" y="110" on="0"/>
        <pt x="415" y="195" on="1"/>
        <pt x="498" y="620" on="1"/>
        <pt x="543" y="620" on="1"/>
        <pt x="460" y="195" on="1"/>
        <pt x="441" y="95" on="0"/>
        <pt x="329" y="-15" on="0"/>
        <pt x="245" y="-15" on="1"/>
        <pt x="166" y="-15" on="0"/>
        <pt x="80" y="68" on="0"/>
        <pt x="80" y="143" on="1"/>
        <pt x="80" y="156" on="0"/>
        <pt x="83" y="185" on="0"/>
        <pt x="86" y="201" on="1"/>
        <pt x="168" y="620" on="1"/>
        <pt x="213" y="620" on="1"/>
      </contour>
    </TTGlyph>
    <TTGlyph name="Uacute" xMin="80" yMin="-15" xMax="543" yMax="887">
      <contour>
        <pt x="267" y="717" on="1"/>
        <pt x="316" y="749" on="0"/>
        <pt x="431" y="847" on="0"/>
        <pt x="470" y="887" on="1"/>
        <pt x="506" y="849" on="1"/>
        <pt x="484" y="830" on="0"/>
        <pt x="427" y="788" on="0"/>
        <pt x="366" y="748" on="0"/>
        <pt x="305" y="711" on="0"/>
        <pt x="279" y="696" on="1"/>
      </contour>
      <contour>
        <pt x="133" y="210" on="1"/>
        <pt x="130" y="193" on="0"/>
        <pt x="126" y="161" on="0"/>
        <pt x="126" y="148" on="1"/>
        <pt x="126" y="90" on="0"/>
        <pt x="187" y="27" on="0"/>
        <pt x="250" y="27" on="1"/>
        <pt x="316" y="27" on="0"/>
        <pt x="399" y="110" on="0"/>
        <pt x="415" y="195" on="1"/>
        <pt x="498" y="620" on="1"/>
        <pt x="543" y="620" on="1"/>
        <pt x="460" y="195" on="1"/>
        <pt x="441" y="95" on="0"/>
        <pt x="329" y="-15" on="0"/>
        <pt x="245" y="-15" on="1"/>
        <pt x="166" y="-15" on="0"/>
        <pt x="80" y="68" on="0"/>
        <pt x="80" y="143" on="1"/>
        <pt x="80" y="156" on="0"/>
        <pt x="83" y="185" on="0"/>
        <pt x="86" y="201" on="1"/>
        <pt x="168" y="620" on="1"/>
        <pt x="213" y="620" on="1"/>
      </contour>
    </TTGlyph>
    <TTGlyph name="Ubreve" xMin="80" yMin="-15" xMax="573" yMax="867">
      <contour>
        <pt x="547" y="864" on="1"/>
        <pt x="573" y="846" on="1"/>
        <pt x="524" y="780" on="0"/>
        <pt x="425" y="705" on="0"/>
        <pt x="375" y="705" on="1"/>
        <pt x="328" y="705" on="0"/>
        <pt x="255" y="775" on="0"/>
        <pt x="227" y="850" on="1"/>
        <pt x="263" y="867" on="1"/>
        <pt x="290" y="800" on="0"/>
        <pt x="345" y="743" on="0"/>
        <pt x="384" y="743" on="1"/>
        <pt x="427" y="743" on="0"/>
        <pt x="502" y="807" on="0"/>
      </contour>
      <contour>
        <pt x="133" y="210" on="1"/>
        <pt x="130" y="193" on="0"/>
        <pt x="126" y="161" on="0"/>
        <pt x="126" y="148" on="1"/>
        <pt x="126" y="90" on="0"/>
        <pt x="187" y="27" on="0"/>
        <pt x="250" y="27" on="1"/>
        <pt x="316" y="27" on="0"/>
        <pt x="399" y="110" on="0"/>
        <pt x="415" y="195" on="1"/>
        <pt x="498" y="620" on="1"/>
        <pt x="543" y="620" on="1"/>
        <pt x="460" y="195" on="1"/>
        <pt x="441" y="95" on="0"/>
        <pt x="329" y="-15" on="0"/>
        <pt x="245" y="-15" on="1"/>
        <pt x="166" y="-15" on="0"/>
        <pt x="80" y="68" on="0"/>
        <pt x="80" y="143" on="1"/>
        <pt x="80" y="156" on="0"/>
        <pt x="83" y="185" on="0"/>
        <pt x="86" y="201" on="1"/>
        <pt x="168" y="620" on="1"/>
        <pt x="213" y="620" on="1"/>
      </contour>
    </TTGlyph>
    <TTGlyph name="Ucircumflex" xMin="80" yMin="-15" xMax="543" yMax="875">
      <contour>
        <pt x="507" y="698" on="1"/>
        <pt x="401" y="826" on="1"/>
        <pt x="235" y="702" on="1"/>
        <pt x="214" y="728" on="1"/>
        <pt x="409" y="875" on="1"/>
        <pt x="410" y="875" on="1"/>
        <pt x="538" y="724" on="1"/>
      </contour>
      <contour>
        <pt x="133" y="210" on="1"/>
        <pt x="130" y="193" on="0"/>
        <pt x="126" y="161" on="0"/>
        <pt x="126" y="148" on="1"/>
        <pt x="126" y="90" on="0"/>
        <pt x="187" y="27" on="0"/>
        <pt x="250" y="27" on="1"/>
        <pt x="316" y="27" on="0"/>
        <pt x="399" y="110" on="0"/>
        <pt x="415" y="195" on="1"/>
        <pt x="498" y="620" on="1"/>
        <pt x="543" y="620" on="1"/>
        <pt x="460" y="195" on="1"/>
        <pt x="441" y="95" on="0"/>
        <pt x="329" y="-15" on="0"/>
        <pt x="245" y="-15" on="1"/>
        <pt x="166" y="-15" on="0"/>
        <pt x="80" y="68" on="0"/>
        <pt x="80" y="143" on="1"/>
        <pt x="80" y="156" on="0"/>
        <pt x="83" y="185" on="0"/>
        <pt x="86" y="201" on="1"/>
        <pt x="168" y="620" on="1"/>
        <pt x="213" y="620" on="1"/>
      </contour>
    </TTGlyph>
    <TTGlyph name="Udieresis" xMin="80" yMin="-15" xMax="543" yMax="838">
      <contour>
        <pt x="491" y="709" on="1"/>
        <pt x="449" y="707" on="1"/>
        <pt x="479" y="837" on="1"/>
        <pt x="529" y="838" on="1"/>
      </contour>
      <contour>
        <pt x="282" y="706" on="1"/>
        <pt x="240" y="705" on="1"/>
        <pt x="271" y="834" on="1"/>
        <pt x="320" y="835" on="1"/>
      </contour>
      <contour>
        <pt x="133" y="210" on="1"/>
        <pt x="130" y="193" on="0"/>
        <pt x="126" y="161" on="0"/>
        <pt x="126" y="148" on="1"/>
        <pt x="126" y="90" on="0"/>
        <pt x="187" y="27" on="0"/>
        <pt x="250" y="27" on="1"/>
        <pt x="316" y="27" on="0"/>
        <pt x="399" y="110" on="0"/>
        <pt x="415" y="195" on="1"/>
        <pt x="498" y="620" on="1"/>
        <pt x="543" y="620" on="1"/>
        <pt x="460" y="195" on="1"/>
        <pt x="441" y="95" on="0"/>
        <pt x="329" y="-15" on="0"/>
        <pt x="245" y="-15" on="1"/>
        <pt x="166" y="-15" on="0"/>
        <pt x="80" y="68" on="0"/>
        <pt x="80" y="143" on="1"/>
        <pt x="80" y="156" on="0"/>
        <pt x="83" y="185" on="0"/>
        <pt x="86" y="201" on="1"/>
        <pt x="168" y="620" on="1"/>
        <pt x="213" y="620" on="1"/>
      </contour>
    </TTGlyph>
    <TTGlyph name="Ugrave" xMin="80" yMin="-15" xMax="543" yMax="894">
      <contour>
        <pt x="463" y="708" on="1"/>
        <pt x="448" y="688" on="1"/>
        <pt x="427" y="703" on="0"/>
        <pt x="378" y="744" on="0"/>
        <pt x="329" y="789" on="0"/>
        <pt x="282" y="837" on="0"/>
        <pt x="264" y="858" on="1"/>
        <pt x="303" y="894" on="1"/>
        <pt x="333" y="850" on="0"/>
        <pt x="425" y="742" on="0"/>
      </contour>
      <contour>
        <pt x="133" y="210" on="1"/>
        <pt x="130" y="193" on="0"/>
        <pt x="126" y="161" on="0"/>
        <pt x="126" y="148" on="1"/>
        <pt x="126" y="90" on="0"/>
        <pt x="187" y="27" on="0"/>
        <pt x="250" y="27" on="1"/>
        <pt x="316" y="27" on="0"/>
        <pt x="399" y="110" on="0"/>
        <pt x="415" y="195" on="1"/>
        <pt x="498" y="620" on="1"/>
        <pt x="543" y="620" on="1"/>
        <pt x="460" y="195" on="1"/>
        <pt x="441" y="95" on="0"/>
        <pt x="329" y="-15" on="0"/>
        <pt x="245" y="-15" on="1"/>
        <pt x="166" y="-15" on="0"/>
        <pt x="80" y="68" on="0"/>
        <pt x="80" y="143" on="1"/>
        <pt x="80" y="156" on="0"/>
        <pt x="83" y="185" on="0"/>
        <pt x="86" y="201" on="1"/>
        <pt x="168" y="620" on="1"/>
        <pt x="213" y="620" on="1"/>
      </contour>
    </TTGlyph>
    <TTGlyph name="Uhungarumlaut" xMin="80" yMin="-15" xMax="623" yMax="902">
      <contour>
        <pt x="249" y="696" on="1"/>
        <pt x="230" y="712" on="1"/>
        <pt x="267" y="752" on="0"/>
        <pt x="346" y="861" on="0"/>
        <pt x="371" y="902" on="1"/>
        <pt x="418" y="876" on="1"/>
        <pt x="387" y="836" on="0"/>
        <pt x="292" y="735" on="0"/>
      </contour>
      <contour>
        <pt x="455" y="696" on="1"/>
        <pt x="435" y="712" on="1"/>
        <pt x="472" y="752" on="0"/>
        <pt x="550" y="858" on="0"/>
        <pt x="575" y="900" on="1"/>
        <pt x="623" y="876" on="1"/>
        <pt x="593" y="836" on="0"/>
        <pt x="498" y="734" on="0"/>
      </contour>
      <contour>
        <pt x="133" y="210" on="1"/>
        <pt x="130" y="193" on="0"/>
        <pt x="126" y="161" on="0"/>
        <pt x="126" y="148" on="1"/>
        <pt x="126" y="90" on="0"/>
        <pt x="187" y="27" on="0"/>
        <pt x="250" y="27" on="1"/>
        <pt x="316" y="27" on="0"/>
        <pt x="399" y="110" on="0"/>
        <pt x="415" y="195" on="1"/>
        <pt x="498" y="620" on="1"/>
        <pt x="543" y="620" on="1"/>
        <pt x="460" y="195" on="1"/>
        <pt x="441" y="95" on="0"/>
        <pt x="329" y="-15" on="0"/>
        <pt x="245" y="-15" on="1"/>
        <pt x="166" y="-15" on="0"/>
        <pt x="80" y="68" on="0"/>
        <pt x="80" y="143" on="1"/>
        <pt x="80" y="156" on="0"/>
        <pt x="83" y="185" on="0"/>
        <pt x="86" y="201" on="1"/>
        <pt x="168" y="620" on="1"/>
        <pt x="213" y="620" on="1"/>
      </contour>
    </TTGlyph>
    <TTGlyph name="Umacron" xMin="80" yMin="-15" xMax="545" yMax="793">
      <contour>
        <pt x="545" y="793" on="1"/>
        <pt x="538" y="755" on="1"/>
        <pt x="225" y="755" on="1"/>
        <pt x="233" y="793" on="1"/>
      </contour>
      <contour>
        <pt x="133" y="210" on="1"/>
        <pt x="130" y="193" on="0"/>
        <pt x="126" y="161" on="0"/>
        <pt x="126" y="148" on="1"/>
        <pt x="126" y="90" on="0"/>
        <pt x="187" y="27" on="0"/>
        <pt x="250" y="27" on="1"/>
        <pt x="316" y="27" on="0"/>
        <pt x="399" y="110" on="0"/>
        <pt x="415" y="195" on="1"/>
        <pt x="498" y="620" on="1"/>
        <pt x="543" y="620" on="1"/>
        <pt x="460" y="195" on="1"/>
        <pt x="441" y="95" on="0"/>
        <pt x="329" y="-15" on="0"/>
        <pt x="245" y="-15" on="1"/>
        <pt x="166" y="-15" on="0"/>
        <pt x="80" y="68" on="0"/>
        <pt x="80" y="143" on="1"/>
        <pt x="80" y="156" on="0"/>
        <pt x="83" y="185" on="0"/>
        <pt x="86" y="201" on="1"/>
        <pt x="168" y="620" on="1"/>
        <pt x="213" y="620" on="1"/>
      </contour>
    </TTGlyph>
    <TTGlyph name="Uogonek" xMin="80" yMin="-206" xMax="543" yMax="620">
      <contour>
        <pt x="191" y="-206" on="1"/>
        <pt x="154" y="-206" on="0"/>
        <pt x="115" y="-171" on="0"/>
        <pt x="115" y="-146" on="1"/>
        <pt x="115" y="-116" on="0"/>
        <pt x="175" y="-50" on="0"/>
        <pt x="241" y="-15" on="1"/>
        <pt x="163" y="-14" on="0"/>
        <pt x="80" y="69" on="0"/>
        <pt x="80" y="143" on="1"/>
        <pt x="80" y="156" on="0"/>
        <pt x="83" y="185" on="0"/>
        <pt x="86" y="201" on="1"/>
        <pt x="168" y="620" on="1"/>
        <pt x="213" y="620" on="1"/>
        <pt x="133" y="210" on="1"/>
        <pt x="130" y="193" on="0"/>
        <pt x="126" y="161" on="0"/>
        <pt x="126" y="148" on="1"/>
        <pt x="126" y="90" on="0"/>
        <pt x="187" y="27" on="0"/>
        <pt x="250" y="27" on="1"/>
        <pt x="316" y="27" on="0"/>
        <pt x="399" y="110" on="0"/>
        <pt x="415" y="195" on="1"/>
        <pt x="498" y="620" on="1"/>
        <pt x="543" y="620" on="1"/>
        <pt x="460" y="195" on="1"/>
        <pt x="446" y="121" on="0"/>
        <pt x="376" y="24" on="0"/>
        <pt x="325" y="0" on="1"/>
        <pt x="237" y="-42" on="0"/>
        <pt x="158" y="-107" on="0"/>
        <pt x="158" y="-135" on="1"/>
        <pt x="158" y="-150" on="0"/>
        <pt x="182" y="-170" on="0"/>
        <pt x="207" y="-170" on="1"/>
        <pt x="225" y="-170" on="0"/>
        <pt x="278" y="-157" on="0"/>
        <pt x="312" y="-143" on="1"/>
        <pt x="320" y="-166" on="1"/>
        <pt x="280" y="-187" on="0"/>
        <pt x="216" y="-206" on="0"/>
      </contour>
    </TTGlyph>
    <TTGlyph name="Uring" xMin="80" yMin="-15" xMax="543" yMax="889">
      <contour>
        <pt x="392" y="889" on="1"/>
        <pt x="446" y="889" on="0"/>
        <pt x="516" y="833" on="0"/>
        <pt x="516" y="791" on="1"/>
        <pt x="516" y="745" on="0"/>
        <pt x="439" y="682" on="0"/>
        <pt x="381" y="682" on="1"/>
        <pt x="327" y="682" on="0"/>
        <pt x="257" y="738" on="0"/>
        <pt x="257" y="780" on="1"/>
        <pt x="257" y="826" on="0"/>
        <pt x="334" y="889" on="0"/>
      </contour>
      <contour>
        <pt x="388" y="858" on="1"/>
        <pt x="348" y="858" on="0"/>
        <pt x="293" y="815" on="0"/>
        <pt x="293" y="784" on="1"/>
        <pt x="293" y="754" on="0"/>
        <pt x="345" y="713" on="0"/>
        <pt x="385" y="713" on="1"/>
        <pt x="426" y="713" on="0"/>
        <pt x="481" y="756" on="0"/>
        <pt x="481" y="787" on="1"/>
        <pt x="481" y="816" on="0"/>
        <pt x="428" y="858" on="0"/>
      </contour>
      <contour>
        <pt x="133" y="210" on="1"/>
        <pt x="130" y="193" on="0"/>
        <pt x="126" y="161" on="0"/>
        <pt x="126" y="148" on="1"/>
        <pt x="126" y="90" on="0"/>
        <pt x="187" y="27" on="0"/>
        <pt x="250" y="27" on="1"/>
        <pt x="316" y="27" on="0"/>
        <pt x="399" y="110" on="0"/>
        <pt x="415" y="195" on="1"/>
        <pt x="498" y="620" on="1"/>
        <pt x="543" y="620" on="1"/>
        <pt x="460" y="195" on="1"/>
        <pt x="441" y="95" on="0"/>
        <pt x="329" y="-15" on="0"/>
        <pt x="245" y="-15" on="1"/>
        <pt x="166" y="-15" on="0"/>
        <pt x="80" y="68" on="0"/>
        <pt x="80" y="143" on="1"/>
        <pt x="80" y="156" on="0"/>
        <pt x="83" y="185" on="0"/>
        <pt x="86" y="201" on="1"/>
        <pt x="168" y="620" on="1"/>
        <pt x="213" y="620" on="1"/>
      </contour>
    </TTGlyph>
    <TTGlyph name="V" xMin="121" yMin="0" xMax="581" yMax="622">
      <contour>
        <pt x="261" y="0" on="1"/>
        <pt x="194" y="0" on="1"/>
        <pt x="172" y="154" on="0"/>
        <pt x="135" y="464" on="0"/>
        <pt x="121" y="618" on="1"/>
        <pt x="164" y="622" on="1"/>
        <pt x="177" y="479" on="0"/>
        <pt x="212" y="186" on="0"/>
        <pt x="231" y="41" on="1"/>
        <pt x="238" y="41" on="1"/>
        <pt x="316" y="186" on="0"/>
        <pt x="466" y="476" on="0"/>
        <pt x="536" y="620" on="1"/>
        <pt x="581" y="620" on="1"/>
        <pt x="506" y="466" on="0"/>
        <pt x="344" y="154" on="0"/>
      </contour>
    </TTGlyph>
    <TTGlyph name="W" xMin="81" yMin="0" xMax="567" yMax="620">
      <contour>
        <pt x="339" y="0" on="1"/>
        <pt x="309" y="363" on="1"/>
        <pt x="139" y="0" on="1"/>
        <pt x="81" y="0" on="1"/>
        <pt x="83" y="44" on="0"/>
        <pt x="95" y="174" on="0"/>
        <pt x="112" y="334" on="0"/>
        <pt x="136" y="520" on="0"/>
        <pt x="151" y="620" on="1"/>
        <pt x="195" y="620" on="1"/>
        <pt x="184" y="546" on="0"/>
        <pt x="161" y="377" on="0"/>
        <pt x="141" y="220" on="0"/>
        <pt x="126" y="88" on="0"/>
        <pt x="123" y="52" on="1"/>
        <pt x="127" y="52" on="1"/>
        <pt x="307" y="439" on="1"/>
        <pt x="341" y="439" on="1"/>
        <pt x="372" y="52" on="1"/>
        <pt x="375" y="52" on="1"/>
        <pt x="386" y="88" on="0"/>
        <pt x="423" y="220" on="0"/>
        <pt x="464" y="377" on="0"/>
        <pt x="507" y="546" on="0"/>
        <pt x="524" y="620" on="1"/>
        <pt x="567" y="620" on="1"/>
        <pt x="543" y="520" on="0"/>
        <pt x="494" y="334" on="0"/>
        <pt x="450" y="174" on="0"/>
        <pt x="411" y="44" on="0"/>
        <pt x="396" y="0" on="1"/>
      </contour>
    </TTGlyph>
    <TTGlyph name="Wacute" xMin="81" yMin="0" xMax="567" yMax="887">
      <contour>
        <pt x="270" y="717" on="1"/>
        <pt x="319" y="749" on="0"/>
        <pt x="434" y="847" on="0"/>
        <pt x="473" y="887" on="1"/>
        <pt x="509" y="849" on="1"/>
        <pt x="487" y="830" on="0"/>
        <pt x="430" y="788" on="0"/>
        <pt x="369" y="748" on="0"/>
        <pt x="308" y="711" on="0"/>
        <pt x="282" y="696" on="1"/>
      </contour>
      <contour>
        <pt x="339" y="0" on="1"/>
        <pt x="309" y="363" on="1"/>
        <pt x="139" y="0" on="1"/>
        <pt x="81" y="0" on="1"/>
        <pt x="83" y="44" on="0"/>
        <pt x="95" y="174" on="0"/>
        <pt x="112" y="334" on="0"/>
        <pt x="136" y="520" on="0"/>
        <pt x="151" y="620" on="1"/>
        <pt x="195" y="620" on="1"/>
        <pt x="184" y="546" on="0"/>
        <pt x="161" y="377" on="0"/>
        <pt x="141" y="220" on="0"/>
        <pt x="126" y="88" on="0"/>
        <pt x="123" y="52" on="1"/>
        <pt x="127" y="52" on="1"/>
        <pt x="307" y="439" on="1"/>
        <pt x="341" y="439" on="1"/>
        <pt x="372" y="52" on="1"/>
        <pt x="375" y="52" on="1"/>
        <pt x="386" y="88" on="0"/>
        <pt x="423" y="220" on="0"/>
        <pt x="464" y="377" on="0"/>
        <pt x="507" y="546" on="0"/>
        <pt x="524" y="620" on="1"/>
        <pt x="567" y="620" on="1"/>
        <pt x="543" y="520" on="0"/>
        <pt x="494" y="334" on="0"/>
        <pt x="450" y="174" on="0"/>
        <pt x="411" y="44" on="0"/>
        <pt x="396" y="0" on="1"/>
      </contour>
    </TTGlyph>
    <TTGlyph name="Wcircumflex" xMin="81" yMin="0" xMax="567" yMax="875">
      <contour>
        <pt x="510" y="698" on="1"/>
        <pt x="404" y="826" on="1"/>
        <pt x="238" y="702" on="1"/>
        <pt x="217" y="728" on="1"/>
        <pt x="412" y="875" on="1"/>
        <pt x="413" y="875" on="1"/>
        <pt x="541" y="724" on="1"/>
      </contour>
      <contour>
        <pt x="339" y="0" on="1"/>
        <pt x="309" y="363" on="1"/>
        <pt x="139" y="0" on="1"/>
        <pt x="81" y="0" on="1"/>
        <pt x="83" y="44" on="0"/>
        <pt x="95" y="174" on="0"/>
        <pt x="112" y="334" on="0"/>
        <pt x="136" y="520" on="0"/>
        <pt x="151" y="620" on="1"/>
        <pt x="195" y="620" on="1"/>
        <pt x="184" y="546" on="0"/>
        <pt x="161" y="377" on="0"/>
        <pt x="141" y="220" on="0"/>
        <pt x="126" y="88" on="0"/>
        <pt x="123" y="52" on="1"/>
        <pt x="127" y="52" on="1"/>
        <pt x="307" y="439" on="1"/>
        <pt x="341" y="439" on="1"/>
        <pt x="372" y="52" on="1"/>
        <pt x="375" y="52" on="1"/>
        <pt x="386" y="88" on="0"/>
        <pt x="423" y="220" on="0"/>
        <pt x="464" y="377" on="0"/>
        <pt x="507" y="546" on="0"/>
        <pt x="524" y="620" on="1"/>
        <pt x="567" y="620" on="1"/>
        <pt x="543" y="520" on="0"/>
        <pt x="494" y="334" on="0"/>
        <pt x="450" y="174" on="0"/>
        <pt x="411" y="44" on="0"/>
        <pt x="396" y="0" on="1"/>
      </contour>
    </TTGlyph>
    <TTGlyph name="Wdieresis" xMin="81" yMin="0" xMax="567" yMax="838">
      <contour>
        <pt x="494" y="709" on="1"/>
        <pt x="452" y="707" on="1"/>
        <pt x="482" y="837" on="1"/>
        <pt x="532" y="838" on="1"/>
      </contour>
      <contour>
        <pt x="285" y="706" on="1"/>
        <pt x="243" y="705" on="1"/>
        <pt x="274" y="834" on="1"/>
        <pt x="323" y="835" on="1"/>
      </contour>
      <contour>
        <pt x="339" y="0" on="1"/>
        <pt x="309" y="363" on="1"/>
        <pt x="139" y="0" on="1"/>
        <pt x="81" y="0" on="1"/>
        <pt x="83" y="44" on="0"/>
        <pt x="95" y="174" on="0"/>
        <pt x="112" y="334" on="0"/>
        <pt x="136" y="520" on="0"/>
        <pt x="151" y="620" on="1"/>
        <pt x="195" y="620" on="1"/>
        <pt x="184" y="546" on="0"/>
        <pt x="161" y="377" on="0"/>
        <pt x="141" y="220" on="0"/>
        <pt x="126" y="88" on="0"/>
        <pt x="123" y="52" on="1"/>
        <pt x="127" y="52" on="1"/>
        <pt x="307" y="439" on="1"/>
        <pt x="341" y="439" on="1"/>
        <pt x="372" y="52" on="1"/>
        <pt x="375" y="52" on="1"/>
        <pt x="386" y="88" on="0"/>
        <pt x="423" y="220" on="0"/>
        <pt x="464" y="377" on="0"/>
        <pt x="507" y="546" on="0"/>
        <pt x="524" y="620" on="1"/>
        <pt x="567" y="620" on="1"/>
        <pt x="543" y="520" on="0"/>
        <pt x="494" y="334" on="0"/>
        <pt x="450" y="174" on="0"/>
        <pt x="411" y="44" on="0"/>
        <pt x="396" y="0" on="1"/>
      </contour>
    </TTGlyph>
    <TTGlyph name="Wgrave" xMin="81" yMin="0" xMax="567" yMax="894">
      <contour>
        <pt x="466" y="708" on="1"/>
        <pt x="451" y="688" on="1"/>
        <pt x="430" y="703" on="0"/>
        <pt x="381" y="744" on="0"/>
        <pt x="332" y="789" on="0"/>
        <pt x="285" y="837" on="0"/>
        <pt x="267" y="858" on="1"/>
        <pt x="306" y="894" on="1"/>
        <pt x="336" y="850" on="0"/>
        <pt x="428" y="742" on="0"/>
      </contour>
      <contour>
        <pt x="339" y="0" on="1"/>
        <pt x="309" y="363" on="1"/>
        <pt x="139" y="0" on="1"/>
        <pt x="81" y="0" on="1"/>
        <pt x="83" y="44" on="0"/>
        <pt x="95" y="174" on="0"/>
        <pt x="112" y="334" on="0"/>
        <pt x="136" y="520" on="0"/>
        <pt x="151" y="620" on="1"/>
        <pt x="195" y="620" on="1"/>
        <pt x="184" y="546" on="0"/>
        <pt x="161" y="377" on="0"/>
        <pt x="141" y="220" on="0"/>
        <pt x="126" y="88" on="0"/>
        <pt x="123" y="52" on="1"/>
        <pt x="127" y="52" on="1"/>
        <pt x="307" y="439" on="1"/>
        <pt x="341" y="439" on="1"/>
        <pt x="372" y="52" on="1"/>
        <pt x="375" y="52" on="1"/>
        <pt x="386" y="88" on="0"/>
        <pt x="423" y="220" on="0"/>
        <pt x="464" y="377" on="0"/>
        <pt x="507" y="546" on="0"/>
        <pt x="524" y="620" on="1"/>
        <pt x="567" y="620" on="1"/>
        <pt x="543" y="520" on="0"/>
        <pt x="494" y="334" on="0"/>
        <pt x="450" y="174" on="0"/>
        <pt x="411" y="44" on="0"/>
        <pt x="396" y="0" on="1"/>
      </contour>
    </TTGlyph>
    <TTGlyph name="X" xMin="12" yMin="-3" xMax="576" yMax="623">
      <contour>
        <pt x="410" y="-3" on="1"/>
        <pt x="287" y="279" on="1"/>
        <pt x="62" y="0" on="1"/>
        <pt x="12" y="0" on="1"/>
        <pt x="268" y="312" on="1"/>
        <pt x="132" y="617" on="1"/>
        <pt x="176" y="623" on="1"/>
        <pt x="300" y="342" on="1"/>
        <pt x="525" y="620" on="1"/>
        <pt x="576" y="620" on="1"/>
        <pt x="319" y="308" on="1"/>
        <pt x="455" y="3" on="1"/>
      </contour>
    </TTGlyph>
    <TTGlyph name="Y" xMin="115" yMin="0" xMax="584" yMax="621">
      <contour>
        <pt x="250" y="0" on="1"/>
        <pt x="205" y="0" on="1"/>
        <pt x="246" y="213" on="1"/>
        <pt x="115" y="619" on="1"/>
        <pt x="161" y="621" on="1"/>
        <pt x="278" y="256" on="1"/>
        <pt x="535" y="620" on="1"/>
        <pt x="584" y="620" on="1"/>
        <pt x="290" y="207" on="1"/>
      </contour>
    </TTGlyph>
    <TTGlyph name="Yacute" xMin="115" yMin="0" xMax="584" yMax="888">
      <contour>
        <pt x="261" y="718" on="1"/>
        <pt x="310" y="750" on="0"/>
        <pt x="425" y="848" on="0"/>
        <pt x="464" y="888" on="1"/>
        <pt x="500" y="850" on="1"/>
        <pt x="478" y="831" on="0"/>
        <pt x="421" y="789" on="0"/>
        <pt x="360" y="749" on="0"/>
        <pt x="299" y="712" on="0"/>
        <pt x="273" y="697" on="1"/>
      </contour>
      <contour>
        <pt x="250" y="0" on="1"/>
        <pt x="205" y="0" on="1"/>
        <pt x="246" y="213" on="1"/>
        <pt x="115" y="619" on="1"/>
        <pt x="161" y="621" on="1"/>
        <pt x="278" y="256" on="1"/>
        <pt x="535" y="620" on="1"/>
        <pt x="584" y="620" on="1"/>
        <pt x="290" y="207" on="1"/>
      </contour>
    </TTGlyph>
    <TTGlyph name="Ycircumflex" xMin="115" yMin="0" xMax="584" yMax="876">
      <contour>
        <pt x="501" y="699" on="1"/>
        <pt x="395" y="827" on="1"/>
        <pt x="229" y="703" on="1"/>
        <pt x="208" y="729" on="1"/>
        <pt x="403" y="876" on="1"/>
        <pt x="404" y="876" on="1"/>
        <pt x="532" y="725" on="1"/>
      </contour>
      <contour>
        <pt x="250" y="0" on="1"/>
        <pt x="205" y="0" on="1"/>
        <pt x="246" y="213" on="1"/>
        <pt x="115" y="619" on="1"/>
        <pt x="161" y="621" on="1"/>
        <pt x="278" y="256" on="1"/>
        <pt x="535" y="620" on="1"/>
        <pt x="584" y="620" on="1"/>
        <pt x="290" y="207" on="1"/>
      </contour>
    </TTGlyph>
    <TTGlyph name="Ydieresis" xMin="115" yMin="0" xMax="584" yMax="839">
      <contour>
        <pt x="485" y="710" on="1"/>
        <pt x="443" y="708" on="1"/>
        <pt x="473" y="838" on="1"/>
        <pt x="523" y="839" on="1"/>
      </contour>
      <contour>
        <pt x="276" y="707" on="1"/>
        <pt x="234" y="706" on="1"/>
        <pt x="265" y="835" on="1"/>
        <pt x="314" y="836" on="1"/>
      </contour>
      <contour>
        <pt x="250" y="0" on="1"/>
        <pt x="205" y="0" on="1"/>
        <pt x="246" y="213" on="1"/>
        <pt x="115" y="619" on="1"/>
        <pt x="161" y="621" on="1"/>
        <pt x="278" y="256" on="1"/>
        <pt x="535" y="620" on="1"/>
        <pt x="584" y="620" on="1"/>
        <pt x="290" y="207" on="1"/>
      </contour>
    </TTGlyph>
    <TTGlyph name="Ygrave" xMin="115" yMin="0" xMax="584" yMax="895">
      <contour>
        <pt x="457" y="709" on="1"/>
        <pt x="442" y="689" on="1"/>
        <pt x="421" y="704" on="0"/>
        <pt x="372" y="745" on="0"/>
        <pt x="323" y="790" on="0"/>
        <pt x="276" y="838" on="0"/>
        <pt x="258" y="859" on="1"/>
        <pt x="297" y="895" on="1"/>
        <pt x="327" y="851" on="0"/>
        <pt x="419" y="743" on="0"/>
      </contour>
      <contour>
        <pt x="250" y="0" on="1"/>
        <pt x="205" y="0" on="1"/>
        <pt x="246" y="213" on="1"/>
        <pt x="115" y="619" on="1"/>
        <pt x="161" y="621" on="1"/>
        <pt x="278" y="256" on="1"/>
        <pt x="535" y="620" on="1"/>
        <pt x="584" y="620" on="1"/>
        <pt x="290" y="207" on="1"/>
      </contour>
    </TTGlyph>
    <TTGlyph name="Z" xMin="30" yMin="0" xMax="548" yMax="620">
      <contour>
        <pt x="431" y="0" on="1"/>
        <pt x="30" y="0" on="1"/>
        <pt x="36" y="39" on="1"/>
        <pt x="490" y="581" on="1"/>
        <pt x="150" y="580" on="1"/>
        <pt x="158" y="620" on="1"/>
        <pt x="548" y="620" on="1"/>
        <pt x="541" y="581" on="1"/>
        <pt x="88" y="39" on="1"/>
        <pt x="438" y="40" on="1"/>
      </contour>
    </TTGlyph>
    <TTGlyph name="Zacute" xMin="30" yMin="0" xMax="548" yMax="887">
      <contour>
        <pt x="262" y="717" on="1"/>
        <pt x="311" y="749" on="0"/>
        <pt x="426" y="847" on="0"/>
        <pt x="465" y="887" on="1"/>
        <pt x="501" y="849" on="1"/>
        <pt x="479" y="830" on="0"/>
        <pt x="422" y="788" on="0"/>
        <pt x="361" y="748" on="0"/>
        <pt x="300" y="711" on="0"/>
        <pt x="274" y="696" on="1"/>
      </contour>
      <contour>
        <pt x="431" y="0" on="1"/>
        <pt x="30" y="0" on="1"/>
        <pt x="36" y="39" on="1"/>
        <pt x="490" y="581" on="1"/>
        <pt x="150" y="580" on="1"/>
        <pt x="158" y="620" on="1"/>
        <pt x="548" y="620" on="1"/>
        <pt x="541" y="581" on="1"/>
        <pt x="88" y="39" on="1"/>
        <pt x="438" y="40" on="1"/>
      </contour>
    </TTGlyph>
    <TTGlyph name="Zcaron" xMin="30" yMin="0" xMax="556" yMax="872">
      <contour>
        <pt x="361" y="695" on="1"/>
        <pt x="360" y="695" on="1"/>
        <pt x="231" y="846" on="1"/>
        <pt x="263" y="872" on="1"/>
        <pt x="368" y="744" on="1"/>
        <pt x="534" y="868" on="1"/>
        <pt x="556" y="842" on="1"/>
      </contour>
      <contour>
        <pt x="431" y="0" on="1"/>
        <pt x="30" y="0" on="1"/>
        <pt x="36" y="39" on="1"/>
        <pt x="490" y="581" on="1"/>
        <pt x="150" y="580" on="1"/>
        <pt x="158" y="620" on="1"/>
        <pt x="548" y="620" on="1"/>
        <pt x="541" y="581" on="1"/>
        <pt x="88" y="39" on="1"/>
        <pt x="438" y="40" on="1"/>
      </contour>
    </TTGlyph>
    <TTGlyph name="Zdotaccent" xMin="30" yMin="0" xMax="548" yMax="836">
      <contour>
        <pt x="381" y="707" on="1"/>
        <pt x="339" y="706" on="1"/>
        <pt x="370" y="835" on="1"/>
        <pt x="420" y="836" on="1"/>
      </contour>
      <contour>
        <pt x="431" y="0" on="1"/>
        <pt x="30" y="0" on="1"/>
        <pt x="36" y="39" on="1"/>
        <pt x="490" y="581" on="1"/>
        <pt x="150" y="580" on="1"/>
        <pt x="158" y="620" on="1"/>
        <pt x="548" y="620" on="1"/>
        <pt x="541" y="581" on="1"/>
        <pt x="88" y="39" on="1"/>
        <pt x="438" y="40" on="1"/>
      </contour>
    </TTGlyph>
    <TTGlyph name="a" xMin="61" yMin="-9" xMax="510" yMax="489">
      <contour>
        <pt x="182" y="32" on="1"/>
        <pt x="221" y="32" on="0"/>
        <pt x="327" y="101" on="0"/>
        <pt x="367" y="144" on="1"/>
        <pt x="424" y="436" on="1"/>
        <pt x="395" y="443" on="0"/>
        <pt x="341" y="451" on="0"/>
        <pt x="320" y="451" on="1"/>
        <pt x="275" y="451" on="0"/>
        <pt x="196" y="402" on="0"/>
        <pt x="139" y="320" on="0"/>
        <pt x="105" y="211" on="0"/>
        <pt x="105" y="152" on="1"/>
        <pt x="105" y="90" on="0"/>
        <pt x="149" y="32" on="0"/>
      </contour>
      <contour>
        <pt x="354" y="58" on="1"/>
        <pt x="354" y="67" on="0"/>
        <pt x="357" y="88" on="0"/>
        <pt x="358" y="100" on="1"/>
        <pt x="315" y="56" on="0"/>
        <pt x="209" y="-9" on="0"/>
        <pt x="166" y="-9" on="1"/>
        <pt x="120" y="-9" on="0"/>
        <pt x="61" y="67" on="0"/>
        <pt x="61" y="143" on="1"/>
        <pt x="61" y="211" on="0"/>
        <pt x="105" y="337" on="0"/>
        <pt x="181" y="432" on="0"/>
        <pt x="285" y="489" on="0"/>
        <pt x="345" y="489" on="1"/>
        <pt x="373" y="489" on="0"/>
        <pt x="437" y="480" on="0"/>
        <pt x="474" y="470" on="1"/>
        <pt x="404" y="119" on="1"/>
        <pt x="401" y="103" on="0"/>
        <pt x="397" y="76" on="0"/>
        <pt x="397" y="66" on="1"/>
        <pt x="397" y="50" on="0"/>
        <pt x="410" y="32" on="0"/>
        <pt x="425" y="32" on="1"/>
        <pt x="437" y="32" on="0"/>
        <pt x="475" y="44" on="0"/>
        <pt x="503" y="56" on="1"/>
        <pt x="510" y="32" on="1"/>
        <pt x="475" y="11" on="0"/>
        <pt x="422" y="-8" on="0"/>
        <pt x="403" y="-8" on="1"/>
        <pt x="378" y="-8" on="0"/>
        <pt x="354" y="27" on="0"/>
      </contour>
    </TTGlyph>
    <TTGlyph name="aacute" xMin="61" yMin="-9" xMax="510" yMax="756">
      <contour>
        <pt x="253" y="586" on="1"/>
        <pt x="302" y="618" on="0"/>
        <pt x="417" y="716" on="0"/>
        <pt x="456" y="756" on="1"/>
        <pt x="492" y="718" on="1"/>
        <pt x="470" y="699" on="0"/>
        <pt x="413" y="657" on="0"/>
        <pt x="352" y="617" on="0"/>
        <pt x="291" y="580" on="0"/>
        <pt x="265" y="565" on="1"/>
      </contour>
      <contour>
        <pt x="182" y="32" on="1"/>
        <pt x="221" y="32" on="0"/>
        <pt x="327" y="101" on="0"/>
        <pt x="367" y="144" on="1"/>
        <pt x="424" y="436" on="1"/>
        <pt x="395" y="443" on="0"/>
        <pt x="341" y="451" on="0"/>
        <pt x="320" y="451" on="1"/>
        <pt x="275" y="451" on="0"/>
        <pt x="196" y="402" on="0"/>
        <pt x="139" y="320" on="0"/>
        <pt x="105" y="211" on="0"/>
        <pt x="105" y="152" on="1"/>
        <pt x="105" y="90" on="0"/>
        <pt x="149" y="32" on="0"/>
      </contour>
      <contour>
        <pt x="354" y="58" on="1"/>
        <pt x="354" y="67" on="0"/>
        <pt x="357" y="88" on="0"/>
        <pt x="358" y="100" on="1"/>
        <pt x="315" y="56" on="0"/>
        <pt x="209" y="-9" on="0"/>
        <pt x="166" y="-9" on="1"/>
        <pt x="120" y="-9" on="0"/>
        <pt x="61" y="67" on="0"/>
        <pt x="61" y="143" on="1"/>
        <pt x="61" y="211" on="0"/>
        <pt x="105" y="337" on="0"/>
        <pt x="181" y="432" on="0"/>
        <pt x="285" y="489" on="0"/>
        <pt x="345" y="489" on="1"/>
        <pt x="373" y="489" on="0"/>
        <pt x="437" y="480" on="0"/>
        <pt x="474" y="470" on="1"/>
        <pt x="404" y="119" on="1"/>
        <pt x="401" y="103" on="0"/>
        <pt x="397" y="76" on="0"/>
        <pt x="397" y="66" on="1"/>
        <pt x="397" y="50" on="0"/>
        <pt x="410" y="32" on="0"/>
        <pt x="425" y="32" on="1"/>
        <pt x="437" y="32" on="0"/>
        <pt x="475" y="44" on="0"/>
        <pt x="503" y="56" on="1"/>
        <pt x="510" y="32" on="1"/>
        <pt x="475" y="11" on="0"/>
        <pt x="422" y="-8" on="0"/>
        <pt x="403" y="-8" on="1"/>
        <pt x="378" y="-8" on="0"/>
        <pt x="354" y="27" on="0"/>
      </contour>
    </TTGlyph>
    <TTGlyph name="abreve" xMin="61" yMin="-9" xMax="559" yMax="736">
      <contour>
        <pt x="533" y="733" on="1"/>
        <pt x="559" y="715" on="1"/>
        <pt x="510" y="649" on="0"/>
        <pt x="411" y="574" on="0"/>
        <pt x="361" y="574" on="1"/>
        <pt x="314" y="574" on="0"/>
        <pt x="241" y="644" on="0"/>
        <pt x="213" y="719" on="1"/>
        <pt x="249" y="736" on="1"/>
        <pt x="276" y="669" on="0"/>
        <pt x="331" y="612" on="0"/>
        <pt x="370" y="612" on="1"/>
        <pt x="413" y="612" on="0"/>
        <pt x="488" y="676" on="0"/>
      </contour>
      <contour>
        <pt x="182" y="32" on="1"/>
        <pt x="221" y="32" on="0"/>
        <pt x="327" y="101" on="0"/>
        <pt x="367" y="144" on="1"/>
        <pt x="424" y="436" on="1"/>
        <pt x="395" y="443" on="0"/>
        <pt x="341" y="451" on="0"/>
        <pt x="320" y="451" on="1"/>
        <pt x="275" y="451" on="0"/>
        <pt x="196" y="402" on="0"/>
        <pt x="139" y="320" on="0"/>
        <pt x="105" y="211" on="0"/>
        <pt x="105" y="152" on="1"/>
        <pt x="105" y="90" on="0"/>
        <pt x="149" y="32" on="0"/>
      </contour>
      <contour>
        <pt x="354" y="58" on="1"/>
        <pt x="354" y="67" on="0"/>
        <pt x="357" y="88" on="0"/>
        <pt x="358" y="100" on="1"/>
        <pt x="315" y="56" on="0"/>
        <pt x="209" y="-9" on="0"/>
        <pt x="166" y="-9" on="1"/>
        <pt x="120" y="-9" on="0"/>
        <pt x="61" y="67" on="0"/>
        <pt x="61" y="143" on="1"/>
        <pt x="61" y="211" on="0"/>
        <pt x="105" y="337" on="0"/>
        <pt x="181" y="432" on="0"/>
        <pt x="285" y="489" on="0"/>
        <pt x="345" y="489" on="1"/>
        <pt x="373" y="489" on="0"/>
        <pt x="437" y="480" on="0"/>
        <pt x="474" y="470" on="1"/>
        <pt x="404" y="119" on="1"/>
        <pt x="401" y="103" on="0"/>
        <pt x="397" y="76" on="0"/>
        <pt x="397" y="66" on="1"/>
        <pt x="397" y="50" on="0"/>
        <pt x="410" y="32" on="0"/>
        <pt x="425" y="32" on="1"/>
        <pt x="437" y="32" on="0"/>
        <pt x="475" y="44" on="0"/>
        <pt x="503" y="56" on="1"/>
        <pt x="510" y="32" on="1"/>
        <pt x="475" y="11" on="0"/>
        <pt x="422" y="-8" on="0"/>
        <pt x="403" y="-8" on="1"/>
        <pt x="378" y="-8" on="0"/>
        <pt x="354" y="27" on="0"/>
      </contour>
    </TTGlyph>
    <TTGlyph name="acircumflex" xMin="61" yMin="-9" xMax="524" yMax="744">
      <contour>
        <pt x="493" y="567" on="1"/>
        <pt x="387" y="695" on="1"/>
        <pt x="221" y="571" on="1"/>
        <pt x="200" y="597" on="1"/>
        <pt x="395" y="744" on="1"/>
        <pt x="396" y="744" on="1"/>
        <pt x="524" y="593" on="1"/>
      </contour>
      <contour>
        <pt x="182" y="32" on="1"/>
        <pt x="221" y="32" on="0"/>
        <pt x="327" y="101" on="0"/>
        <pt x="367" y="144" on="1"/>
        <pt x="424" y="436" on="1"/>
        <pt x="395" y="443" on="0"/>
        <pt x="341" y="451" on="0"/>
        <pt x="320" y="451" on="1"/>
        <pt x="275" y="451" on="0"/>
        <pt x="196" y="402" on="0"/>
        <pt x="139" y="320" on="0"/>
        <pt x="105" y="211" on="0"/>
        <pt x="105" y="152" on="1"/>
        <pt x="105" y="90" on="0"/>
        <pt x="149" y="32" on="0"/>
      </contour>
      <contour>
        <pt x="354" y="58" on="1"/>
        <pt x="354" y="67" on="0"/>
        <pt x="357" y="88" on="0"/>
        <pt x="358" y="100" on="1"/>
        <pt x="315" y="56" on="0"/>
        <pt x="209" y="-9" on="0"/>
        <pt x="166" y="-9" on="1"/>
        <pt x="120" y="-9" on="0"/>
        <pt x="61" y="67" on="0"/>
        <pt x="61" y="143" on="1"/>
        <pt x="61" y="211" on="0"/>
        <pt x="105" y="337" on="0"/>
        <pt x="181" y="432" on="0"/>
        <pt x="285" y="489" on="0"/>
        <pt x="345" y="489" on="1"/>
        <pt x="373" y="489" on="0"/>
        <pt x="437" y="480" on="0"/>
        <pt x="474" y="470" on="1"/>
        <pt x="404" y="119" on="1"/>
        <pt x="401" y="103" on="0"/>
        <pt x="397" y="76" on="0"/>
        <pt x="397" y="66" on="1"/>
        <pt x="397" y="50" on="0"/>
        <pt x="410" y="32" on="0"/>
        <pt x="425" y="32" on="1"/>
        <pt x="437" y="32" on="0"/>
        <pt x="475" y="44" on="0"/>
        <pt x="503" y="56" on="1"/>
        <pt x="510" y="32" on="1"/>
        <pt x="475" y="11" on="0"/>
        <pt x="422" y="-8" on="0"/>
        <pt x="403" y="-8" on="1"/>
        <pt x="378" y="-8" on="0"/>
        <pt x="354" y="27" on="0"/>
      </contour>
    </TTGlyph>
    <TTGlyph name="acute" xMin="177" yMin="556" xMax="416" yMax="747">
      <contour>
        <pt x="177" y="577" on="1"/>
        <pt x="226" y="609" on="0"/>
        <pt x="341" y="707" on="0"/>
        <pt x="380" y="747" on="1"/>
        <pt x="416" y="709" on="1"/>
        <pt x="394" y="690" on="0"/>
        <pt x="337" y="648" on="0"/>
        <pt x="276" y="608" on="0"/>
        <pt x="215" y="571" on="0"/>
        <pt x="189" y="556" on="1"/>
      </contour>
    </TTGlyph>
    <TTGlyph name="adieresis" xMin="61" yMin="-9" xMax="515" yMax="707">
      <contour>
        <pt x="477" y="578" on="1"/>
        <pt x="435" y="576" on="1"/>
        <pt x="465" y="706" on="1"/>
        <pt x="515" y="707" on="1"/>
      </contour>
      <contour>
        <pt x="268" y="575" on="1"/>
        <pt x="226" y="574" on="1"/>
        <pt x="257" y="703" on="1"/>
        <pt x="306" y="704" on="1"/>
      </contour>
      <contour>
        <pt x="182" y="32" on="1"/>
        <pt x="221" y="32" on="0"/>
        <pt x="327" y="101" on="0"/>
        <pt x="367" y="144" on="1"/>
        <pt x="424" y="436" on="1"/>
        <pt x="395" y="443" on="0"/>
        <pt x="341" y="451" on="0"/>
        <pt x="320" y="451" on="1"/>
        <pt x="275" y="451" on="0"/>
        <pt x="196" y="402" on="0"/>
        <pt x="139" y="320" on="0"/>
        <pt x="105" y="211" on="0"/>
        <pt x="105" y="152" on="1"/>
        <pt x="105" y="90" on="0"/>
        <pt x="149" y="32" on="0"/>
      </contour>
      <contour>
        <pt x="354" y="58" on="1"/>
        <pt x="354" y="67" on="0"/>
        <pt x="357" y="88" on="0"/>
        <pt x="358" y="100" on="1"/>
        <pt x="315" y="56" on="0"/>
        <pt x="209" y="-9" on="0"/>
        <pt x="166" y="-9" on="1"/>
        <pt x="120" y="-9" on="0"/>
        <pt x="61" y="67" on="0"/>
        <pt x="61" y="143" on="1"/>
        <pt x="61" y="211" on="0"/>
        <pt x="105" y="337" on="0"/>
        <pt x="181" y="432" on="0"/>
        <pt x="285" y="489" on="0"/>
        <pt x="345" y="489" on="1"/>
        <pt x="373" y="489" on="0"/>
        <pt x="437" y="480" on="0"/>
        <pt x="474" y="470" on="1"/>
        <pt x="404" y="119" on="1"/>
        <pt x="401" y="103" on="0"/>
        <pt x="397" y="76" on="0"/>
        <pt x="397" y="66" on="1"/>
        <pt x="397" y="50" on="0"/>
        <pt x="410" y="32" on="0"/>
        <pt x="425" y="32" on="1"/>
        <pt x="437" y="32" on="0"/>
        <pt x="475" y="44" on="0"/>
        <pt x="503" y="56" on="1"/>
        <pt x="510" y="32" on="1"/>
        <pt x="475" y="11" on="0"/>
        <pt x="422" y="-8" on="0"/>
        <pt x="403" y="-8" on="1"/>
        <pt x="378" y="-8" on="0"/>
        <pt x="354" y="27" on="0"/>
      </contour>
    </TTGlyph>
    <TTGlyph name="ae" xMin="48" yMin="-7" xMax="544" yMax="489">
      <contour>
        <pt x="354" y="-7" on="1"/>
        <pt x="313" y="-7" on="0"/>
        <pt x="267" y="48" on="0"/>
        <pt x="260" y="95" on="1"/>
        <pt x="228" y="52" on="0"/>
        <pt x="157" y="-7" on="0"/>
        <pt x="118" y="-7" on="1"/>
        <pt x="86" y="-7" on="0"/>
        <pt x="48" y="56" on="0"/>
        <pt x="48" y="119" on="1"/>
        <pt x="48" y="187" on="0"/>
        <pt x="83" y="320" on="0"/>
        <pt x="143" y="423" on="0"/>
        <pt x="223" y="487" on="0"/>
        <pt x="269" y="487" on="1"/>
        <pt x="297" y="487" on="0"/>
        <pt x="346" y="466" on="0"/>
        <pt x="371" y="446" on="1"/>
        <pt x="392" y="466" on="0"/>
        <pt x="440" y="489" on="0"/>
        <pt x="465" y="489" on="1"/>
        <pt x="503" y="489" on="0"/>
        <pt x="544" y="442" on="0"/>
        <pt x="544" y="401" on="1"/>
        <pt x="544" y="362" on="0"/>
        <pt x="511" y="289" on="0"/>
        <pt x="448" y="231" on="0"/>
        <pt x="358" y="191" on="0"/>
        <pt x="301" y="184" on="1"/>
        <pt x="300" y="174" on="0"/>
        <pt x="299" y="152" on="0"/>
        <pt x="299" y="142" on="1"/>
        <pt x="299" y="90" on="0"/>
        <pt x="332" y="32" on="0"/>
        <pt x="369" y="32" on="1"/>
        <pt x="392" y="32" on="0"/>
        <pt x="457" y="56" on="0"/>
        <pt x="499" y="80" on="1"/>
        <pt x="504" y="54" on="1"/>
        <pt x="458" y="22" on="0"/>
        <pt x="382" y="-7" on="0"/>
      </contour>
      <contour>
        <pt x="454" y="450" on="1"/>
        <pt x="428" y="450" on="0"/>
        <pt x="379" y="408" on="0"/>
        <pt x="341" y="342" on="0"/>
        <pt x="312" y="257" on="0"/>
        <pt x="305" y="214" on="1"/>
        <pt x="393" y="226" on="0"/>
        <pt x="502" y="329" on="0"/>
        <pt x="502" y="392" on="1"/>
        <pt x="502" y="420" on="0"/>
        <pt x="477" y="450" on="0"/>
      </contour>
      <contour>
        <pt x="130" y="34" on="1"/>
        <pt x="158" y="34" on="0"/>
        <pt x="226" y="97" on="0"/>
        <pt x="257" y="140" on="1"/>
        <pt x="258" y="212" on="0"/>
        <pt x="304" y="361" on="0"/>
        <pt x="342" y="413" on="1"/>
        <pt x="318" y="432" on="0"/>
        <pt x="272" y="449" on="0"/>
        <pt x="254" y="449" on="1"/>
        <pt x="219" y="449" on="0"/>
        <pt x="159" y="389" on="0"/>
        <pt x="116" y="295" on="0"/>
        <pt x="91" y="178" on="0"/>
        <pt x="91" y="121" on="1"/>
        <pt x="91" y="77" on="0"/>
        <pt x="111" y="34" on="0"/>
      </contour>
    </TTGlyph>
    <TTGlyph name="aeacute" xMin="48" yMin="-7" xMax="544" yMax="747">
      <contour>
        <pt x="265" y="577" on="1"/>
        <pt x="314" y="609" on="0"/>
        <pt x="429" y="707" on="0"/>
        <pt x="468" y="747" on="1"/>
        <pt x="504" y="709" on="1"/>
        <pt x="482" y="690" on="0"/>
        <pt x="425" y="648" on="0"/>
        <pt x="364" y="608" on="0"/>
        <pt x="303" y="571" on="0"/>
        <pt x="277" y="556" on="1"/>
      </contour>
      <contour>
        <pt x="354" y="-7" on="1"/>
        <pt x="313" y="-7" on="0"/>
        <pt x="267" y="48" on="0"/>
        <pt x="260" y="95" on="1"/>
        <pt x="228" y="52" on="0"/>
        <pt x="157" y="-7" on="0"/>
        <pt x="118" y="-7" on="1"/>
        <pt x="86" y="-7" on="0"/>
        <pt x="48" y="56" on="0"/>
        <pt x="48" y="119" on="1"/>
        <pt x="48" y="187" on="0"/>
        <pt x="83" y="320" on="0"/>
        <pt x="143" y="423" on="0"/>
        <pt x="223" y="487" on="0"/>
        <pt x="269" y="487" on="1"/>
        <pt x="297" y="487" on="0"/>
        <pt x="346" y="466" on="0"/>
        <pt x="371" y="446" on="1"/>
        <pt x="392" y="466" on="0"/>
        <pt x="440" y="489" on="0"/>
        <pt x="465" y="489" on="1"/>
        <pt x="503" y="489" on="0"/>
        <pt x="544" y="442" on="0"/>
        <pt x="544" y="401" on="1"/>
        <pt x="544" y="362" on="0"/>
        <pt x="511" y="289" on="0"/>
        <pt x="448" y="231" on="0"/>
        <pt x="358" y="191" on="0"/>
        <pt x="301" y="184" on="1"/>
        <pt x="300" y="174" on="0"/>
        <pt x="299" y="152" on="0"/>
        <pt x="299" y="142" on="1"/>
        <pt x="299" y="90" on="0"/>
        <pt x="332" y="32" on="0"/>
        <pt x="369" y="32" on="1"/>
        <pt x="392" y="32" on="0"/>
        <pt x="457" y="56" on="0"/>
        <pt x="499" y="80" on="1"/>
        <pt x="504" y="54" on="1"/>
        <pt x="458" y="22" on="0"/>
        <pt x="382" y="-7" on="0"/>
      </contour>
      <contour>
        <pt x="454" y="450" on="1"/>
        <pt x="428" y="450" on="0"/>
        <pt x="379" y="408" on="0"/>
        <pt x="341" y="342" on="0"/>
        <pt x="312" y="257" on="0"/>
        <pt x="305" y="214" on="1"/>
        <pt x="393" y="226" on="0"/>
        <pt x="502" y="329" on="0"/>
        <pt x="502" y="392" on="1"/>
        <pt x="502" y="420" on="0"/>
        <pt x="477" y="450" on="0"/>
      </contour>
      <contour>
        <pt x="130" y="34" on="1"/>
        <pt x="158" y="34" on="0"/>
        <pt x="226" y="97" on="0"/>
        <pt x="257" y="140" on="1"/>
        <pt x="258" y="212" on="0"/>
        <pt x="304" y="361" on="0"/>
        <pt x="342" y="413" on="1"/>
        <pt x="318" y="432" on="0"/>
        <pt x="272" y="449" on="0"/>
        <pt x="254" y="449" on="1"/>
        <pt x="219" y="449" on="0"/>
        <pt x="159" y="389" on="0"/>
        <pt x="116" y="295" on="0"/>
        <pt x="91" y="178" on="0"/>
        <pt x="91" y="121" on="1"/>
        <pt x="91" y="77" on="0"/>
        <pt x="111" y="34" on="0"/>
      </contour>
    </TTGlyph>
    <TTGlyph name="agrave" xMin="61" yMin="-9" xMax="510" yMax="763">
      <contour>
        <pt x="449" y="577" on="1"/>
        <pt x="434" y="557" on="1"/>
        <pt x="413" y="572" on="0"/>
        <pt x="364" y="613" on="0"/>
        <pt x="315" y="658" on="0"/>
        <pt x="268" y="706" on="0"/>
        <pt x="250" y="727" on="1"/>
        <pt x="289" y="763" on="1"/>
        <pt x="319" y="719" on="0"/>
        <pt x="411" y="611" on="0"/>
      </contour>
      <contour>
        <pt x="182" y="32" on="1"/>
        <pt x="221" y="32" on="0"/>
        <pt x="327" y="101" on="0"/>
        <pt x="367" y="144" on="1"/>
        <pt x="424" y="436" on="1"/>
        <pt x="395" y="443" on="0"/>
        <pt x="341" y="451" on="0"/>
        <pt x="320" y="451" on="1"/>
        <pt x="275" y="451" on="0"/>
        <pt x="196" y="402" on="0"/>
        <pt x="139" y="320" on="0"/>
        <pt x="105" y="211" on="0"/>
        <pt x="105" y="152" on="1"/>
        <pt x="105" y="90" on="0"/>
        <pt x="149" y="32" on="0"/>
      </contour>
      <contour>
        <pt x="354" y="58" on="1"/>
        <pt x="354" y="67" on="0"/>
        <pt x="357" y="88" on="0"/>
        <pt x="358" y="100" on="1"/>
        <pt x="315" y="56" on="0"/>
        <pt x="209" y="-9" on="0"/>
        <pt x="166" y="-9" on="1"/>
        <pt x="120" y="-9" on="0"/>
        <pt x="61" y="67" on="0"/>
        <pt x="61" y="143" on="1"/>
        <pt x="61" y="211" on="0"/>
        <pt x="105" y="337" on="0"/>
        <pt x="181" y="432" on="0"/>
        <pt x="285" y="489" on="0"/>
        <pt x="345" y="489" on="1"/>
        <pt x="373" y="489" on="0"/>
        <pt x="437" y="480" on="0"/>
        <pt x="474" y="470" on="1"/>
        <pt x="404" y="119" on="1"/>
        <pt x="401" y="103" on="0"/>
        <pt x="397" y="76" on="0"/>
        <pt x="397" y="66" on="1"/>
        <pt x="397" y="50" on="0"/>
        <pt x="410" y="32" on="0"/>
        <pt x="425" y="32" on="1"/>
        <pt x="437" y="32" on="0"/>
        <pt x="475" y="44" on="0"/>
        <pt x="503" y="56" on="1"/>
        <pt x="510" y="32" on="1"/>
        <pt x="475" y="11" on="0"/>
        <pt x="422" y="-8" on="0"/>
        <pt x="403" y="-8" on="1"/>
        <pt x="378" y="-8" on="0"/>
        <pt x="354" y="27" on="0"/>
      </contour>
    </TTGlyph>
    <TTGlyph name="amacron" xMin="61" yMin="-9" xMax="531" yMax="662">
      <contour>
        <pt x="531" y="662" on="1"/>
        <pt x="524" y="624" on="1"/>
        <pt x="211" y="624" on="1"/>
        <pt x="219" y="662" on="1"/>
      </contour>
      <contour>
        <pt x="182" y="32" on="1"/>
        <pt x="221" y="32" on="0"/>
        <pt x="327" y="101" on="0"/>
        <pt x="367" y="144" on="1"/>
        <pt x="424" y="436" on="1"/>
        <pt x="395" y="443" on="0"/>
        <pt x="341" y="451" on="0"/>
        <pt x="320" y="451" on="1"/>
        <pt x="275" y="451" on="0"/>
        <pt x="196" y="402" on="0"/>
        <pt x="139" y="320" on="0"/>
        <pt x="105" y="211" on="0"/>
        <pt x="105" y="152" on="1"/>
        <pt x="105" y="90" on="0"/>
        <pt x="149" y="32" on="0"/>
      </contour>
      <contour>
        <pt x="354" y="58" on="1"/>
        <pt x="354" y="67" on="0"/>
        <pt x="357" y="88" on="0"/>
        <pt x="358" y="100" on="1"/>
        <pt x="315" y="56" on="0"/>
        <pt x="209" y="-9" on="0"/>
        <pt x="166" y="-9" on="1"/>
        <pt x="120" y="-9" on="0"/>
        <pt x="61" y="67" on="0"/>
        <pt x="61" y="143" on="1"/>
        <pt x="61" y="211" on="0"/>
        <pt x="105" y="337" on="0"/>
        <pt x="181" y="432" on="0"/>
        <pt x="285" y="489" on="0"/>
        <pt x="345" y="489" on="1"/>
        <pt x="373" y="489" on="0"/>
        <pt x="437" y="480" on="0"/>
        <pt x="474" y="470" on="1"/>
        <pt x="404" y="119" on="1"/>
        <pt x="401" y="103" on="0"/>
        <pt x="397" y="76" on="0"/>
        <pt x="397" y="66" on="1"/>
        <pt x="397" y="50" on="0"/>
        <pt x="410" y="32" on="0"/>
        <pt x="425" y="32" on="1"/>
        <pt x="437" y="32" on="0"/>
        <pt x="475" y="44" on="0"/>
        <pt x="503" y="56" on="1"/>
        <pt x="510" y="32" on="1"/>
        <pt x="475" y="11" on="0"/>
        <pt x="422" y="-8" on="0"/>
        <pt x="403" y="-8" on="1"/>
        <pt x="378" y="-8" on="0"/>
        <pt x="354" y="27" on="0"/>
      </contour>
    </TTGlyph>
    <TTGlyph name="ampersand" xMin="25" yMin="-18" xMax="517" yMax="640">
      <contour>
        <pt x="486" y="-18" on="1"/>
        <pt x="447" y="17" on="0"/>
        <pt x="380" y="90" on="0"/>
        <pt x="353" y="127" on="1"/>
        <pt x="293" y="61" on="0"/>
        <pt x="177" y="-10" on="0"/>
        <pt x="130" y="-10" on="1"/>
        <pt x="80" y="-10" on="0"/>
        <pt x="25" y="49" on="0"/>
        <pt x="25" y="101" on="1"/>
        <pt x="25" y="143" on="0"/>
        <pt x="62" y="230" on="0"/>
        <pt x="124" y="316" on="0"/>
        <pt x="207" y="402" on="0"/>
        <pt x="251" y="443" on="1"/>
        <pt x="254" y="478" on="0"/>
        <pt x="273" y="549" on="0"/>
        <pt x="300" y="605" on="0"/>
        <pt x="331" y="640" on="0"/>
        <pt x="344" y="640" on="1"/>
        <pt x="357" y="640" on="0"/>
        <pt x="374" y="621" on="0"/>
        <pt x="374" y="602" on="1"/>
        <pt x="374" y="565" on="0"/>
        <pt x="327" y="473" on="0"/>
        <pt x="287" y="429" on="1"/>
        <pt x="289" y="365" on="0"/>
        <pt x="327" y="247" on="0"/>
        <pt x="361" y="192" on="1"/>
        <pt x="388" y="227" on="0"/>
        <pt x="441" y="313" on="0"/>
        <pt x="466" y="363" on="1"/>
        <pt x="507" y="349" on="1"/>
        <pt x="477" y="295" on="0"/>
        <pt x="414" y="200" on="0"/>
        <pt x="382" y="160" on="1"/>
        <pt x="409" y="123" on="0"/>
        <pt x="477" y="52" on="0"/>
        <pt x="517" y="16" on="1"/>
      </contour>
      <contour>
        <pt x="141" y="31" on="1"/>
        <pt x="179" y="31" on="0"/>
        <pt x="279" y="95" on="0"/>
        <pt x="332" y="157" on="1"/>
        <pt x="296" y="213" on="0"/>
        <pt x="254" y="334" on="0"/>
        <pt x="251" y="398" on="1"/>
        <pt x="216" y="362" on="0"/>
        <pt x="149" y="288" on="0"/>
        <pt x="99" y="214" on="0"/>
        <pt x="68" y="142" on="0"/>
        <pt x="68" y="108" on="1"/>
        <pt x="68" y="72" on="0"/>
        <pt x="107" y="31" on="0"/>
      </contour>
    </TTGlyph>
    <TTGlyph name="aogonek" xMin="61" yMin="-205" xMax="510" yMax="489">
      <contour>
        <pt x="353" y="-205" on="1"/>
        <pt x="316" y="-205" on="0"/>
        <pt x="277" y="-170" on="0"/>
        <pt x="277" y="-145" on="1"/>
        <pt x="277" y="-111" on="0"/>
        <pt x="336" y="-40" on="0"/>
        <pt x="399" y="-1" on="1"/>
        <pt x="376" y="1" on="0"/>
        <pt x="355" y="33" on="0"/>
        <pt x="355" y="61" on="1"/>
        <pt x="355" y="69" on="0"/>
        <pt x="357" y="89" on="0"/>
        <pt x="358" y="100" on="1"/>
        <pt x="315" y="56" on="0"/>
        <pt x="209" y="-9" on="0"/>
        <pt x="166" y="-9" on="1"/>
        <pt x="120" y="-9" on="0"/>
        <pt x="61" y="67" on="0"/>
        <pt x="61" y="143" on="1"/>
        <pt x="61" y="211" on="0"/>
        <pt x="105" y="337" on="0"/>
        <pt x="181" y="432" on="0"/>
        <pt x="285" y="489" on="0"/>
        <pt x="345" y="489" on="1"/>
        <pt x="373" y="489" on="0"/>
        <pt x="437" y="480" on="0"/>
        <pt x="474" y="470" on="1"/>
        <pt x="404" y="119" on="1"/>
        <pt x="401" y="103" on="0"/>
        <pt x="397" y="76" on="0"/>
        <pt x="397" y="66" on="1"/>
        <pt x="397" y="50" on="0"/>
        <pt x="410" y="32" on="0"/>
        <pt x="425" y="32" on="1"/>
        <pt x="437" y="32" on="0"/>
        <pt x="475" y="44" on="0"/>
        <pt x="503" y="56" on="1"/>
        <pt x="510" y="32" on="1"/>
        <pt x="409" y="-19" on="0"/>
        <pt x="320" y="-98" on="0"/>
        <pt x="320" y="-134" on="1"/>
        <pt x="320" y="-149" on="0"/>
        <pt x="344" y="-169" on="0"/>
        <pt x="369" y="-169" on="1"/>
        <pt x="387" y="-169" on="0"/>
        <pt x="440" y="-156" on="0"/>
        <pt x="474" y="-142" on="1"/>
        <pt x="482" y="-165" on="1"/>
        <pt x="442" y="-186" on="0"/>
        <pt x="378" y="-205" on="0"/>
      </contour>
      <contour>
        <pt x="182" y="32" on="1"/>
        <pt x="221" y="32" on="0"/>
        <pt x="327" y="101" on="0"/>
        <pt x="367" y="144" on="1"/>
        <pt x="424" y="436" on="1"/>
        <pt x="395" y="443" on="0"/>
        <pt x="341" y="451" on="0"/>
        <pt x="320" y="451" on="1"/>
        <pt x="275" y="451" on="0"/>
        <pt x="196" y="402" on="0"/>
        <pt x="139" y="320" on="0"/>
        <pt x="105" y="211" on="0"/>
        <pt x="105" y="152" on="1"/>
        <pt x="105" y="90" on="0"/>
        <pt x="149" y="32" on="0"/>
      </contour>
    </TTGlyph>
    <TTGlyph name="approxequal" xMin="44" yMin="106" xMax="524" yMax="469">
      <contour>
        <pt x="382" y="310" on="1"/>
        <pt x="353" y="310" on="0"/>
        <pt x="311" y="348" on="0"/>
        <pt x="276" y="394" on="0"/>
        <pt x="242" y="432" on="0"/>
        <pt x="221" y="432" on="1"/>
        <pt x="195" y="432" on="0"/>
        <pt x="140" y="363" on="0"/>
        <pt x="109" y="314" on="1"/>
        <pt x="83" y="329" on="1"/>
        <pt x="125" y="401" on="0"/>
        <pt x="191" y="469" on="0"/>
        <pt x="228" y="469" on="1"/>
        <pt x="257" y="469" on="0"/>
        <pt x="299" y="431" on="0"/>
        <pt x="334" y="385" on="0"/>
        <pt x="366" y="347" on="0"/>
        <pt x="387" y="347" on="1"/>
        <pt x="413" y="347" on="0"/>
        <pt x="468" y="414" on="0"/>
        <pt x="498" y="463" on="1"/>
        <pt x="524" y="448" on="1"/>
        <pt x="482" y="377" on="0"/>
        <pt x="419" y="310" on="0"/>
      </contour>
      <contour>
        <pt x="343" y="106" on="1"/>
        <pt x="314" y="106" on="0"/>
        <pt x="271" y="144" on="0"/>
        <pt x="236" y="190" on="0"/>
        <pt x="202" y="228" on="0"/>
        <pt x="181" y="228" on="1"/>
        <pt x="155" y="228" on="0"/>
        <pt x="100" y="159" on="0"/>
        <pt x="69" y="110" on="1"/>
        <pt x="44" y="125" on="1"/>
        <pt x="85" y="197" on="0"/>
        <pt x="152" y="265" on="0"/>
        <pt x="189" y="265" on="1"/>
        <pt x="218" y="265" on="0"/>
        <pt x="260" y="227" on="0"/>
        <pt x="295" y="181" on="0"/>
        <pt x="327" y="143" on="0"/>
        <pt x="348" y="143" on="1"/>
        <pt x="374" y="143" on="0"/>
        <pt x="429" y="210" on="0"/>
        <pt x="458" y="259" on="1"/>
        <pt x="484" y="244" on="1"/>
        <pt x="443" y="173" on="0"/>
        <pt x="380" y="106" on="0"/>
      </contour>
    </TTGlyph>
    <TTGlyph name="aring" xMin="61" yMin="-9" xMax="510" yMax="758">
      <contour>
        <pt x="378" y="758" on="1"/>
        <pt x="432" y="758" on="0"/>
        <pt x="502" y="702" on="0"/>
        <pt x="502" y="660" on="1"/>
        <pt x="502" y="614" on="0"/>
        <pt x="425" y="551" on="0"/>
        <pt x="367" y="551" on="1"/>
        <pt x="313" y="551" on="0"/>
        <pt x="243" y="607" on="0"/>
        <pt x="243" y="649" on="1"/>
        <pt x="243" y="695" on="0"/>
        <pt x="320" y="758" on="0"/>
      </contour>
      <contour>
        <pt x="374" y="727" on="1"/>
        <pt x="334" y="727" on="0"/>
        <pt x="279" y="684" on="0"/>
        <pt x="279" y="653" on="1"/>
        <pt x="279" y="623" on="0"/>
        <pt x="331" y="582" on="0"/>
        <pt x="371" y="582" on="1"/>
        <pt x="412" y="582" on="0"/>
        <pt x="467" y="625" on="0"/>
        <pt x="467" y="656" on="1"/>
        <pt x="467" y="685" on="0"/>
        <pt x="414" y="727" on="0"/>
      </contour>
      <contour>
        <pt x="182" y="32" on="1"/>
        <pt x="221" y="32" on="0"/>
        <pt x="327" y="101" on="0"/>
        <pt x="367" y="144" on="1"/>
        <pt x="424" y="436" on="1"/>
        <pt x="395" y="443" on="0"/>
        <pt x="341" y="451" on="0"/>
        <pt x="320" y="451" on="1"/>
        <pt x="275" y="451" on="0"/>
        <pt x="196" y="402" on="0"/>
        <pt x="139" y="320" on="0"/>
        <pt x="105" y="211" on="0"/>
        <pt x="105" y="152" on="1"/>
        <pt x="105" y="90" on="0"/>
        <pt x="149" y="32" on="0"/>
      </contour>
      <contour>
        <pt x="354" y="58" on="1"/>
        <pt x="354" y="67" on="0"/>
        <pt x="357" y="88" on="0"/>
        <pt x="358" y="100" on="1"/>
        <pt x="315" y="56" on="0"/>
        <pt x="209" y="-9" on="0"/>
        <pt x="166" y="-9" on="1"/>
        <pt x="120" y="-9" on="0"/>
        <pt x="61" y="67" on="0"/>
        <pt x="61" y="143" on="1"/>
        <pt x="61" y="211" on="0"/>
        <pt x="105" y="337" on="0"/>
        <pt x="181" y="432" on="0"/>
        <pt x="285" y="489" on="0"/>
        <pt x="345" y="489" on="1"/>
        <pt x="373" y="489" on="0"/>
        <pt x="437" y="480" on="0"/>
        <pt x="474" y="470" on="1"/>
        <pt x="404" y="119" on="1"/>
        <pt x="401" y="103" on="0"/>
        <pt x="397" y="76" on="0"/>
        <pt x="397" y="66" on="1"/>
        <pt x="397" y="50" on="0"/>
        <pt x="410" y="32" on="0"/>
        <pt x="425" y="32" on="1"/>
        <pt x="437" y="32" on="0"/>
        <pt x="475" y="44" on="0"/>
        <pt x="503" y="56" on="1"/>
        <pt x="510" y="32" on="1"/>
        <pt x="475" y="11" on="0"/>
        <pt x="422" y="-8" on="0"/>
        <pt x="403" y="-8" on="1"/>
        <pt x="378" y="-8" on="0"/>
        <pt x="354" y="27" on="0"/>
      </contour>
    </TTGlyph>
    <TTGlyph name="aringacute" xMin="61" yMin="-9" xMax="559" yMax="991">
      <contour>
        <pt x="320" y="821" on="1"/>
        <pt x="369" y="853" on="0"/>
        <pt x="484" y="951" on="0"/>
        <pt x="523" y="991" on="1"/>
        <pt x="559" y="953" on="1"/>
        <pt x="537" y="934" on="0"/>
        <pt x="480" y="892" on="0"/>
        <pt x="419" y="852" on="0"/>
        <pt x="358" y="815" on="0"/>
        <pt x="332" y="800" on="1"/>
      </contour>
      <contour>
        <pt x="378" y="758" on="1"/>
        <pt x="432" y="758" on="0"/>
        <pt x="502" y="702" on="0"/>
        <pt x="502" y="660" on="1"/>
        <pt x="502" y="614" on="0"/>
        <pt x="425" y="551" on="0"/>
        <pt x="367" y="551" on="1"/>
        <pt x="313" y="551" on="0"/>
        <pt x="243" y="607" on="0"/>
        <pt x="243" y="649" on="1"/>
        <pt x="243" y="695" on="0"/>
        <pt x="320" y="758" on="0"/>
      </contour>
      <contour>
        <pt x="374" y="727" on="1"/>
        <pt x="334" y="727" on="0"/>
        <pt x="279" y="684" on="0"/>
        <pt x="279" y="653" on="1"/>
        <pt x="279" y="623" on="0"/>
        <pt x="331" y="582" on="0"/>
        <pt x="371" y="582" on="1"/>
        <pt x="412" y="582" on="0"/>
        <pt x="467" y="625" on="0"/>
        <pt x="467" y="656" on="1"/>
        <pt x="467" y="685" on="0"/>
        <pt x="414" y="727" on="0"/>
      </contour>
      <contour>
        <pt x="182" y="32" on="1"/>
        <pt x="221" y="32" on="0"/>
        <pt x="327" y="101" on="0"/>
        <pt x="367" y="144" on="1"/>
        <pt x="424" y="436" on="1"/>
        <pt x="395" y="443" on="0"/>
        <pt x="341" y="451" on="0"/>
        <pt x="320" y="451" on="1"/>
        <pt x="275" y="451" on="0"/>
        <pt x="196" y="402" on="0"/>
        <pt x="139" y="320" on="0"/>
        <pt x="105" y="211" on="0"/>
        <pt x="105" y="152" on="1"/>
        <pt x="105" y="90" on="0"/>
        <pt x="149" y="32" on="0"/>
      </contour>
      <contour>
        <pt x="354" y="58" on="1"/>
        <pt x="354" y="67" on="0"/>
        <pt x="357" y="88" on="0"/>
        <pt x="358" y="100" on="1"/>
        <pt x="315" y="56" on="0"/>
        <pt x="209" y="-9" on="0"/>
        <pt x="166" y="-9" on="1"/>
        <pt x="120" y="-9" on="0"/>
        <pt x="61" y="67" on="0"/>
        <pt x="61" y="143" on="1"/>
        <pt x="61" y="211" on="0"/>
        <pt x="105" y="337" on="0"/>
        <pt x="181" y="432" on="0"/>
        <pt x="285" y="489" on="0"/>
        <pt x="345" y="489" on="1"/>
        <pt x="373" y="489" on="0"/>
        <pt x="437" y="480" on="0"/>
        <pt x="474" y="470" on="1"/>
        <pt x="404" y="119" on="1"/>
        <pt x="401" y="103" on="0"/>
        <pt x="397" y="76" on="0"/>
        <pt x="397" y="66" on="1"/>
        <pt x="397" y="50" on="0"/>
        <pt x="410" y="32" on="0"/>
        <pt x="425" y="32" on="1"/>
        <pt x="437" y="32" on="0"/>
        <pt x="475" y="44" on="0"/>
        <pt x="503" y="56" on="1"/>
        <pt x="510" y="32" on="1"/>
        <pt x="475" y="11" on="0"/>
        <pt x="422" y="-8" on="0"/>
        <pt x="403" y="-8" on="1"/>
        <pt x="378" y="-8" on="0"/>
        <pt x="354" y="27" on="0"/>
      </contour>
    </TTGlyph>
    <TTGlyph name="asciicircum" xMin="53" yMin="167" xMax="487" yMax="487">
      <contour>
        <pt x="448" y="170" on="1"/>
        <pt x="308" y="426" on="1"/>
        <pt x="82" y="167" on="1"/>
        <pt x="53" y="193" on="1"/>
        <pt x="308" y="485" on="1"/>
        <pt x="321" y="487" on="1"/>
        <pt x="487" y="194" on="1"/>
      </contour>
    </TTGlyph>
    <TTGlyph name="asciitilde" xMin="48" yMin="205" xMax="532" yMax="405">
      <contour>
        <pt x="375" y="205" on="1"/>
        <pt x="343" y="205" on="0"/>
        <pt x="297" y="255" on="0"/>
        <pt x="259" y="315" on="0"/>
        <pt x="221" y="365" on="0"/>
        <pt x="198" y="365" on="1"/>
        <pt x="168" y="365" on="0"/>
        <pt x="106" y="278" on="0"/>
        <pt x="79" y="215" on="1"/>
        <pt x="48" y="228" on="1"/>
        <pt x="86" y="315" on="0"/>
        <pt x="164" y="405" on="0"/>
        <pt x="205" y="405" on="1"/>
        <pt x="237" y="405" on="0"/>
        <pt x="283" y="355" on="0"/>
        <pt x="321" y="295" on="0"/>
        <pt x="357" y="245" on="0"/>
        <pt x="380" y="245" on="1"/>
        <pt x="410" y="245" on="0"/>
        <pt x="473" y="332" on="0"/>
        <pt x="500" y="395" on="1"/>
        <pt x="532" y="382" on="1"/>
        <pt x="493" y="295" on="0"/>
        <pt x="416" y="205" on="0"/>
      </contour>
    </TTGlyph>
    <TTGlyph name="asterisk" xMin="138" yMin="299" xMax="511" yMax="685">
      <contour>
        <pt x="368" y="299" on="1"/>
        <pt x="298" y="442" on="1"/>
        <pt x="163" y="358" on="1"/>
        <pt x="147" y="378" on="1"/>
        <pt x="262" y="488" on="1"/>
        <pt x="138" y="591" on="1"/>
        <pt x="153" y="612" on="1"/>
        <pt x="292" y="536" on="1"/>
        <pt x="354" y="685" on="1"/>
        <pt x="380" y="678" on="1"/>
        <pt x="351" y="521" on="1"/>
        <pt x="511" y="508" on="1"/>
        <pt x="511" y="483" on="1"/>
        <pt x="353" y="463" on="1"/>
        <pt x="392" y="309" on="1"/>
      </contour>
    </TTGlyph>
    <TTGlyph name="asterisk.alt" xMin="114" yMin="295" xMax="510" yMax="689">
      <contour>
        <pt x="341" y="557" on="1"/>
        <pt x="320" y="562" on="1"/>
        <pt x="343" y="689" on="1"/>
        <pt x="389" y="676" on="1"/>
      </contour>
      <contour>
        <pt x="271" y="551" on="1"/>
        <pt x="255" y="534" on="1"/>
        <pt x="157" y="617" on="1"/>
        <pt x="191" y="651" on="1"/>
      </contour>
      <contour>
        <pt x="383" y="498" on="1"/>
        <pt x="376" y="521" on="1"/>
        <pt x="497" y="564" on="1"/>
        <pt x="510" y="518" on="1"/>
      </contour>
      <contour>
        <pt x="241" y="486" on="1"/>
        <pt x="248" y="463" on="1"/>
        <pt x="127" y="420" on="1"/>
        <pt x="114" y="466" on="1"/>
      </contour>
      <contour>
        <pt x="354" y="433" on="1"/>
        <pt x="369" y="450" on="1"/>
        <pt x="467" y="367" on="1"/>
        <pt x="434" y="333" on="1"/>
      </contour>
      <contour>
        <pt x="283" y="426" on="1"/>
        <pt x="304" y="421" on="1"/>
        <pt x="282" y="295" on="1"/>
        <pt x="236" y="307" on="1"/>
      </contour>
    </TTGlyph>
    <TTGlyph name="at" xMin="62" yMin="-155" xMax="544" yMax="680">
      <contour>
        <pt x="276" y="-155" on="1"/>
        <pt x="163" y="-155" on="0"/>
        <pt x="62" y="-13" on="0"/>
        <pt x="62" y="112" on="1"/>
        <pt x="62" y="219" on="0"/>
        <pt x="117" y="424" on="0"/>
        <pt x="213" y="583" on="0"/>
        <pt x="343" y="680" on="0"/>
        <pt x="417" y="680" on="1"/>
        <pt x="480" y="680" on="0"/>
        <pt x="544" y="606" on="0"/>
        <pt x="544" y="537" on="1"/>
        <pt x="544" y="515" on="0"/>
        <pt x="539" y="467" on="0"/>
        <pt x="533" y="440" on="1"/>
        <pt x="488" y="225" on="1"/>
        <pt x="481" y="188" on="0"/>
        <pt x="466" y="100" on="0"/>
        <pt x="462" y="64" on="1"/>
        <pt x="422" y="65" on="1"/>
        <pt x="427" y="115" on="1"/>
        <pt x="400" y="92" on="0"/>
        <pt x="337" y="59" on="0"/>
        <pt x="311" y="59" on="1"/>
        <pt x="280" y="59" on="0"/>
        <pt x="238" y="122" on="0"/>
        <pt x="238" y="186" on="1"/>
        <pt x="238" y="239" on="0"/>
        <pt x="268" y="343" on="0"/>
        <pt x="321" y="425" on="0"/>
        <pt x="395" y="476" on="0"/>
        <pt x="439" y="476" on="1"/>
        <pt x="451" y="476" on="0"/>
        <pt x="481" y="471" on="0"/>
        <pt x="498" y="467" on="1"/>
        <pt x="501" y="484" on="0"/>
        <pt x="504" y="517" on="0"/>
        <pt x="504" y="531" on="1"/>
        <pt x="504" y="586" on="0"/>
        <pt x="455" y="643" on="0"/>
        <pt x="405" y="643" on="1"/>
        <pt x="344" y="643" on="0"/>
        <pt x="234" y="552" on="0"/>
        <pt x="152" y="405" on="0"/>
        <pt x="103" y="215" on="0"/>
        <pt x="103" y="116" on="1"/>
        <pt x="103" y="7" on="0"/>
        <pt x="185" y="-117" on="0"/>
        <pt x="283" y="-117" on="1"/>
        <pt x="308" y="-117" on="0"/>
        <pt x="369" y="-108" on="0"/>
        <pt x="403" y="-99" on="1"/>
        <pt x="398" y="-138" on="1"/>
        <pt x="364" y="-146" on="0"/>
        <pt x="303" y="-155" on="0"/>
      </contour>
      <contour>
        <pt x="329" y="99" on="1"/>
        <pt x="351" y="99" on="0"/>
        <pt x="410" y="131" on="0"/>
        <pt x="433" y="152" on="1"/>
        <pt x="490" y="426" on="1"/>
        <pt x="470" y="432" on="0"/>
        <pt x="433" y="439" on="0"/>
        <pt x="418" y="439" on="1"/>
        <pt x="390" y="439" on="0"/>
        <pt x="340" y="394" on="0"/>
        <pt x="302" y="324" on="0"/>
        <pt x="279" y="234" on="0"/>
        <pt x="279" y="189" on="1"/>
        <pt x="279" y="141" on="0"/>
        <pt x="308" y="99" on="0"/>
      </contour>
    </TTGlyph>
    <TTGlyph name="atilde" xMin="61" yMin="-9" xMax="574" yMax="727">
      <contour>
        <pt x="443" y="612" on="1"/>
        <pt x="468" y="612" on="0"/>
        <pt x="521" y="679" on="0"/>
        <pt x="549" y="726" on="1"/>
        <pt x="574" y="711" on="1"/>
        <pt x="537" y="646" on="0"/>
        <pt x="469" y="576" on="0"/>
        <pt x="433" y="576" on="1"/>
        <pt x="408" y="576" on="0"/>
        <pt x="375" y="612" on="0"/>
        <pt x="348" y="655" on="0"/>
        <pt x="322" y="691" on="0"/>
        <pt x="303" y="691" on="1"/>
        <pt x="278" y="691" on="0"/>
        <pt x="225" y="630" on="0"/>
        <pt x="197" y="583" on="1"/>
        <pt x="172" y="598" on="1"/>
        <pt x="209" y="663" on="0"/>
        <pt x="278" y="727" on="0"/>
        <pt x="313" y="727" on="1"/>
        <pt x="338" y="727" on="0"/>
        <pt x="371" y="691" on="0"/>
        <pt x="398" y="648" on="0"/>
        <pt x="424" y="612" on="0"/>
      </contour>
      <contour>
        <pt x="182" y="32" on="1"/>
        <pt x="221" y="32" on="0"/>
        <pt x="327" y="101" on="0"/>
        <pt x="367" y="144" on="1"/>
        <pt x="424" y="436" on="1"/>
        <pt x="395" y="443" on="0"/>
        <pt x="341" y="451" on="0"/>
        <pt x="320" y="451" on="1"/>
        <pt x="275" y="451" on="0"/>
        <pt x="196" y="402" on="0"/>
        <pt x="139" y="320" on="0"/>
        <pt x="105" y="211" on="0"/>
        <pt x="105" y="152" on="1"/>
        <pt x="105" y="90" on="0"/>
        <pt x="149" y="32" on="0"/>
      </contour>
      <contour>
        <pt x="354" y="58" on="1"/>
        <pt x="354" y="67" on="0"/>
        <pt x="357" y="88" on="0"/>
        <pt x="358" y="100" on="1"/>
        <pt x="315" y="56" on="0"/>
        <pt x="209" y="-9" on="0"/>
        <pt x="166" y="-9" on="1"/>
        <pt x="120" y="-9" on="0"/>
        <pt x="61" y="67" on="0"/>
        <pt x="61" y="143" on="1"/>
        <pt x="61" y="211" on="0"/>
        <pt x="105" y="337" on="0"/>
        <pt x="181" y="432" on="0"/>
        <pt x="285" y="489" on="0"/>
        <pt x="345" y="489" on="1"/>
        <pt x="373" y="489" on="0"/>
        <pt x="437" y="480" on="0"/>
        <pt x="474" y="470" on="1"/>
        <pt x="404" y="119" on="1"/>
        <pt x="401" y="103" on="0"/>
        <pt x="397" y="76" on="0"/>
        <pt x="397" y="66" on="1"/>
        <pt x="397" y="50" on="0"/>
        <pt x="410" y="32" on="0"/>
        <pt x="425" y="32" on="1"/>
        <pt x="437" y="32" on="0"/>
        <pt x="475" y="44" on="0"/>
        <pt x="503" y="56" on="1"/>
        <pt x="510" y="32" on="1"/>
        <pt x="475" y="11" on="0"/>
        <pt x="422" y="-8" on="0"/>
        <pt x="403" y="-8" on="1"/>
        <pt x="378" y="-8" on="0"/>
        <pt x="354" y="27" on="0"/>
      </contour>
    </TTGlyph>
    <TTGlyph name="b" xMin="67" yMin="-9" xMax="487" yMax="702">
      <contour>
        <pt x="203" y="-9" on="1"/>
        <pt x="175" y="-9" on="0"/>
        <pt x="104" y="2" on="0"/>
        <pt x="67" y="12" on="1"/>
        <pt x="200" y="698" on="1"/>
        <pt x="243" y="702" on="1"/>
        <pt x="181" y="380" on="1"/>
        <pt x="224" y="425" on="0"/>
        <pt x="332" y="491" on="0"/>
        <pt x="376" y="491" on="1"/>
        <pt x="423" y="491" on="0"/>
        <pt x="487" y="410" on="0"/>
        <pt x="487" y="330" on="1"/>
        <pt x="487" y="263" on="0"/>
        <pt x="444" y="140" on="0"/>
        <pt x="368" y="47" on="0"/>
        <pt x="264" y="-9" on="0"/>
      </contour>
      <contour>
        <pt x="228" y="29" on="1"/>
        <pt x="274" y="29" on="0"/>
        <pt x="353" y="77" on="0"/>
        <pt x="411" y="158" on="0"/>
        <pt x="444" y="264" on="0"/>
        <pt x="444" y="322" on="1"/>
        <pt x="444" y="387" on="0"/>
        <pt x="395" y="450" on="0"/>
        <pt x="361" y="450" on="1"/>
        <pt x="319" y="450" on="0"/>
        <pt x="212" y="379" on="0"/>
        <pt x="172" y="334" on="1"/>
        <pt x="116" y="46" on="1"/>
        <pt x="148" y="38" on="0"/>
        <pt x="206" y="29" on="0"/>
      </contour>
    </TTGlyph>
    <TTGlyph name="backslash" xMin="122" yMin="-177" xMax="441" yMax="706">
      <contour>
        <pt x="157" y="706" on="1"/>
        <pt x="441" y="-167" on="1"/>
        <pt x="404" y="-177" on="1"/>
        <pt x="122" y="694" on="1"/>
      </contour>
    </TTGlyph>
    <TTGlyph name="bar" xMin="171" yMin="-180" xMax="382" yMax="700">
      <contour>
        <pt x="342" y="698" on="1"/>
        <pt x="382" y="700" on="1"/>
        <pt x="211" y="-180" on="1"/>
        <pt x="171" y="-180" on="1"/>
      </contour>
    </TTGlyph>
</ttFont>
